<svg width="501" height="405" viewBox="0 0 501 405" fill="none" xmlns="http://www.w3.org/2000/svg">
<g clip-path="url(#clip0_1909_8005)">
<g opacity="0.05">
<path d="M250.499 405C372.857 405 472.048 399.205 472.048 392.056C472.048 384.907 372.857 379.112 250.499 379.112C128.14 379.112 28.9492 384.907 28.9492 392.056C28.9492 399.205 128.14 405 250.499 405Z" fill="#1A0D05"/>
</g>
<path d="M144.928 199.094L143.88 198.645C144.828 196.407 145.367 194.56 145.537 192.982L146.675 193.112C146.485 194.799 145.916 196.757 144.928 199.094ZM144.479 186C142.262 181.126 138.139 178.05 132.559 177.111L132.748 175.983C138.718 176.991 143.131 180.287 145.517 185.521L144.479 185.99V186Z" fill="#807B79"/>
<path d="M138.5 210.59L127.258 215.714L126.749 214.585C125.881 212.667 125.392 211.019 125.282 209.631C125.172 208.243 125.322 206.855 125.731 205.476C126.14 204.098 127.278 201.481 129.145 197.636C130.154 195.608 130.403 194.05 129.914 192.962C129.425 191.873 128.716 191.184 127.797 190.864C126.879 190.555 125.771 190.695 124.473 191.284C123.075 191.923 122.127 192.912 121.628 194.26C121.129 195.608 121.278 197.486 122.077 199.913L109.947 203.718C108.42 199.314 108.41 195.219 109.907 191.424C111.405 187.628 114.919 184.482 120.44 181.965C124.743 180.008 128.616 179.329 132.08 179.918C136.772 180.707 140.037 183.134 141.884 187.169C142.643 188.847 142.922 190.675 142.703 192.652C142.483 194.63 141.455 197.396 139.618 200.952C138.34 203.439 137.661 205.277 137.581 206.475C137.491 207.674 137.801 209.042 138.5 210.58V210.59ZM128.237 218.88L140.277 213.397L145.109 224.023L133.069 229.507L128.237 218.88Z" fill="#807B79"/>
<path d="M110.685 236.009L104.964 243.779L104.186 243.21C102.868 242.241 101.9 241.292 101.301 240.393C100.702 239.484 100.272 238.485 100.033 237.387C99.7931 236.288 99.5735 234.081 99.3838 230.745C99.2939 228.977 98.8846 227.819 98.1259 227.269C97.3771 226.72 96.6284 226.51 95.8896 226.65C95.1509 226.79 94.4421 227.309 93.7832 228.208C93.0743 229.177 92.8048 230.216 92.9745 231.314C93.1442 232.423 93.9629 233.651 95.4304 235L88.6118 242.211C85.8964 239.794 84.329 236.997 83.9097 233.841C83.4904 230.685 84.6884 227.199 87.4937 223.384C89.68 220.418 92.066 218.47 94.6517 217.561C98.1558 216.313 101.301 216.722 104.096 218.78C105.254 219.629 106.132 220.777 106.741 222.206C107.35 223.644 107.7 225.911 107.79 229.037C107.87 231.214 108.099 232.733 108.499 233.582C108.898 234.43 109.627 235.249 110.685 236.029V236.009ZM106.831 245.567L112.961 237.247L120.299 242.65L114.169 250.97L106.831 245.567Z" fill="#807B79"/>
<path d="M232.322 387.941C230.465 387.941 228.678 386.932 227.769 385.165C223.177 376.286 217.407 365.878 207.024 354.602C205.806 353.284 205.377 351.426 205.866 349.708C209.719 336.325 215.769 318.017 215.829 317.838C216.718 315.151 219.623 313.693 222.308 314.582C224.994 315.471 226.451 318.377 225.563 321.064C225.503 321.233 220.292 336.994 216.508 349.818C226.052 360.645 231.932 370.922 236.864 380.45C238.162 382.967 237.184 386.063 234.668 387.362C233.919 387.751 233.11 387.941 232.312 387.941H232.322Z" fill="#BCA496"/>
<path d="M240.859 392.056H201.105L222.17 380.101L239.831 380.79L240.859 392.056Z" fill="#553522"/>
<path d="M237.06 343.877C255.158 338.217 266.028 321.465 261.339 306.46C256.651 291.456 238.179 283.881 220.081 289.541C201.984 295.201 191.113 311.953 195.802 326.957C200.491 341.962 218.962 349.537 237.06 343.877Z" fill="#553522"/>
<path d="M138.12 298.022C136.113 298.022 134.196 296.833 133.378 294.856C132.29 292.239 133.538 289.243 136.153 288.154C139.128 286.916 139.547 283.879 139.547 283.85C139.767 281.562 141.474 279.695 143.74 279.285C144.958 279.065 146.146 278.716 147.504 278.316C154.453 276.289 163.048 273.772 190.133 281.363C216.848 266.411 217.158 238.386 217.158 237.177C217.158 234.351 219.444 232.053 222.269 232.043H222.289C225.104 232.043 227.4 234.311 227.41 237.127C227.42 238.615 227.251 273.802 193.078 291.43C191.91 292.029 190.562 292.169 189.304 291.8C163.487 284.339 156.22 286.466 150.379 288.174C149.86 288.324 149.341 288.484 148.802 288.624C147.534 291.88 144.908 295.645 140.067 297.642C139.428 297.912 138.759 298.032 138.11 298.032L138.12 298.022Z" fill="#553522"/>
<path d="M198.028 261.337C188.305 222.665 162.398 122.948 245.409 116.846C319.884 111.373 340.33 210.55 345.292 244.908C348.187 264.933 349.165 283.09 349.325 297.283C349.545 315.59 336.686 331.381 318.756 335.026C278.174 343.276 239.778 344.445 213.922 334.227C206.933 331.471 202.7 324.34 203.369 316.849C204.368 305.743 204.388 286.636 198.018 261.337H198.028Z" fill="#BCA496"/>
<path opacity="0.1" d="M345.292 244.908C340.61 212.528 322.191 122.539 257.699 116.916C250.191 116.257 242.784 119.952 239.329 126.654C236.454 132.227 236.544 138.989 240.857 145.67C255.073 167.723 288.966 243.939 283.855 285.468C281.529 304.364 269.679 319.456 279.991 340.689C292.431 339.661 305.489 337.733 318.776 335.016C336.716 331.381 349.575 315.59 349.355 297.283C349.186 283.101 348.217 264.933 345.312 244.908H345.292Z" fill="#553522"/>
<path d="M334.192 297.802C333.912 297.802 333.683 297.573 333.683 297.293C333.473 279.625 332.115 262.027 329.65 244.978C317.31 159.633 284.086 116.476 233.55 120.202C233.271 120.232 233.021 120.012 233.001 119.732C232.981 119.453 233.191 119.203 233.471 119.183C284.605 115.408 318.229 158.874 330.658 244.838C333.134 261.927 334.492 279.575 334.701 297.283C334.701 297.563 334.482 297.802 334.192 297.802Z" fill="#553522"/>
<path d="M333.419 346.61C351.517 340.95 362.387 324.198 357.699 309.193C353.01 294.188 334.538 286.613 316.441 292.273C298.343 297.933 287.473 314.685 292.161 329.69C296.85 344.695 315.322 352.27 333.419 346.61Z" fill="#553522"/>
<path d="M336.536 387.941C334.68 387.941 332.893 386.932 331.984 385.164C327.392 376.285 321.621 365.878 311.239 354.602C310.021 353.284 309.592 351.426 310.081 349.708C313.934 336.325 319.984 318.017 320.044 317.838C320.933 315.151 323.828 313.683 326.523 314.582C329.209 315.471 330.666 318.377 329.778 321.064C329.718 321.233 324.507 336.994 320.723 349.818C330.267 360.645 336.147 370.922 341.079 380.45C342.377 382.967 341.398 386.063 338.883 387.362C338.134 387.751 337.325 387.941 336.527 387.941H336.536Z" fill="#BCA496"/>
<path d="M325.777 231.634C323.93 231.634 322.153 230.635 321.234 228.887C319.917 226.381 320.885 223.294 323.381 221.966C324.369 221.437 346.682 209.242 352.951 179.928C338.076 173.706 311.331 159.653 305.481 152.592C304.912 151.903 304.532 151.084 304.383 150.215C304.243 149.446 303.284 143.383 305.531 137.64L302.835 132.427C301.537 129.91 302.516 126.813 305.031 125.515C307.547 124.217 310.642 125.195 311.94 127.712L315.823 135.213C316.652 136.821 316.582 138.739 315.624 140.277C314.396 142.254 314.246 145.151 314.346 147.039C320.935 152.991 347.53 167.094 360.539 171.928C362.825 172.777 364.192 175.114 363.823 177.521C358.023 214.975 329.381 230.416 328.163 231.055C327.404 231.454 326.585 231.644 325.787 231.644L325.777 231.634Z" fill="#553522"/>
<path d="M309.422 151.892C308.942 151.892 308.453 151.753 308.024 151.473C306.836 150.694 306.507 149.106 307.285 147.927C307.465 147.658 311.698 141.266 318.147 139.538C319.515 139.168 320.922 139.987 321.282 141.355C321.641 142.724 320.833 144.132 319.465 144.492C314.962 145.7 311.598 150.684 311.568 150.734C311.079 151.483 310.26 151.892 309.422 151.892Z" fill="#553522"/>
<path d="M345.072 392.056H305.328L326.393 380.101L344.053 380.79L345.072 392.056Z" fill="#553522"/>
<path d="M261.84 238.894C276.878 237.562 288.097 225.507 286.899 211.968C285.7 198.43 272.539 188.535 257.501 189.867C242.464 191.199 231.245 203.254 232.443 216.792C233.641 230.331 246.803 240.226 261.84 238.894Z" fill="#FAF4F0"/>
<path d="M260.217 214.725C262.284 221.986 260.726 228.798 256.733 229.926C252.739 231.065 247.828 226.101 245.761 218.84C243.695 211.579 245.252 204.767 249.245 203.639C253.239 202.51 258.15 207.464 260.217 214.725Z" fill="#553522"/>
<path d="M228.559 219.01C245.81 216.792 279.982 207.044 285.623 203.109C281.18 190.115 260.535 179.009 242.056 185.271C225.404 190.914 228.559 219.01 228.559 219.01Z" fill="#553522"/>
<path d="M231.914 227.349C253.328 223.275 281.182 216.443 289.148 212.058C288.659 226.041 284.596 240.194 262.732 244.988C244.862 248.903 231.924 227.349 231.924 227.349H231.914Z" fill="#553522"/>
<path d="M214.264 240.776C222.012 235.647 223.035 223.539 216.549 213.731C210.063 203.924 198.523 200.13 190.775 205.259C183.027 210.388 182.004 222.496 188.491 232.304C194.977 242.112 206.516 245.905 214.264 240.776Z" fill="#FAF4F0"/>
<path d="M202.889 223.374C204.187 229.497 203.069 234.61 200.384 234.78C197.698 234.96 194.473 230.136 193.166 224.014C191.868 217.891 192.986 212.777 195.671 212.608C198.357 212.428 201.582 217.252 202.889 223.374Z" fill="#553522"/>
<path d="M181.655 221.027C193.236 222.395 216.217 220.867 220.041 218.78C217.216 207.684 203.529 195.149 191.079 196.757C179.868 198.205 181.655 221.027 181.655 221.027Z" fill="#553522"/>
<path d="M183.803 228.248C198.189 228.907 216.908 228.538 222.289 226.51C221.799 237.487 218.914 247.974 204.219 247.794C192.209 247.654 183.793 228.248 183.793 228.248H183.803Z" fill="#553522"/>
<path d="M266.602 178.36C245.019 178.36 230.673 167.693 229.974 167.164C227.717 165.456 227.278 162.24 228.985 159.982C230.693 157.735 233.897 157.286 236.153 158.984C236.403 159.163 253.444 171.598 277.105 167.114C279.89 166.594 282.566 168.412 283.095 171.199C283.624 173.985 281.797 176.662 279.012 177.191C274.659 178.02 270.516 178.37 266.602 178.37V178.36Z" fill="#553522"/>
<path d="M174.948 169.521C174.369 169.521 173.79 169.421 173.211 169.221C170.545 168.262 169.167 165.326 170.116 162.659C172.831 155.088 177.344 150.175 183.503 148.057C194.685 144.202 206.735 151.693 207.234 152.012C209.63 153.52 210.339 156.696 208.831 159.084C207.324 161.471 204.169 162.19 201.773 160.692C199.437 159.243 192.209 155.887 186.808 157.765C183.693 158.844 181.387 161.58 179.76 166.125C179.011 168.212 177.034 169.521 174.938 169.521H174.948Z" fill="#553522"/>
<path d="M215.34 256.034C215.201 256.034 215.051 256.014 214.911 255.974C214.103 255.734 213.633 254.905 213.863 254.096C213.903 253.956 214.861 250.64 219.074 248.463C224.954 245.427 233.919 246.056 245.71 250.331C246.508 250.62 246.918 251.499 246.628 252.298C246.339 253.097 245.46 253.517 244.661 253.217C231.134 248.313 224.116 249.372 220.612 251.13C217.547 252.658 216.848 254.845 216.818 254.935C216.618 255.594 215.999 256.034 215.34 256.034Z" fill="#553522"/>
<path d="M166.952 250.401C137.132 253.078 115.777 265.432 115.777 265.432C124.613 263.764 156.18 302.846 164.296 332.989C179.271 327.436 196.732 323.65 215.351 320.694C204.07 289.622 183.444 254.436 166.962 250.401H166.952Z" fill="#BCA496"/>
<path opacity="0.6" d="M166.952 250.401C137.132 253.078 115.777 265.432 115.777 265.432C124.613 263.764 156.18 302.846 164.296 332.989C179.271 327.436 196.732 323.65 215.351 320.694C204.07 289.622 183.444 254.436 166.962 250.401H166.952Z" fill="#FAF4F0"/>
<path d="M166.951 250.401C147.434 248.193 115.747 264.543 115.747 264.543C110.136 268.129 111.653 274.841 114.718 277.677C117.653 273.462 150.409 262.476 162.718 261.008C156.588 255.335 162.289 251.23 166.951 250.401Z" fill="#BCA496"/>
<path opacity="0.2" d="M166.951 250.401C147.434 248.193 115.747 264.543 115.747 264.543C110.136 268.129 111.653 274.841 114.718 277.677C117.653 273.462 150.409 262.476 162.718 261.008C156.588 255.335 162.289 251.23 166.951 250.401Z" fill="#FAF4F0"/>
<path d="M138.128 298.022C136.45 298.022 134.813 297.203 133.835 295.695C130.121 289.992 132.437 281.303 132.946 279.615C133.755 276.898 136.61 275.36 139.326 276.169C142.031 276.978 143.579 279.834 142.77 282.541C141.931 285.408 141.762 289.073 142.42 290.092C143.968 292.459 143.299 295.645 140.933 297.193C140.064 297.752 139.096 298.022 138.138 298.022H138.128Z" fill="#553522"/>
</g>
<path d="M154.278 9.48932H161.803C165.545 9.48932 168.183 12.1129 168.183 15.8825C168.183 19.6659 165.518 22.3032 161.776 22.3032H156.763V29.4144H154.278V9.48932ZM156.763 11.6986V20.094H161.154C163.999 20.094 165.628 18.5336 165.628 15.8825C165.628 13.2451 164.013 11.6986 161.154 11.6986H156.763ZM173.789 27.4675C176.219 27.4675 178.001 25.8934 178.001 23.7531V22.5518L174.107 22.8003C171.87 22.9384 170.71 23.7531 170.71 25.1891C170.71 26.57 171.911 27.4675 173.789 27.4675ZM173.278 29.5525C170.254 29.5525 168.252 27.8127 168.252 25.1753C168.252 22.6208 170.213 21.1158 173.831 20.8948L178.001 20.6463V19.4035C178.001 17.5533 176.786 16.5315 174.59 16.5315C172.864 16.5315 171.58 17.4152 171.29 18.8236H168.984C169.053 16.3105 171.497 14.3912 174.618 14.3912C178.139 14.3912 180.403 16.2691 180.403 19.1964V29.4144H178.125V26.8323H178.07C177.227 28.4893 175.363 29.5525 173.278 29.5525ZM189.048 27.2742C191.658 27.2742 193.425 25.1063 193.425 21.9166C193.425 18.7131 191.658 16.5315 189.048 16.5315C186.452 16.5315 184.753 18.6579 184.753 21.9166C184.753 25.1615 186.452 27.2742 189.048 27.2742ZM189.089 34.7306C185.72 34.7306 183.276 33.1012 182.931 30.6295H185.43C185.789 31.8723 187.267 32.6455 189.227 32.6455C191.796 32.6455 193.425 31.3061 193.425 29.1935V26.8599H193.37C192.431 28.4755 190.677 29.4144 188.592 29.4144C184.822 29.4144 182.296 26.4181 182.296 21.9166C182.296 17.3738 184.822 14.3912 188.647 14.3912C190.746 14.3912 192.5 15.3163 193.494 16.9457H193.535V14.5293H195.828V29.0002C195.828 32.5627 193.273 34.7306 189.089 34.7306ZM204.472 16.5038C202.138 16.5038 200.454 18.2022 200.288 20.7153H208.476C208.421 18.1884 206.819 16.5038 204.472 16.5038ZM208.421 25.1615H210.796C210.382 27.716 207.8 29.5525 204.624 29.5525C200.44 29.5525 197.803 26.639 197.803 22.0271C197.803 17.4152 200.454 14.3912 204.513 14.3912C208.49 14.3912 210.976 17.1942 210.976 21.6957V22.6346H200.288V22.7727C200.288 25.6034 202.028 27.4399 204.679 27.4399C206.543 27.4399 207.993 26.5561 208.421 25.1615ZM221.899 29.4144H219.441V9.48932H221.858L232.766 25.1339H232.89V9.48932H235.348V29.4144H232.932L222.023 13.8251H221.899V29.4144ZM244.476 29.5525C240.292 29.5525 237.613 26.5838 237.613 21.9719C237.613 17.3461 240.292 14.3912 244.476 14.3912C248.66 14.3912 251.338 17.3461 251.338 21.9719C251.338 26.5838 248.66 29.5525 244.476 29.5525ZM244.476 27.4123C247.251 27.4123 248.894 25.3825 248.894 21.9719C248.894 18.5474 247.251 16.5315 244.476 16.5315C241.7 16.5315 240.057 18.5613 240.057 21.9719C240.057 25.3825 241.714 27.4123 244.476 27.4123ZM254.087 11.1739H256.489V14.5293H259.389V16.5176H256.489V25.4515C256.489 26.8185 257.069 27.4399 258.34 27.4399C258.63 27.4399 259.21 27.3984 259.375 27.3708V29.4006C259.085 29.4697 258.395 29.5249 257.829 29.5249C255.136 29.5249 254.087 28.4064 254.087 25.5482V16.5176H252.016V14.5293H254.087V11.1739ZM270.478 29.4144H267.993V9.48932H280.089V11.7262H270.478V18.5751H279.301V20.7844H270.478V29.4144ZM287.918 29.5525C283.734 29.5525 281.056 26.5838 281.056 21.9719C281.056 17.3461 283.734 14.3912 287.918 14.3912C292.102 14.3912 294.781 17.3461 294.781 21.9719C294.781 26.5838 292.102 29.5525 287.918 29.5525ZM287.918 27.4123C290.694 27.4123 292.337 25.3825 292.337 21.9719C292.337 18.5474 290.694 16.5315 287.918 16.5315C285.143 16.5315 283.5 18.5613 283.5 21.9719C283.5 25.3825 285.157 27.4123 287.918 27.4123ZM309.156 14.5293V29.4144H306.891V26.9566H306.836C305.911 28.6688 304.24 29.5525 301.962 29.5525C298.703 29.5525 296.673 27.4537 296.673 24.0707V14.5293H299.076V23.6564C299.076 26.1005 300.36 27.4123 302.694 27.4123C305.138 27.4123 306.753 25.7277 306.753 23.1732V14.5293H309.156ZM311.863 29.4144V14.5293H314.127V16.9457H314.182C315.121 15.2611 316.737 14.3912 319.043 14.3912C322.315 14.3912 324.345 16.49 324.345 19.873V29.4144H321.943V20.2873C321.943 17.857 320.672 16.5315 318.325 16.5315C315.881 16.5315 314.265 18.216 314.265 20.7705V29.4144H311.863ZM332.631 29.5525C328.889 29.5525 326.251 26.5147 326.251 21.9719C326.251 17.429 328.875 14.3912 332.575 14.3912C334.702 14.3912 336.414 15.3163 337.325 16.9457H337.381V8.61941H339.783V29.4144H337.491V26.9014H337.45C336.483 28.6136 334.785 29.5525 332.631 29.5525ZM333.059 16.5315C330.449 16.5315 328.709 18.6855 328.709 21.9719C328.709 25.272 330.449 27.4123 333.059 27.4123C335.641 27.4123 337.394 25.2168 337.394 21.9719C337.394 18.7408 335.641 16.5315 333.059 16.5315ZM343.526 9.48932H346.011L345.846 22.8003H343.691L343.526 9.48932ZM344.769 29.5525C343.885 29.5525 343.194 28.8621 343.194 27.9784C343.194 27.0809 343.885 26.4043 344.769 26.4043C345.666 26.4043 346.343 27.0809 346.343 27.9784C346.343 28.8621 345.666 29.5525 344.769 29.5525Z" fill="#666361"/>
<path d="M122.047 89.8804V82.8146H102.307V75.7488C105.533 69.5903 110.839 61.0765 118.226 50.2075H129.938V76.1612H135.107V82.8146H129.938V89.8804H122.047ZM109.593 76.1887V76.4086H122.212V56.091H122.047C118.986 60.5633 116.53 64.2932 114.679 67.2808C112.828 70.2501 111.132 73.2194 109.593 76.1887ZM165.625 85.179C162.784 88.8998 158.871 90.7602 153.886 90.7602C148.9 90.7602 144.978 88.9089 142.118 85.2065C139.259 81.4857 137.829 76.4086 137.829 69.9752C137.829 63.5784 139.259 58.5379 142.118 54.8538C144.996 51.1514 148.918 49.3002 153.886 49.3002C158.853 49.3002 162.766 51.1422 165.625 54.8263C168.485 58.5104 169.914 63.5509 169.914 69.9477C169.914 76.3628 168.485 81.4399 165.625 85.179ZM148.277 80.3952C149.633 82.8696 151.503 84.1068 153.886 84.1068C156.268 84.1068 158.129 82.8787 159.467 80.4227C160.805 77.9483 161.474 74.4658 161.474 69.9752C161.474 65.5213 160.796 62.0754 159.439 59.6377C158.101 57.1816 156.25 55.9536 153.886 55.9536C151.521 55.9536 149.661 57.1816 148.304 59.6377C146.948 62.0937 146.27 65.5396 146.27 69.9752C146.27 74.4474 146.939 77.9208 148.277 80.3952ZM192.817 89.8804V82.8146H173.077V75.7488C176.303 69.5903 181.609 61.0765 188.996 50.2075H200.708V76.1612H205.877V82.8146H200.708V89.8804H192.817ZM180.363 76.1887V76.4086H192.982V56.091H192.817C189.756 60.5633 187.3 64.2932 185.449 67.2808C183.598 70.2501 181.902 73.2194 180.363 76.1887ZM247.036 83.007V89.8804H220.753V50.2075H247.036V57.0533H229.056V66.621H246.019V72.9994H229.056V83.007H247.036ZM260.207 56.6959V69.3428H267.493C269.582 69.3428 271.204 68.7838 272.359 67.6657C273.532 66.5477 274.118 64.9989 274.118 63.0194C274.118 61.0948 273.514 59.5644 272.304 58.428C271.094 57.2732 269.463 56.6959 267.41 56.6959H260.207ZM260.207 75.3639V89.8804H251.904V50.2075H268.29C272.817 50.2075 276.336 51.3347 278.847 53.5891C281.377 55.8253 282.641 58.9137 282.641 62.8544C282.641 65.4388 282 67.7482 280.717 69.7827C279.452 71.7989 277.693 73.2469 275.438 74.1267L283.796 89.8804H274.393L266.998 75.3639H260.207ZM290.863 55.0463C294.309 51.3622 298.974 49.5201 304.857 49.5201C310.741 49.5201 315.396 51.3622 318.824 55.0463C322.27 58.7304 323.993 63.7342 323.993 70.0577C323.993 76.3628 322.27 81.3574 318.824 85.0415C315.378 88.7256 310.722 90.5677 304.857 90.5677C298.974 90.5677 294.309 88.7256 290.863 85.0415C287.435 81.3574 285.722 76.3628 285.722 70.0577C285.722 63.7342 287.435 58.7304 290.863 55.0463ZM312.61 60.1326C310.686 57.6765 308.101 56.4484 304.857 56.4484C301.613 56.4484 299.019 57.6765 297.077 60.1326C295.152 62.5886 294.19 65.897 294.19 70.0577C294.19 74.2 295.152 77.4992 297.077 79.9553C299.001 82.393 301.595 83.6119 304.857 83.6119C308.101 83.6119 310.686 82.393 312.61 79.9553C314.535 77.4992 315.497 74.2 315.497 70.0577C315.497 65.897 314.535 62.5886 312.61 60.1326ZM336.531 56.6959V69.3428H343.816C345.906 69.3428 347.528 68.7838 348.683 67.6657C349.856 66.5477 350.442 64.9989 350.442 63.0194C350.442 61.0948 349.837 59.5644 348.628 58.428C347.418 57.2732 345.787 56.6959 343.734 56.6959H336.531ZM336.531 75.3639V89.8804H328.228V50.2075H344.614C349.141 50.2075 352.66 51.3347 355.171 53.5891C357.7 55.8253 358.965 58.9137 358.965 62.8544C358.965 65.4388 358.324 67.7482 357.041 69.7827C355.776 71.7989 354.016 73.2469 351.762 74.1267L360.12 89.8804H350.717L343.321 75.3639H336.531ZM371.586 56.6959V69.3428H378.871C380.961 69.3428 382.583 68.7838 383.738 67.6657C384.911 66.5477 385.497 64.9989 385.497 63.0194C385.497 61.0948 384.893 59.5644 383.683 58.428C382.473 57.2732 380.842 56.6959 378.789 56.6959H371.586ZM371.586 75.3639V89.8804H363.283V50.2075H379.669C384.196 50.2075 387.715 51.3347 390.226 53.5891C392.756 55.8253 394.02 58.9137 394.02 62.8544C394.02 65.4388 393.379 67.7482 392.096 69.7827C390.831 71.7989 389.071 73.2469 386.817 74.1267L395.175 89.8804H385.772L378.377 75.3639H371.586Z" fill="#1A0D05"/>
<defs>
<clipPath id="clip0_1909_8005">
<rect width="499.165" height="405" fill="white" transform="translate(0.917969)"/>
</clipPath>
</defs>
</svg>
