<svg width="20" height="20" viewBox="0 0 20 20" fill="none" xmlns="http://www.w3.org/2000/svg">
<path d="M17.5005 9.99998C17.5005 10.1657 17.4346 10.3247 17.3174 10.4419C17.2002 10.5591 17.0413 10.625 16.8755 10.625H4.63409L9.19268 15.1828C9.25075 15.2409 9.29681 15.3098 9.32824 15.3857C9.35966 15.4615 9.37584 15.5429 9.37584 15.625C9.37584 15.7071 9.35966 15.7884 9.32824 15.8643C9.29681 15.9402 9.25075 16.0091 9.19268 16.0672C9.13461 16.1252 9.06567 16.1713 8.9898 16.2027C8.91393 16.2342 8.83261 16.2503 8.75049 16.2503C8.66837 16.2503 8.58705 16.2342 8.51118 16.2027C8.43531 16.1713 8.36637 16.1252 8.3083 16.0672L2.6833 10.4422C2.62519 10.3841 2.57909 10.3152 2.54764 10.2393C2.51619 10.1634 2.5 10.0821 2.5 9.99998C2.5 9.91785 2.51619 9.83652 2.54764 9.76064C2.57909 9.68477 2.62519 9.61584 2.6833 9.55779L8.3083 3.93279C8.42558 3.81552 8.58464 3.74963 8.75049 3.74963C8.91634 3.74963 9.0754 3.81552 9.19268 3.93279C9.30996 4.05007 9.37584 4.20913 9.37584 4.37498C9.37584 4.54083 9.30996 4.69989 9.19268 4.81717L4.63409 9.37498H16.8755C17.0413 9.37498 17.2002 9.44083 17.3174 9.55804C17.4346 9.67525 17.5005 9.83422 17.5005 9.99998Z" fill="#666361"/>
</svg>
