<svg width="16" height="17" viewBox="0 0 16 17" fill="none" xmlns="http://www.w3.org/2000/svg">
<path d="M10.8538 6.64625C10.9002 6.69269 10.9371 6.74783 10.9623 6.80853C10.9874 6.86923 11.0004 6.93429 11.0004 7C11.0004 7.06571 10.9874 7.13077 10.9623 7.19147C10.9371 7.25217 10.9002 7.30731 10.8538 7.35375L7.35375 10.8538C7.30732 10.9002 7.25217 10.9371 7.19147 10.9623C7.13077 10.9874 7.06571 11.0004 7 11.0004C6.9343 11.0004 6.86923 10.9874 6.80853 10.9623C6.74783 10.9371 6.69269 10.9002 6.64625 10.8538L5.14625 9.35375C5.05243 9.25993 4.99972 9.13268 4.99972 9C4.99972 8.86732 5.05243 8.74007 5.14625 8.64625C5.24007 8.55243 5.36732 8.49972 5.5 8.49972C5.63268 8.49972 5.75993 8.55243 5.85375 8.64625L7 9.79313L10.1463 6.64625C10.1927 6.59976 10.2478 6.56288 10.3085 6.53772C10.3692 6.51256 10.4343 6.49961 10.5 6.49961C10.5657 6.49961 10.6308 6.51256 10.6915 6.53772C10.7522 6.56288 10.8073 6.59976 10.8538 6.64625ZM14.5 8.5C14.5 9.78558 14.1188 11.0423 13.4046 12.1112C12.6903 13.1801 11.6752 14.0132 10.4874 14.5052C9.29973 14.9972 7.99279 15.1259 6.73192 14.8751C5.47104 14.6243 4.31285 14.0052 3.40381 13.0962C2.49477 12.1872 1.8757 11.029 1.6249 9.76809C1.37409 8.50721 1.50282 7.20028 1.99479 6.01256C2.48676 4.82484 3.31988 3.80968 4.3888 3.09545C5.45772 2.38122 6.71442 2 8 2C9.72335 2.00182 11.3756 2.68722 12.5942 3.90582C13.8128 5.12441 14.4982 6.77665 14.5 8.5ZM13.5 8.5C13.5 7.4122 13.1774 6.34883 12.5731 5.44436C11.9687 4.53989 11.1098 3.83494 10.1048 3.41866C9.09977 3.00238 7.9939 2.89346 6.92701 3.10568C5.86011 3.3179 4.8801 3.84172 4.11092 4.61091C3.34173 5.3801 2.8179 6.36011 2.60568 7.427C2.39347 8.4939 2.50238 9.59977 2.91867 10.6048C3.33495 11.6098 4.0399 12.4687 4.94437 13.0731C5.84884 13.6774 6.91221 14 8 14C9.45819 13.9983 10.8562 13.4184 11.8873 12.3873C12.9184 11.3562 13.4983 9.95818 13.5 8.5Z" fill="#343330"/>
</svg>
