<svg  viewBox="0 0 33 32" fill="none" xmlns="http://www.w3.org/2000/svg">
<path d="M28.9999 21.8749C28.8857 21.9401 28.7598 21.982 28.6293 21.9984C28.4989 22.0148 28.3665 22.0054 28.2397 21.9705C28.1129 21.9357 27.9942 21.8762 27.8904 21.7955C27.7867 21.7147 27.6998 21.6143 27.6349 21.4999L25.2599 17.3499C23.8792 18.2835 22.356 18.9868 20.7499 19.4324L21.4837 23.8349C21.5053 23.9645 21.5012 24.0971 21.4716 24.2252C21.442 24.3532 21.3874 24.4741 21.311 24.581C21.2346 24.6879 21.1379 24.7788 21.0264 24.8483C20.9149 24.9178 20.7908 24.9647 20.6612 24.9862C20.6079 24.9949 20.554 24.9995 20.4999 24.9999C20.2634 24.9996 20.0346 24.9154 19.8542 24.7623C19.6739 24.6092 19.5537 24.3971 19.5149 24.1637L18.7937 19.8412C17.2727 20.0529 15.7297 20.0529 14.2087 19.8412L13.4874 24.1637C13.4486 24.3975 13.328 24.6099 13.1472 24.7631C12.9663 24.9162 12.7369 25.0002 12.4999 24.9999C12.4447 24.9997 12.3895 24.9951 12.3349 24.9862C12.2053 24.9647 12.0812 24.9178 11.9697 24.8483C11.8582 24.7788 11.7615 24.6879 11.6851 24.581C11.6087 24.4741 11.5541 24.3532 11.5245 24.2252C11.4949 24.0971 11.4908 23.9645 11.5124 23.8349L12.2499 19.4324C10.6445 18.9854 9.12219 18.2809 7.74244 17.3462L5.37494 21.4999C5.24233 21.731 5.02336 21.8999 4.7662 21.9696C4.50904 22.0392 4.23476 22.0038 4.00369 21.8712C3.77262 21.7386 3.60369 21.5196 3.53407 21.2625C3.46444 21.0053 3.49983 20.731 3.63244 20.4999L6.13244 16.1249C5.25431 15.3663 4.44683 14.5295 3.71994 13.6249C3.62928 13.5237 3.56021 13.4051 3.51693 13.2763C3.47365 13.1475 3.45707 13.0112 3.46821 12.8758C3.47934 12.7404 3.51796 12.6087 3.5817 12.4887C3.64544 12.3687 3.73296 12.2629 3.83893 12.1779C3.9449 12.0928 4.06708 12.0303 4.19803 11.994C4.32898 11.9578 4.46595 11.9486 4.60056 11.967C4.73518 11.9855 4.86463 12.0311 4.98101 12.1013C5.09738 12.1714 5.19824 12.2645 5.27744 12.3749C7.35244 14.9424 10.9824 17.9999 16.4999 17.9999C22.0174 17.9999 25.6474 14.9387 27.7224 12.3749C27.8007 12.2623 27.9014 12.1669 28.0181 12.0948C28.1348 12.0227 28.2651 11.9754 28.4009 11.9558C28.5367 11.9362 28.6751 11.9448 28.8074 11.981C28.9398 12.0172 29.0632 12.0802 29.1702 12.1662C29.2771 12.2521 29.3652 12.3592 29.429 12.4806C29.4928 12.6021 29.5309 12.7354 29.541 12.8722C29.551 13.0091 29.5328 13.1465 29.4875 13.276C29.4421 13.4055 29.3706 13.5243 29.2774 13.6249C28.5505 14.5295 27.7431 15.3663 26.8649 16.1249L29.3649 20.4999C29.432 20.614 29.4759 20.7402 29.4938 20.8713C29.5118 21.0024 29.5036 21.1358 29.4696 21.2637C29.4357 21.3916 29.3767 21.5115 29.296 21.6164C29.2154 21.7213 29.1148 21.8092 28.9999 21.8749Z" />
</svg>
