<svg width="17" height="17" viewBox="0 0 17 17" fill="none" xmlns="http://www.w3.org/2000/svg">
<path d="M14.0006 2.5H11.0006C10.868 2.5 10.7409 2.55268 10.6471 2.64645C10.5533 2.74021 10.5006 2.86739 10.5006 3C10.5006 3.13261 10.5533 3.25979 10.6471 3.35355C10.7409 3.44732 10.868 3.5 11.0006 3.5H12.7938L10.1644 6.12937C9.17121 5.31754 7.904 4.91848 6.62485 5.01473C5.3457 5.11098 4.15248 5.69517 3.29196 6.64647C2.43144 7.59778 1.96946 8.84343 2.00157 10.1258C2.03368 11.4082 2.55742 12.6291 3.46447 13.5362C4.37152 14.4432 5.59249 14.967 6.87485 14.9991C8.15721 15.0312 9.40286 14.5692 10.3542 13.7087C11.3055 12.8482 11.8897 11.6549 11.9859 10.3758C12.0822 9.09664 11.6831 7.82943 10.8713 6.83625L13.5006 4.2075V6C13.5006 6.13261 13.5533 6.25979 13.6471 6.35355C13.7409 6.44732 13.868 6.5 14.0006 6.5C14.1332 6.5 14.2604 6.44732 14.3542 6.35355C14.448 6.25979 14.5006 6.13261 14.5006 6V3C14.5006 2.86739 14.448 2.74021 14.3542 2.64645C14.2604 2.55268 14.1332 2.5 14.0006 2.5ZM9.82814 12.8306C9.26866 13.3899 8.55592 13.7706 7.78005 13.9248C7.00417 14.079 6.2 13.9997 5.4692 13.6969C4.7384 13.3941 4.11379 12.8814 3.67434 12.2237C3.2349 11.5659 3.00035 10.7926 3.00035 10.0016C3.00035 9.21051 3.2349 8.43723 3.67434 7.77947C4.11379 7.12171 4.7384 6.60902 5.4692 6.30622C6.2 6.00341 7.00417 5.92409 7.78005 6.07829C8.55592 6.23249 9.26866 6.61327 9.82814 7.1725C10.5771 7.92351 10.9978 8.94089 10.9978 10.0016C10.9978 11.0622 10.5771 12.0796 9.82814 12.8306Z" />
</svg>
