<svg width="17" height="17" viewBox="0 0 17 17" fill="none" xmlns="http://www.w3.org/2000/svg">
<path d="M13.832 6.49994C13.832 5.53235 13.5513 4.58556 13.0238 3.77438C12.4963 2.9632 11.7449 2.32248 10.8605 1.92994C9.97609 1.53741 8.9968 1.40991 8.04139 1.56291C7.08598 1.71591 6.19548 2.14284 5.47791 2.79192C4.76033 3.44101 4.2465 4.28435 3.99873 5.21968C3.75097 6.155 3.77991 7.14213 4.08206 8.06133C4.3842 8.98053 4.94656 9.79232 5.70094 10.3982C6.45531 11.0042 7.3693 11.3782 8.33203 11.4749V12.9999H6.33203C6.19942 12.9999 6.07225 13.0526 5.97848 13.1464C5.88471 13.2402 5.83203 13.3673 5.83203 13.4999C5.83203 13.6325 5.88471 13.7597 5.97848 13.8535C6.07225 13.9473 6.19942 13.9999 6.33203 13.9999H8.33203V15.4999C8.33203 15.6325 8.38471 15.7597 8.47848 15.8535C8.57225 15.9473 8.69942 15.9999 8.83203 15.9999C8.96464 15.9999 9.09182 15.9473 9.18559 15.8535C9.27935 15.7597 9.33203 15.6325 9.33203 15.4999V13.9999H11.332C11.4646 13.9999 11.5918 13.9473 11.6856 13.8535C11.7794 13.7597 11.832 13.6325 11.832 13.4999C11.832 13.3673 11.7794 13.2402 11.6856 13.1464C11.5918 13.0526 11.4646 12.9999 11.332 12.9999H9.33203V11.4749C10.5648 11.3495 11.7072 10.7714 12.5384 9.85248C13.3696 8.93354 13.8305 7.73903 13.832 6.49994ZM4.83203 6.49994C4.83203 5.70881 5.06663 4.93546 5.50615 4.27766C5.94568 3.61986 6.57039 3.10717 7.3013 2.80442C8.0322 2.50167 8.83647 2.42246 9.61239 2.5768C10.3883 2.73114 11.101 3.1121 11.6605 3.67151C12.2199 4.23092 12.6008 4.94365 12.7552 5.71958C12.9095 6.4955 12.8303 7.29977 12.5275 8.03067C12.2248 8.76158 11.7121 9.38629 11.0543 9.82582C10.3965 10.2653 9.62316 10.4999 8.83203 10.4999C7.77152 10.4988 6.75478 10.077 6.00488 9.32709C5.25499 8.57719 4.83319 7.56045 4.83203 6.49994Z"/>
</svg>
