<svg width="46" height="46" viewBox="0 0 40 40" fill="none" xmlns="http://www.w3.org/2000/svg">
<rect width="46" height="46" fill="#E6E3E1"/>
<path d="M28.25 11.75H11.75C11.3522 11.75 10.9706 11.908 10.6893 12.1893C10.408 12.4706 10.25 12.8522 10.25 13.25V26.75C10.25 27.1478 10.408 27.5294 10.6893 27.8107C10.9706 28.092 11.3522 28.25 11.75 28.25H28.25C28.6478 28.25 29.0294 28.092 29.3107 27.8107C29.592 27.5294 29.75 27.1478 29.75 26.75V13.25C29.75 12.8522 29.592 12.4706 29.3107 12.1893C29.0294 11.908 28.6478 11.75 28.25 11.75ZM22.625 16.25C22.8475 16.25 23.065 16.316 23.25 16.4396C23.435 16.5632 23.5792 16.7389 23.6644 16.9445C23.7495 17.15 23.7718 17.3762 23.7284 17.5945C23.685 17.8127 23.5778 18.0132 23.4205 18.1705C23.2632 18.3278 23.0627 18.435 22.8445 18.4784C22.6262 18.5218 22.4 18.4995 22.1945 18.4144C21.9889 18.3292 21.8132 18.185 21.6896 18C21.566 17.815 21.5 17.5975 21.5 17.375C21.5 17.0766 21.6185 16.7905 21.8295 16.5795C22.0405 16.3685 22.3266 16.25 22.625 16.25ZM28.25 26.75H11.75V23.0647L16.0944 18.7194C16.164 18.6496 16.2467 18.5943 16.3378 18.5566C16.4288 18.5188 16.5264 18.4994 16.625 18.4994C16.7236 18.4994 16.8212 18.5188 16.9122 18.5566C17.0033 18.5943 17.086 18.6496 17.1556 18.7194L23.4688 25.0306C23.6095 25.1714 23.8004 25.2504 23.9994 25.2504C24.1984 25.2504 24.3893 25.1714 24.53 25.0306C24.6707 24.8899 24.7498 24.699 24.7498 24.5C24.7498 24.301 24.6707 24.1101 24.53 23.9694L22.8744 22.3147L24.2188 20.9694C24.3594 20.8288 24.5501 20.7499 24.7489 20.7499C24.9477 20.7499 25.1384 20.8288 25.2791 20.9694L28.25 23.9441V26.75Z" fill="#666361"/>
</svg>
