<svg  viewBox="0 0 17 16" fill="none" xmlns="http://www.w3.org/2000/svg">
<path d="M13.5 5H11.5V3.5C11.5 2.70435 11.1839 1.94129 10.6213 1.37868C10.0587 0.81607 9.29565 0.5 8.5 0.5C7.70435 0.5 6.94129 0.81607 6.37868 1.37868C5.81607 1.94129 5.5 2.70435 5.5 3.5V5H3.5C3.23478 5 2.98043 5.10536 2.79289 5.29289C2.60536 5.48043 2.5 5.73478 2.5 6V13C2.5 13.2652 2.60536 13.5196 2.79289 13.7071C2.98043 13.8946 3.23478 14 3.5 14H13.5C13.7652 14 14.0196 13.8946 14.2071 13.7071C14.3946 13.5196 14.5 13.2652 14.5 13V6C14.5 5.73478 14.3946 5.48043 14.2071 5.29289C14.0196 5.10536 13.7652 5 13.5 5ZM6.5 3.5C6.5 2.96957 6.71071 2.46086 7.08579 2.08579C7.46086 1.71071 7.96957 1.5 8.5 1.5C9.03043 1.5 9.53914 1.71071 9.91421 2.08579C10.2893 2.46086 10.5 2.96957 10.5 3.5V5H6.5V3.5ZM13.5 13H3.5V6H13.5V13ZM9.25 9.5C9.25 9.64834 9.20601 9.79334 9.1236 9.91668C9.04119 10.04 8.92406 10.1361 8.78701 10.1929C8.64997 10.2497 8.49917 10.2645 8.35368 10.2356C8.2082 10.2066 8.07456 10.1352 7.96967 10.0303C7.86478 9.92544 7.79335 9.7918 7.76441 9.64632C7.73547 9.50083 7.75032 9.35003 7.80709 9.21299C7.86386 9.07594 7.95999 8.95881 8.08332 8.8764C8.20666 8.79399 8.35166 8.75 8.5 8.75C8.69891 8.75 8.88968 8.82902 9.03033 8.96967C9.17098 9.11032 9.25 9.30109 9.25 9.5Z" />
</svg>
