<svg width="20" height="20" viewBox="0 0 20 20" fill="none" xmlns="http://www.w3.org/2000/svg">
<path d="M18.1634 16.8366L14.4533 13.1249C15.5657 11.6753 16.085 9.85676 15.906 8.03828C15.7269 6.21981 14.8629 4.53752 13.4891 3.3327C12.1153 2.12787 10.3346 1.49072 8.50834 1.55049C6.68205 1.61026 4.94687 2.36247 3.65479 3.65455C2.36272 4.94663 1.6105 6.68181 1.55073 8.5081C1.49096 10.3344 2.12811 12.115 3.33294 13.4888C4.53777 14.8626 6.22005 15.7267 8.03853 15.9057C9.85701 16.0848 11.6755 15.5654 13.1251 14.453L16.8384 18.1671C16.9256 18.2543 17.0292 18.3235 17.1431 18.3707C17.257 18.4179 17.3792 18.4421 17.5025 18.4421C17.6258 18.4421 17.7479 18.4179 17.8619 18.3707C17.9758 18.3235 18.0793 18.2543 18.1665 18.1671C18.2537 18.0799 18.3229 17.9763 18.3701 17.8624C18.4173 17.7485 18.4416 17.6263 18.4416 17.503C18.4416 17.3797 18.4173 17.2576 18.3701 17.1436C18.3229 17.0297 18.2537 16.9262 18.1665 16.839L18.1634 16.8366ZM3.43764 8.74989C3.43764 7.69918 3.74921 6.67206 4.33295 5.79843C4.9167 4.92479 5.7464 4.24387 6.71713 3.84178C7.68786 3.43969 8.75603 3.33449 9.78656 3.53947C10.8171 3.74446 11.7637 4.25042 12.5066 4.99339C13.2496 5.73635 13.7556 6.68295 13.9606 7.71348C14.1655 8.744 14.0603 9.81217 13.6582 10.7829C13.2562 11.7536 12.5752 12.5833 11.7016 13.1671C10.828 13.7508 9.80085 14.0624 8.75014 14.0624C7.34162 14.0609 5.9912 13.5008 4.99523 12.5048C3.99926 11.5088 3.43908 10.1584 3.43764 8.74989Z" fill="#666361"/>
</svg>
