<svg width="137" height="105" viewBox="0 0 137 105" fill="none" xmlns="http://www.w3.org/2000/svg">
<path fill-rule="evenodd" clip-rule="evenodd" d="M42.5996 47.6903C43.0969 52.7107 43.5941 57.7314 44.0912 62.7517C46.7985 61.207 49.5057 59.6622 52.2128 58.1175V69.5549V72.5611C52.2128 72.8272 52.0549 73.7409 52.2128 73.9713C52.3468 74.1666 53.3388 74.1723 53.5733 74.2052C55.1039 74.4195 56.6383 74.6102 58.1748 74.7798C62.2243 75.227 66.5584 75.8678 70.6235 75.3539C74.1569 74.9071 77.5825 73.6503 80.8108 72.188C81.9442 71.6746 83.0618 71.1251 84.1586 70.5378C84.3911 70.4134 85.2353 70.1194 85.3617 69.8661C85.4649 69.6589 85.2226 68.9316 85.1903 68.714C85.054 67.7966 84.9175 66.8791 84.7811 65.9619L82.8758 53.1521L86.475 56.7462C86.7569 57.0278 87.2923 57.8272 87.6825 57.952C87.9685 58.0435 88.6769 57.7602 88.9597 57.7059C90.9976 57.3131 93.0356 56.9202 95.0736 56.5276C95.5483 56.4361 96.6184 56.4396 97.0186 56.1528C97.2341 55.9982 97.2443 55.6839 97.3203 55.386C97.8174 53.4386 98.3145 51.4913 98.8114 49.5442C98.9011 49.1935 99.4006 48.0876 99.2735 47.7343C99.2279 47.6078 99.0075 47.5211 98.8727 47.4386C95.797 45.5599 92.7209 43.6813 89.6451 41.8026C87.9601 40.7735 86.2751 39.7443 84.5901 38.7153C83.8845 38.284 83.0174 37.5073 82.2177 37.2661C81.7212 37.1164 80.9989 37.2285 80.4852 37.2138C79.4411 37.184 78.3973 37.1543 77.3532 37.1245C77.1898 37.1199 76.6173 37.0033 76.4797 37.0996C76.3652 37.1798 76.4127 37.2914 76.3751 37.4824C76.2833 37.9489 76.2826 38.4519 76.2374 38.9254C76.2011 39.3053 76.2731 40.0021 76.102 40.3461C75.9925 40.5659 76.1312 40.4783 75.9833 40.5846C75.8071 40.7111 75.2446 40.6704 75.0349 40.6947C74.0119 40.8136 72.9888 40.9324 71.9658 41.0511C70.7496 41.1924 69.5197 41.4575 68.2977 41.3354C66.4452 41.1504 64.4477 41.1596 62.6286 40.7694C62.1559 40.6679 61.9857 40.4015 61.6209 40.0375C60.9092 39.3267 60.2047 38.6077 59.4851 37.9046C59.1324 37.56 59.2835 37.6184 58.9199 37.7491C58.4643 37.9128 58.0022 38.3081 57.5898 38.5593C56.0098 39.5217 54.4298 40.4842 52.8496 41.4466L43.2033 47.3225C43.002 47.4451 42.8009 47.5677 42.5996 47.6903Z" fill="#7F5539"/>
<path fill-rule="evenodd" clip-rule="evenodd" d="M134.866 48.3143C132.877 55.8637 128.878 64.0954 120.821 66.5017C118.862 67.0867 116.956 67.5284 114.921 67.3056C114.728 67.2843 114.566 67.3116 114.381 67.3151C114.051 67.3214 114.336 67.4398 113.966 67.3257C113.678 67.2365 113.408 67.0137 113.107 66.9152C112.307 66.6536 111.455 66.6031 110.642 66.3916C108.646 65.8722 106.588 65.231 104.654 64.5147C103.743 64.1775 102.906 63.7078 102.049 63.256C101.178 62.7969 100.255 62.5117 99.3738 62.0906C98.6777 61.7577 97.4852 61.3238 96.9958 60.6995C96.474 60.0336 97.1958 58.6161 97.4024 57.9082C98.1041 55.4995 98.9398 53.1261 99.4673 50.6694C101.288 52.78 103.816 54.0872 106.433 54.9302C107.853 55.3877 109.314 55.7183 110.79 55.9253C112.131 56.1131 113.578 56.3405 114.922 56.0739C115.936 55.8724 117.21 55.406 117.935 54.6316C118.193 54.3551 118.503 53.8484 118.359 53.4468C118.175 52.937 117.639 53.1769 117.349 52.7965C117.096 52.4651 117.136 51.69 117.055 51.2865C116.913 50.5723 116.717 49.8777 116.478 49.1902C116.015 47.8554 115.437 46.5175 115.299 45.0971C115.178 43.8647 115.459 42.6995 116.074 41.6302C116.364 41.1247 117.094 39.7495 117.806 39.8067C118.587 39.8694 117.533 43.1646 117.498 43.8367C117.362 46.5015 117.719 49.3408 119.087 51.6764C119.61 52.5707 120.367 53.6119 121.485 53.7228C122.669 53.84 123.624 52.9085 124.188 51.9659C125.563 49.6663 124.87 46.5107 124.173 44.1006C123.319 41.1434 121.089 39.1053 119.679 36.4495C121.784 36.6611 122.912 37.9983 123.992 39.6948C125.181 41.5626 126.107 43.805 126.564 45.9783C126.794 47.0764 126.635 48.1789 126.636 49.2878C126.637 49.6561 126.637 51.0151 127.237 50.9615C127.879 50.9044 128.099 49.3717 128.194 48.9041C128.41 47.8316 128.644 46.759 128.832 45.6813C129.165 43.7745 129.312 41.8214 129.711 39.9278C129.778 39.6077 129.912 38.7196 130.391 38.9594C130.761 39.1441 130.701 40.5177 130.715 40.837C130.748 41.6237 130.795 42.4105 130.801 43.198C130.811 44.3653 130.578 45.5737 130.692 46.7338C130.767 47.4919 131.173 48.3295 131.678 47.3073C132.178 46.2933 132.28 45.0289 132.559 43.9384C132.852 42.7937 133.154 41.632 133.776 40.6153C133.948 40.3332 134.134 39.8854 134.517 40.0181C134.796 40.1147 135.001 40.7747 135.087 41.0077C135.476 42.0607 135.41 43.2313 135.385 44.3335C135.356 45.684 135.21 47.0048 134.866 48.3143ZM96.0901 50.2734C95.9839 50.2391 95.5325 50.1963 95.4206 50.1865C95.2893 50.1751 95.4383 49.9333 95.1206 50.002C95.1821 50.154 95.2909 50.2554 95.4475 50.3062C94.97 50.4678 94.6178 50.0688 94.2913 50.0175C93.979 49.9684 93.9657 50.0175 93.6573 50.3474C93.3234 49.9401 93.3859 50.1941 93.1113 50.1943C93.0114 50.1944 93.0071 50.3453 92.8445 50.3273C92.7024 50.3115 92.6875 50.0961 92.6036 50.0707C92.1478 49.9328 91.679 50.6268 91.1621 50.0248C91.0369 50.6511 89.6021 49.8666 89.05 49.9767C88.4714 50.0918 88.721 50.2993 88.2533 49.9447C87.8077 49.6069 87.932 49.8313 87.4137 50.1078C87.4257 50.1013 87.121 50.307 87.1493 50.3103C86.7905 50.2684 86.8109 49.8975 86.3566 49.9171C85.8756 49.938 85.6702 50.3151 85.23 49.8511C85.1343 50.1985 85.1145 50.0489 84.889 50.1365C84.7648 50.1659 84.6564 50.1333 84.5633 50.0387C84.5351 50.1342 84.4731 50.1928 84.3772 50.2144C84.1316 50.2364 83.6704 50.2706 83.4473 50.1523C83.1125 49.9748 83.3815 49.9065 83.1494 49.7068C83.0453 50.2575 82.8173 50.1404 82.3362 50.1917C81.9692 50.2312 81.8883 50.1186 81.5379 50.0638C81.1926 50.0099 80.7465 50.1439 80.4097 50.2009C80.2706 50.2247 80.0845 50.3214 79.943 50.2875C79.8155 50.2568 79.7608 50.1578 79.6847 50.1319C79.5922 50.1008 79.6118 50.0197 79.452 49.9806C79.3418 49.9539 79.1445 50.0571 79.0344 50.075C78.2493 50.2025 77.4953 50.2038 76.7464 49.895C77.1152 50.5431 75.8842 50.1932 75.6647 49.9247C75.3905 50.3545 75.0585 50.0511 74.5057 50.0847C73.9733 50.117 73.1724 50.2801 72.9566 49.6169C72.9143 49.7516 72.6121 50.143 72.4919 50.2027C72.1429 50.3756 72.1012 50.1197 71.7767 50.0155C71.3351 49.8736 71.4272 50.143 71.1533 50.1976C70.691 50.2902 70.4411 49.9646 70.0325 49.7915C70.0153 50.0606 70.0064 50.2261 69.7737 50.3936C69.5677 49.6435 68.8324 50.4551 68.9586 49.4525C68.6788 49.6346 68.2853 49.7744 68.2056 50.143C68.6734 50.0142 68.2555 50.32 68.2359 50.3301C68.1741 50.3624 67.9652 50.0693 67.9168 50.028C67.9035 50.1662 67.8903 50.3046 67.8772 50.4429C67.6908 50.3498 67.5158 50.1829 67.3645 50.0992C67.2282 50.024 67.4234 49.8672 67.1932 49.8565C67.0719 49.8506 66.9452 50.1135 66.8179 50.136C66.6231 50.17 66.7167 49.8907 66.6351 49.9C66.5109 49.9143 66.3086 50.0959 66.2147 50.0924C65.9068 50.081 66.1152 49.9377 65.8802 49.872C65.4604 49.7545 65.4873 50.0291 65.1854 50.1281C64.4948 50.3548 64.5642 49.3115 63.8617 50.0074C63.6935 50.1738 63.5853 50.431 63.3551 50.4166C62.8782 50.3867 63.0456 49.8215 63.1425 49.5447C63.2428 49.5941 61.4004 50.5404 61.4149 50.5034C61.4265 50.2765 61.7163 50.1015 61.4574 49.8999C61.2456 50.3542 61.0228 50.3621 60.5344 50.4467C60.297 50.4879 60.2503 50.5428 59.9963 50.444C59.8345 50.3815 59.7258 50.1233 59.5649 50.1091C59.5866 50.111 59.2913 50.3358 59.2463 50.356C58.9798 50.4762 58.8111 50.34 58.5522 50.3894C58.3313 50.4315 58.2443 50.6192 58.0247 50.5678C57.7315 50.4993 57.9037 50.1491 57.5003 50.2468C57.3624 50.2803 57.2796 50.546 57.0623 50.6008C56.7235 50.6866 56.3085 50.5267 55.9506 50.6101C55.6665 50.6765 55.4557 50.7045 55.2072 50.7183C55.0066 50.7295 55.0891 50.5734 54.7196 50.7577L54.563 50.3628C54.378 50.5292 54.193 50.6953 54.0081 50.8618C53.9731 50.7126 53.9507 50.5617 53.9414 50.4087C53.6655 50.685 53.3182 50.7322 52.9473 50.7571C52.5459 50.7839 52.2467 50.8714 51.856 50.9449C51.7325 50.968 51.4144 51.0051 51.3129 50.9619C51.3277 50.9682 51.1228 50.883 51.1846 50.8991C51.158 50.845 51.1333 50.7899 51.1105 50.7338C51.0759 50.578 50.9638 50.5712 50.7744 50.7132C50.6764 50.6982 50.4864 50.5696 50.3886 50.6013C50.1367 50.683 50.1709 50.8784 49.9199 50.8497C49.7569 50.8311 49.6738 50.5903 49.5042 50.574C49.2446 50.549 49.0196 50.8396 48.7857 50.9029C49.4969 50.7099 47.8634 50.8597 48.3712 50.873C48.0382 50.8643 47.6925 50.8478 47.3848 50.997C47.2147 50.8808 47.4212 50.647 47.2494 50.5509C47.0936 50.4636 47.0815 50.6941 47.0633 50.6991C47.1617 50.6713 47.1126 50.8673 47.0142 50.9022C46.7078 51.0108 46.4625 50.7346 46.4466 50.4606C46.1863 50.8526 46.1131 50.695 45.7302 50.7192C45.3525 50.7432 45.0267 50.9411 44.6489 50.9375C43.9016 50.9303 43.3945 50.6706 43.145 50.0034C43.9413 50.1003 44.7428 49.5884 45.5215 49.709C45.7774 49.7486 45.9372 49.9409 46.1614 49.9067C46.4376 49.8647 46.6305 49.5633 46.9848 49.5309C47.766 49.4595 48.5361 49.529 49.3227 49.4093C50.2623 49.2661 51.2427 49.1814 52.1913 49.251C52.9244 49.3049 53.5179 49.0247 54.2613 48.9707C55.2224 48.9007 56.1914 48.8884 57.1543 48.8379C58.1434 48.7859 59.208 48.628 60.1944 48.6787C60.5024 48.6944 60.7675 48.7246 61.0732 48.7063C61.2024 48.6984 61.3248 48.6106 61.4604 48.6238C61.6371 48.6409 61.713 48.8217 61.8962 48.8154C62.2076 48.8048 62.5404 48.5482 62.9105 48.5413C63.5191 48.5297 64.125 48.5311 64.7352 48.4964C65.2724 48.4659 65.8479 48.3405 66.3827 48.3473C66.7599 48.352 66.853 48.6733 67.0728 48.7066C67.4681 48.7661 69.4676 47.6283 69.6404 48.6494C70.6813 47.9371 72.0773 48.5403 73.2361 48.4065C74.7245 48.2345 76.2404 48.3878 77.739 48.3265C79.2639 48.2643 80.8327 48.3219 82.3515 48.4657C82.9807 48.5253 83.5885 48.5812 84.2194 48.5451C84.5007 48.5289 84.8258 48.4572 85.1071 48.5219C85.1752 48.5378 85.6968 48.9017 85.6321 48.9121C85.917 48.6564 85.7242 48.619 86.2254 48.6059C86.6119 48.5957 86.9772 48.6792 87.3614 48.7018C88.0511 48.7427 88.7458 48.6472 89.4339 48.6683C90.0085 48.6858 90.5702 48.7706 91.1477 48.7747C91.7703 48.7791 92.5054 48.7969 92.9559 49.2987C92.9083 49.1411 92.8609 48.9836 92.8133 48.826C93.5082 48.8803 94.1948 49.1283 94.8973 49.0124C94.7197 49.1826 94.5393 49.3217 94.4713 49.5713C94.8502 49.5233 95.1067 49.2588 95.5055 49.2567C95.8406 49.2547 95.9102 49.4227 96.2639 49.2056C96.3074 49.4716 96.351 49.7377 96.3945 50.0036C96.8843 49.8883 96.5629 49.5231 96.5986 49.1939C96.9968 49.3134 97.3339 49.1761 97.177 49.7488C97.056 50.1903 96.5047 50.4079 96.0901 50.2734ZM95.4019 55.1916C95.231 55.6715 93.7536 55.3973 93.4043 55.3465C92.9529 55.2811 92.4365 55.1775 92.021 55.1261C91.9711 55.0595 91.9112 55.0032 91.8417 54.9568C91.7893 55.0296 91.7232 55.0812 91.6433 55.1116C91.4523 55.1535 91.4516 55.3505 91.201 55.3069C91.1892 55.5985 91.3918 55.4328 91.547 55.5386C91.156 55.8007 91.3348 55.499 91.1154 55.5038C91.0611 55.4266 90.9854 55.3964 90.8883 55.413C90.7647 55.445 90.6508 55.4979 90.5466 55.5717C90.4487 55.6749 90.3651 55.6802 90.2954 55.5878C90.2286 55.5207 90.1472 55.4792 90.0509 55.4634C89.6658 55.5261 89.5581 55.697 89.1243 55.6691C88.5046 55.6292 87.8343 55.7925 87.2243 55.7065C86.8462 55.6533 86.2145 55.0592 86.0429 55.6382C85.7816 55.209 85.3652 54.917 85.115 54.4783C86.2807 54.411 87.446 54.3307 88.6126 54.2886C89.6341 54.2519 90.7515 54.3669 91.706 54.3187C92.6003 54.2736 93.5471 54.1748 94.4601 54.0932C95.4279 54.0067 95.7481 54.2189 95.4019 55.1916ZM64.9918 55.2624C65.4151 55.3796 65.8181 55.114 66.2286 55.198C66.3643 55.2257 66.6452 55.4727 66.707 55.4776C66.8201 55.4866 67.1523 55.244 67.2949 55.2116C68.1964 55.0063 69.2887 55.0282 70.1901 55.1542C70.6677 55.2209 70.741 55.0024 71.158 54.8963C71.5913 54.7857 72.2073 54.8708 72.6636 54.8404C73.7371 54.7685 74.8102 54.8196 75.8765 54.7411C76.9711 54.6605 78.0603 54.6169 79.1554 54.5605C79.9015 54.5222 81.6942 54.0967 82.3124 54.6505C82.8224 55.1071 82.1655 55.8998 81.6555 56.0808C81.274 56.2158 81.0914 55.9312 80.8083 55.9584C80.4858 55.9893 80.5983 56.3702 80.3105 56.0169C80.1322 56.3683 79.0113 56.2185 78.6901 56.2417C77.9902 56.2923 77.398 56.4327 76.9215 55.7798C76.9538 55.9679 76.9861 56.1564 77.0184 56.3447C76.3867 56.007 75.7086 56.115 75.1602 56.2329C74.8886 56.2911 74.055 56.6939 73.7607 56.5201C73.5583 56.4007 73.9151 56.1964 73.5735 56.0945C73.3946 56.0409 73.0856 56.3382 72.8669 56.3233C72.2616 56.2816 72.4333 55.8746 71.8388 56.3927C71.6374 56.2185 71.5704 55.9223 71.597 55.6684C71.1651 56.0368 71.2012 56.6508 70.429 56.5383C70.1413 56.4965 70.0884 56.2029 69.9384 56.1489C69.6189 56.0335 69.5826 56.2409 69.3058 56.4052C69.2012 56.4671 69.0738 56.5667 68.9507 56.5792C68.698 56.6044 68.6579 56.4883 68.6232 56.4921C68.455 56.5106 68.2431 56.5962 68.0436 56.535C67.8645 56.4802 67.8121 56.1641 67.4966 56.2379C67.1946 56.3089 67.1921 56.514 67.2469 56.821C66.949 56.7901 66.7689 56.6243 66.5461 56.4446C66.3212 56.9693 65.8477 56.5347 65.5858 56.9773C65.2447 56.57 65.0258 56.6821 64.6025 56.2843C64.6234 56.4503 64.6441 56.6163 64.6647 56.7824C64.3345 56.7187 64.1876 56.4858 63.9057 56.794C63.6322 56.2845 62.803 57.0104 62.377 56.5182C62.1871 57.1416 60.931 56.9925 60.4005 57.0033C59.9303 57.013 59.5822 56.9745 59.1228 57.0836C58.7169 57.18 58.1542 57.2801 57.7724 57.2359C57.523 57.2071 57.2503 57.1614 56.9394 57.1952C56.4914 57.2437 56.1043 57.4757 55.6402 57.366C54.9413 57.2008 54.5129 56.2827 55.2913 55.8796C55.824 55.6035 56.7837 55.7058 57.37 55.6548C58.3416 55.5704 59.4305 55.3935 60.4033 55.4738C61.1622 55.5367 61.8539 55.3557 62.6282 55.2792C63.2111 55.2215 64.1665 55.118 64.5468 55.6957C64.6926 55.527 64.6776 55.1755 64.9918 55.2624ZM54.3557 63.1705C54.2513 62.6509 58.6933 62.3647 59.1342 62.3308C60.0598 62.2594 60.988 62.2086 61.9158 62.185C62.6785 62.1657 63.3904 62.3112 64.1532 62.1942C64.8657 62.0849 65.7256 61.8608 66.3458 62.3652C66.437 61.6754 69.1108 62.0114 69.6195 62.0133C71.8339 62.0212 73.9528 62.0265 76.0947 61.8893C77.3189 61.8109 78.6187 61.7055 79.843 61.7668C80.3953 61.7945 80.84 61.9416 81.389 61.8138C81.7472 61.7305 82.1331 61.5572 82.4759 61.8022C82.8767 62.0892 83.048 63.0631 82.7718 63.4697C82.5707 63.7658 82.3926 63.733 82.0712 63.6817C81.5773 63.6032 81.2102 63.4888 80.7064 63.6896C80.788 63.657 80.369 63.7506 80.4036 63.7479C79.8331 63.7905 79.0504 64.1891 78.5587 63.7297C78.7557 63.7642 79.042 63.4125 78.7937 63.3835C78.6072 63.362 78.4889 63.5618 78.3433 63.6288C77.8454 63.8578 77.5906 63.7862 77.2934 63.3057C76.6938 63.8247 76.6292 63.6811 76.366 63.0421C76.1633 63.1981 76.1197 63.5672 75.9603 63.6884C75.9365 63.7064 76.0347 63.9306 75.9195 63.9215C75.8127 63.9128 75.7777 63.7376 75.6955 63.7238C75.643 63.715 75.6157 63.5613 75.5655 63.552C75.511 63.5419 75.4551 63.6399 75.3933 63.637C75.2286 63.6293 74.7575 63.9799 74.9264 63.4879C74.6767 63.8054 74.5693 63.603 74.4792 63.314C74.191 63.5332 73.9029 63.7522 73.6146 63.9712C73.4806 63.5986 73.2498 63.7001 72.9597 63.8301C73.0471 63.5715 72.9923 63.3266 72.773 63.5065C72.6458 63.6108 72.5606 63.9414 72.4306 64.0819C71.9044 63.549 71.7131 63.6952 70.986 63.7645C70.7086 63.7908 70.3636 63.8421 70.1158 63.6744C69.8977 63.5271 69.7745 62.9865 69.4017 63.4233C69.4849 63.3262 69.3547 64.0724 69.3317 64.1908C69.1674 64.0801 69.0277 63.9438 68.9127 63.7823C68.6983 64.2068 68.1351 63.8258 67.6738 63.9126C66.9474 64.0493 66.1982 64.2794 65.5565 63.7387C65.5112 63.9132 64.9856 64.1356 64.9848 64.1424C65.016 63.8333 65.2109 63.9419 64.8128 63.8833C64.7395 63.8725 64.6563 64.0043 64.5871 64.0187C64.3498 64.0678 64.0725 64.0212 63.8332 64.0144C62.8378 63.9858 61.9268 64.2064 60.944 64.2863C60.6127 64.3131 60.2196 64.366 59.9086 64.2412C59.5882 64.1123 59.5969 63.9661 59.2727 64.0491C59.3754 64.0228 59.0702 64.3435 59.0867 64.3313C59.0431 64.3631 58.8613 64.2067 58.7967 64.2184C58.7778 64.2868 58.759 64.3551 58.7402 64.4235C58.6619 64.4138 58.5839 64.4042 58.5058 64.3947C58.292 64.4233 58.0993 64.207 57.8984 64.1997C57.9353 64.201 57.3565 64.4165 57.383 64.4295C56.9788 64.2281 57.0949 64.2865 56.5823 64.4092C56.0977 64.5251 55.6153 64.4981 55.1182 64.5704C53.6722 64.7804 54.5337 64.0558 54.3557 63.1705ZM53.0786 70.4C52.8067 70.0144 53.5301 69.881 53.7613 69.847C54.1413 69.7909 54.6455 69.9024 54.8987 69.8421C55.2843 69.7502 55.6566 69.5314 56.0907 69.472C56.6387 69.3971 57.1909 69.3849 57.741 69.338C57.9243 69.3222 58.1512 69.2591 58.3295 69.2698C58.5951 69.2858 58.7053 69.4262 58.9197 69.4272C59.2849 69.4291 59.7355 69.1985 60.1097 69.1562C60.5889 69.1017 61.073 69.0764 61.5546 69.0525C62.5693 69.0021 63.5734 69.023 64.5876 69.0219C65.0502 69.0211 66.282 68.5413 66.5125 69.0794C66.8332 68.6716 67.6558 68.7272 68.1142 68.7153C68.9219 68.6946 69.7212 68.6167 70.5282 68.5791C71.2191 68.547 71.9912 68.6949 72.6697 68.5913C73.0436 68.5343 73.1677 68.4144 73.5916 68.4686C73.9067 68.5085 74.3871 68.3421 74.6575 68.4157C74.6434 68.4119 74.995 68.6296 74.8853 68.6366C75.0061 68.6287 74.999 68.7133 75.1322 68.6756C75.307 68.6263 75.2267 68.4063 75.5892 68.3283C76.1546 68.2063 76.9085 68.3474 77.4959 68.3161C78.0657 68.2858 78.6347 68.2727 79.2051 68.2754C79.4677 68.2765 79.7925 68.2138 80.048 68.2651C80.1731 68.2901 80.4391 68.4534 80.5452 68.4371C80.8458 68.39 80.9989 68.1813 81.4053 68.1943C81.866 68.2089 82.2806 68.2025 82.7387 68.1674C83.1822 68.1335 83.2534 68.0701 83.4732 68.4391C83.6911 68.8053 83.7512 69.282 83.3502 69.5307C83.6107 69.5136 83.9311 69.8624 83.6242 70.0556C83.4344 70.175 83.054 69.9056 82.8269 69.9249C82.5471 69.949 82.3275 70.0969 82.0231 70.1061C81.7029 70.1159 81.3777 70.1965 81.0621 70.2027C80.7332 70.209 80.4846 70.0621 80.1726 70.1246C79.8981 70.1799 79.8692 70.4048 79.5387 70.2073C79.3744 70.1089 79.3467 69.745 79.1226 69.7417C78.8224 69.7371 78.9421 70.1249 78.7695 70.3047C78.7231 69.7499 78.2949 70.6678 78.1246 69.9944C77.9677 70.218 77.3866 70.5308 77.1051 70.3512C76.8485 70.1875 76.9337 69.8169 76.8268 69.5501C76.6488 70.0297 76.1715 70.5275 76.2147 69.6541C75.9827 69.9395 75.3561 69.8945 75.5132 70.394C75.3243 70.3903 75.2796 70.1206 75.1206 70.1002C74.9833 70.0826 74.8743 70.1881 74.8533 70.1865C74.9285 70.1929 74.6286 70.2926 74.6238 70.2936C74.827 70.2524 74.038 70.1821 74.1723 70.1832C73.9893 70.1818 73.7652 70.3316 73.551 70.3311C73.3561 70.3306 73.1621 70.2538 72.9695 70.232C72.4705 70.175 72.5744 70.2846 72.261 70.4413C72.1449 70.4993 72.1158 70.5976 71.9509 70.5854C71.8293 70.5763 71.7839 70.4176 71.7701 70.4162C71.5991 70.399 71.7254 70.3416 71.4598 70.3682C71.4293 70.4206 71.399 70.4729 71.3685 70.5253C71.2727 70.648 71.1482 70.6786 70.9955 70.6174C70.6025 70.7017 69.2991 71.067 69.4268 70.3905C69.2271 70.4881 69.0274 70.5858 68.8277 70.6835C68.742 70.1379 67.6569 70.8612 67.4146 70.8977C67.1036 70.9443 67.0749 70.8251 66.781 70.7615C66.7279 70.7501 66.6217 70.925 66.4975 70.8998C66.1749 70.835 66.1174 70.8029 66.0621 70.4526C65.8322 70.8824 65.6411 70.6903 65.2239 70.7609C65.1316 70.7766 65.0727 70.9582 64.9401 70.9269C64.8446 70.9044 64.8421 70.7299 64.7762 70.7072C64.717 70.687 64.7259 70.5492 64.6386 70.5297C64.5385 70.5071 64.1972 70.7869 64.0994 70.8301C63.8786 70.9274 63.516 71.0884 63.3004 71.0401C63.0339 70.9806 63.1525 70.7831 62.7759 70.8053C62.1819 70.8401 61.9341 71.3458 61.5644 70.549C61.3977 70.8681 61.4189 70.9548 61.1509 71.0601C60.953 71.1378 60.4516 71.0566 60.1909 71.0469C59.0778 71.0059 57.9833 71.3852 56.8794 71.2859C56.3941 71.2422 55.9849 71.1451 55.4953 71.2244C54.9807 71.3081 54.4775 71.4308 53.9555 71.4802C53.6901 71.5052 53.1355 71.5816 53.0051 71.2422C52.8906 70.9435 53.3181 70.7399 53.0786 70.4ZM55.2618 82.6476C53.8179 83.6136 52.6221 84.9326 51.2962 86.0496C49.9671 87.1694 48.9122 88.4141 47.7169 89.6543C46.6116 90.8005 45.5962 91.885 44.2601 92.7513C43.4146 93.2995 42.6603 93.9742 41.7918 94.4912C41.1413 94.8783 40.1558 95.3876 40.4731 94.2035C40.7984 92.9899 41.3989 91.7634 41.9204 90.63C42.6619 89.0191 43.4089 87.4229 44.211 85.8426C44.5125 85.2487 44.6812 84.6576 45.1593 84.1847C45.6795 83.6698 46.0438 82.9977 46.6134 82.5112C49.0098 80.4653 52.6211 82.046 55.2618 82.6476ZM59.7912 83.3412C59.1362 83.6846 58.4032 83.7696 57.709 83.9967C57.1176 84.1901 56.5676 84.534 55.9314 84.5595C56.5105 84.1247 57.008 83.534 57.6609 83.2039C58.3952 82.8326 59.0618 83.1029 59.7912 83.3412ZM88.5395 86.2024C86.1303 85.3895 83.8872 84.1918 81.5407 83.2277C81.1356 83.0612 77.9677 82.0179 78.032 81.5215C80.2519 81.1148 82.5382 80.4169 84.7636 81.1778C86.788 81.87 88.4345 83.5305 90.0016 84.9201C90.4105 85.2828 92.9393 86.9341 92.713 87.46C92.5562 87.8245 91.3379 87.7251 91.0502 87.6503C90.6783 87.5537 90.4644 87.3281 90.1729 87.0802C89.6854 86.6659 89.1462 86.4072 88.5395 86.2024ZM84.092 72.6214C84.4579 72.2847 84.677 71.7738 85.0265 71.4629C85.4756 71.0636 86.2003 71.2582 86.6912 71.4656C88.1643 72.088 89.4235 73.1346 90.8876 73.7841C92.5102 74.504 93.9147 75.4659 95.3781 76.4573C96.7158 77.3633 98.1622 78.1135 99.5276 78.9783C100.919 79.8597 102.477 80.4326 103.887 81.2827C105.322 82.1478 106.752 83.0166 108.132 83.9699C110.591 85.6702 113.152 87.416 114.972 89.8332C115.907 91.0758 116.783 92.485 117.469 93.8802C118.093 95.1484 118.77 96.9091 117.961 98.2285C117.185 99.4955 115.861 100.494 114.741 101.439C114.317 101.797 113.914 102.232 113.364 102.387C112.695 102.576 111.915 102.524 111.227 102.579C107.549 102.878 104.123 102.596 100.499 101.938C97.0041 101.304 93.4949 100.949 89.9735 100.508C87.9869 100.26 86.0007 99.97 84.0411 99.5559C83.2034 99.3788 82.3511 99.1747 81.5314 98.9335C80.8156 98.7229 80.2136 98.2592 79.4775 98.0755C76.3538 97.2954 72.7798 96.9972 69.6873 95.6851C72.424 94.5478 75.3322 93.8608 78.137 92.9156C81.089 91.9211 83.9722 91.0865 87.0838 90.8038C88.6849 90.6583 90.1177 90.2496 91.658 89.8217C93.1257 89.4137 94.6581 89.2888 96.1657 89.106C96.836 89.0246 98.7494 89.1464 98.9716 88.27C99.3024 86.9652 97.4225 86.8146 96.6211 86.9315C95.4842 87.0973 94.5467 87.381 93.6767 86.4483C92.7882 85.4959 91.925 84.5207 91.0204 83.5804C89.3433 81.8368 87.6146 79.82 85.2439 79.0377C82.3517 78.0834 78.9978 78.9892 76.112 79.5319C73.0639 80.1052 70.0208 80.6539 67.0298 81.4873C65.7912 81.8322 64.1938 82.5923 62.9083 82.4702C61.6414 82.3497 60.2065 82.1424 58.9821 81.7771C58.4282 81.6119 57.9729 81.3055 57.4772 81.0199C56.8327 80.6484 56.1264 80.4104 55.4424 80.1215C54.0592 79.5378 52.7107 79 51.2185 78.7705C49.9617 78.5773 48.6272 78.4627 47.4093 78.9032C46.2145 79.3354 45.1558 80.2154 44.3222 81.1555C43.4166 82.1769 42.6682 83.3214 41.9261 84.4626C41.5698 85.0102 41.1349 85.4882 40.7658 86.0236C40.456 86.4732 40.2752 86.9729 39.9473 87.4099C39.2136 88.3877 38.7154 89.6383 38.2709 90.7758C37.7768 92.0391 37.2281 93.5417 37.3461 94.9159C37.3906 95.4354 37.4371 96.1235 37.6381 96.6051C37.8937 97.2178 38.2581 97.2021 38.7834 97.4332C39.6859 97.8302 39.939 98.9275 41.1053 98.7135C42.1993 98.5129 43.1481 97.6115 43.9462 96.8928C44.9865 95.9566 45.9821 94.9692 46.9776 93.9855C47.9991 92.976 49.0056 91.8562 49.8182 90.6684C50.1381 90.201 50.3875 89.6728 50.7656 89.2471C51.247 88.7047 51.7875 88.6396 52.4414 88.4236C58.158 86.5348 63.9024 84.7128 69.7977 83.4657C71.2099 83.1669 72.6338 82.7814 74.0212 82.3838C75.4928 81.9619 76.2548 82.4078 77.4693 83.2106C80.0065 84.8881 83.0054 86.0697 85.8307 87.1643C86.7203 87.5089 88.1366 87.5308 88.832 88.2105C84.7099 88.8387 80.7817 90.0478 76.8058 91.2519C74.8455 91.8453 72.8628 92.3599 70.8951 92.9275C68.9266 93.4954 67.0332 94.2312 65.0918 94.8713C63.1598 95.5084 61.1178 95.7683 59.1671 96.356C57.1757 96.9558 55.1926 97.3685 53.1485 97.7331C51.0845 98.1014 49.0349 98.5263 46.9638 98.8561C46.0156 99.007 45.0674 99.1636 44.1298 99.3712C43.2122 99.5746 42.3257 100.061 41.4035 100.174C37.2852 100.678 33.2477 101.801 29.1455 102.435C26.0825 102.909 20.7537 103.57 18.7675 100.497C16.7702 97.4065 19.2206 93.8015 21.407 91.5919C22.7657 90.2185 24.2925 89.0099 25.8944 87.9346C27.6088 86.7839 29.2584 85.5414 30.9731 84.3923C34.8537 81.792 39.0616 79.6711 43.2307 77.5817C45.2318 76.5788 47.1653 75.5031 49.1119 74.4025C50.0781 73.8562 50.6127 74.7376 51.3765 75.3367C51.9772 75.8082 53.0802 76.9698 53.9207 76.4327C53.953 76.6261 53.9854 76.8195 54.0177 77.0132C54.2638 76.9007 54.5102 76.7886 54.7563 76.6763C54.9217 77.1101 54.9024 77.3794 55.3643 77.6072C55.6479 77.7472 56.2534 77.9155 56.5238 77.6691C56.579 77.8405 56.6341 78.0115 56.6893 78.1827C56.9258 78.1646 56.9714 77.4882 57.016 77.3299C57.4211 77.9217 57.9816 78.4163 58.6938 78.5835C58.6972 78.5449 58.578 78.0587 58.5831 78.0557C58.8084 77.9177 59.0927 78.5084 59.2121 78.635C59.6082 79.0542 59.8444 78.9891 60.282 78.6508C60.3138 78.6853 60.4619 79.0717 60.4834 79.0648C60.5781 79.0347 60.7579 78.6923 60.7777 78.6611C60.7503 79.1115 61.6199 79.2022 61.9269 79.1055C61.858 78.9735 61.7892 78.8416 61.7204 78.7097C62.79 78.5669 63.21 79.7033 64.2367 79.6456C64.9957 79.6027 64.387 79.4369 64.8166 79.1118C65.1918 78.8277 65.2586 79.449 65.2955 79.4293C65.3671 79.3543 65.4225 79.2683 65.4619 79.1709C65.6008 79.703 66.7065 80.1803 66.5922 79.3055C67.0272 79.4794 67.336 79.7682 67.8175 79.8292C68.4026 79.9033 69.0275 79.7791 69.6113 79.7307C70.869 79.626 72.0547 79.3695 73.1884 78.7932C73.8607 78.4516 74.5761 78.1415 75.208 77.7294C75.7368 77.3844 76.74 76.3372 77.4441 76.7881C77.2637 76.2563 78.1126 76.7492 78.1397 76.0641C78.276 76.1669 78.4124 76.2695 78.5487 76.3724C78.6304 76.1931 78.6076 75.9106 78.7172 75.7543C78.8675 75.5397 78.941 75.6661 79.0691 75.5454C79.2126 75.4103 79.3379 75.0486 79.5098 74.9457C79.687 74.8396 79.8956 74.9661 80.0863 74.8735C80.3767 74.7324 81.6257 73.3551 81.4143 74.5352C81.9515 74.3528 81.5374 74.1859 81.6044 73.828C81.7391 73.1107 82.0671 73.6268 82.3938 73.6894C82.9288 73.792 82.918 73.3497 83.2162 73.0284C83.4886 72.7348 84.0007 72.6033 83.8243 72.0936C84.0258 72.2022 84.0685 72.4149 84.092 72.6214ZM51.8462 57.3029C51.4248 57.7723 51.1092 57.5717 50.6408 57.5028C50.5906 57.3348 50.5049 57.3116 50.3839 57.4329C50.245 57.5128 50.0958 57.5653 49.9359 57.5904C49.5517 57.6851 49.1526 57.6448 48.7768 57.7883C48.7876 57.6624 48.9198 57.4387 48.8351 57.3109C48.4398 57.5842 48.1948 57.7581 47.7094 57.7633C47.3162 57.7674 46.6259 57.467 46.2994 57.8262C46.2892 57.6863 46.2791 57.5467 46.2693 57.4068C46.1093 57.4865 45.9701 57.5931 45.8518 57.7267C45.8293 57.5196 45.817 57.363 45.68 57.1956C45.4201 57.7299 45.1355 57.7426 44.6308 57.5383C44.7016 57.5669 44.1256 57.2293 44.1477 57.3229C43.9655 56.5556 46.84 56.619 47.1418 56.5887C47.8955 56.5125 48.649 56.4683 49.4038 56.3988C50.1196 56.3331 50.6539 56.2215 51.1493 56.8187C50.9285 55.956 53.0172 55.9988 51.8462 57.3029ZM18.8883 43.9251C18.9675 45.2292 19.2578 46.6154 18.7507 47.8706C18.3431 48.8795 17.5299 50.019 16.6538 50.6774C14.86 52.0256 13.3397 50.3759 13.09 48.563C12.8298 46.6719 13.3456 44.3614 14.9739 43.1953C15.9469 42.4989 16.889 42.547 18.0091 42.7761C18.2721 42.83 18.6993 42.8092 18.8497 43.0707C18.885 43.1318 18.8533 43.9238 18.8883 43.9251ZM42.7122 61.3008C42.4023 61.4572 42.0781 61.5488 41.805 61.7615C41.7101 61.8355 41.6778 62.0038 41.5771 62.0661C41.3939 62.1795 41.1319 62.1042 40.9409 62.1978C40.6248 62.3522 40.3982 62.5733 40.0226 62.7155C39.4647 62.9271 38.9755 63.2171 38.4481 63.492C37.5695 63.9501 36.6264 64.3434 35.7079 64.7163C35.2442 64.9046 33.962 65.2715 34.0063 65.9503C33.9026 65.9783 33.7966 65.7515 33.58 65.7696C33.2827 65.7943 32.89 66.1381 32.5813 66.2227C32.0039 66.3807 31.557 66.3946 31.557 67.1307C31.3733 67.0058 31.3266 66.7003 31.0821 66.6599C30.8069 66.6143 30.6911 66.9111 30.471 67.0036C30.2117 67.1124 29.8893 67.008 29.6326 67.1238C29.5203 67.2425 29.3955 67.3463 29.2582 67.4346C29.1185 67.4506 28.9795 67.4465 28.8412 67.4216C28.2961 67.5372 27.7946 67.7423 27.2483 67.8487C26.7158 67.9528 26.3511 67.9905 26.575 68.6201C26.0054 68.7316 25.8664 68.1272 25.2237 68.3482C24.436 68.619 23.6998 68.8143 22.8775 68.9796C22.4582 69.0639 22.02 69.2519 21.5976 69.296C21.2963 69.3276 21.015 69.2197 20.7182 69.2533C20.3607 69.2934 20.0732 69.459 19.7031 69.4652C19.352 69.4714 18.9835 69.4083 18.6388 69.3464C18.6875 69.4853 18.7485 69.6185 18.8217 69.746C18.5833 69.6961 18.4733 69.4094 18.2712 69.367C18.0591 69.3225 17.8691 69.5414 17.6925 69.4929C17.6173 69.4721 17.6674 69.2403 17.5329 69.196C17.4102 69.1559 17.3585 69.2032 17.2369 69.1842C17.1964 69.1779 16.6879 69.1503 16.6068 69.1933C16.4652 69.2683 16.6085 69.409 16.5803 69.4299C16.1021 69.7838 16.0962 69.5928 15.8831 69.223C15.57 68.6803 15.1924 69.0229 14.6234 68.9278C13.9892 68.8221 13.4895 69.1017 12.8654 69.062C12.1922 69.0191 11.401 68.5153 10.8057 68.2211C9.52044 67.5859 8.26698 66.9846 7.18757 66.0225C5.07736 64.1416 3.36069 61.8285 2.34852 59.1805C1.26098 56.3356 1.0549 53.3687 1.14219 50.3506C1.19471 48.5354 1.33999 46.7213 1.62609 44.9275C1.82305 43.6936 1.8643 41.5007 3.25554 40.9388C3.49467 43.828 2.73998 46.7722 3.21595 49.6427C3.35927 50.5074 3.70878 51.6593 4.37027 52.2997C5.34959 53.2475 5.57875 51.8774 5.66727 51.1204C5.83213 49.7147 6.13841 48.3169 6.35536 46.9177C6.57201 45.5192 6.72515 44.1051 7.02636 42.7214C7.13626 42.2168 8.02215 38.522 8.6724 38.697C8.5408 41.3849 8.19144 44.0266 8.17767 46.7243C8.17228 47.8064 8.07536 48.9494 8.23151 50.0243C8.31196 50.5775 8.81572 52.2007 9.68213 52.0653C10.4839 51.9401 9.60247 50.7967 9.52757 50.3558C9.32929 49.1886 9.58204 47.7366 9.76686 46.5782C10.1168 44.3858 10.8974 42.1403 12.1732 40.3084C13.316 38.6679 15.0754 37.1061 17.1951 37.3954C18.1006 37.5191 18.8073 37.744 19.2622 38.5709C19.6194 39.2199 21.0258 39.9574 20.2107 40.7698C19.4687 41.5097 18.2687 40.9176 17.4439 40.7412C16.434 40.5253 15.3517 40.785 14.5072 41.3768C13.0581 42.3918 12.2324 44.2067 11.9629 45.9088C11.5996 48.2036 12.5707 54.2107 16.1474 52.8644C18.5235 51.97 20.3131 48.7527 20.1136 46.2895C20.0336 45.3035 19.6482 43.4316 21.0123 43.1654C22.76 42.8245 23.0069 44.751 22.8299 46.0028C22.5727 47.824 21.6102 49.5174 20.509 50.9573C19.5494 52.2121 18.4332 52.9968 17.2784 54.0332C16.9365 54.3401 16.0644 55.0299 16.2109 55.6007C16.3715 56.2261 17.7419 56.4039 18.2907 56.5067C21.0055 57.0149 24.067 56.5474 26.7773 56.1925C32.3476 55.4631 37.8446 53.6666 42.4121 50.3634C42.5966 52.4072 42.8293 54.4441 42.9149 56.4953C42.9564 57.4909 42.967 58.501 43.0809 59.4912C43.1511 60.1003 43.4043 60.9512 42.7122 61.3008ZM27.2668 68.4222C27.0481 68.5364 27.2845 67.8446 27.2237 68.0735C27.5504 68.1905 27.5648 68.3069 27.2668 68.4222ZM50.3739 43.6891C50.7211 43.3065 51.6695 42.3962 51.9706 43.2601C52.0825 42.8919 52.0971 42.3465 52.5294 42.8438C52.7016 42.233 54.6005 42.2901 55.0709 42.2631C56.5769 42.1771 58.089 42.131 59.5896 41.9813C62.6735 41.6739 65.811 41.8326 68.9061 41.8225C69.5763 41.8203 70.2447 41.784 70.91 41.8812C71.552 41.975 72.2268 42.2382 72.8812 42.1421C73.463 42.0565 73.8445 41.8961 74.4433 41.9647C75.1599 42.0469 75.8556 42.1052 76.5785 42.1026C79.7762 42.0909 82.9723 42.2204 86.1707 42.2255C86.794 42.2265 87.5408 42.1047 88.1257 42.3695C88.3423 42.4677 88.5791 42.7942 88.7446 42.83C88.9341 42.871 88.8215 42.575 89.0754 42.7088C89.4154 42.8876 89.1522 43.4376 88.9275 43.5247C89.0621 43.4726 88.6847 43.4212 88.7224 43.4191C88.5434 43.4288 88.3906 43.5661 88.1984 43.5575C87.9054 43.5447 87.6602 43.3661 87.4243 43.2088C87.4202 43.2731 87.5499 43.7012 87.4018 43.7227C87.2745 43.7414 87.1551 43.3193 87.1422 43.2212C86.4267 43.8522 85.6686 43.5004 84.7808 43.5803C84.151 43.637 82.8379 44.0572 82.3986 43.3998C82.3804 43.5396 82.3241 43.662 82.2304 43.767C82.1048 43.9582 81.9963 43.9419 81.9046 43.7176C81.8736 43.7192 81.5676 43.7857 81.5616 43.7852C81.3464 43.7681 81.0672 43.6909 80.8482 43.672C80.5093 43.6432 80.5717 43.8899 80.3017 43.8939C80.1542 43.8959 79.7783 43.6831 79.5211 43.6698C79.0758 43.6465 78.6209 43.8354 78.1816 43.7783C77.8792 43.739 77.6058 43.4927 77.309 43.4832C76.9393 43.4709 76.8194 43.7529 76.5264 43.3567C76.4664 43.3406 76.4292 43.5735 76.4054 43.5775C76.4111 43.5765 76.1265 43.6186 76.093 43.6318C76.0345 43.6541 75.807 43.7583 75.7378 43.7594C75.5883 43.7623 75.507 43.6552 75.3485 43.6527C75.0862 43.6483 74.249 43.879 74.2724 43.3939C73.3365 43.7407 72.5378 43.6055 71.5772 43.6875C71.1365 43.7254 70.8596 43.6663 70.4403 43.5854C69.9152 43.484 69.5664 43.6114 69.0427 43.637C68.5395 43.6619 68.3808 43.4489 67.9559 43.2566C67.7883 43.1808 67.6776 43.0808 67.4721 43.123C67.3549 43.147 67.4383 43.3444 67.4036 43.3578C67.2231 43.4275 67.0971 43.3537 66.8495 43.3705C66.3925 43.4017 66.2105 43.7837 65.7408 43.4251C65.8968 43.4063 66.053 43.387 66.2093 43.3681C65.76 43.1776 65.1671 43.0805 65.2759 43.7738C64.8928 43.7202 65.2244 43.4593 65.0361 43.3659C64.8476 43.2728 64.6369 43.4288 64.3996 43.5059C63.7731 43.7091 63.2509 43.6082 62.5978 43.5718C61.8555 43.5303 60.1194 44.1359 59.5879 43.3496C59.5719 43.5154 59.394 43.9769 59.1573 43.9552C59.0802 43.948 59.2952 43.4581 59.3196 43.4063C59.1977 43.6658 58.6415 43.7151 58.3672 43.8497C58.3981 43.7102 58.4287 43.5708 58.4594 43.4315C58.2049 43.7024 58.0812 43.5371 57.7817 43.6277C57.6508 43.6673 57.4612 43.9373 57.3492 43.9536C57.2189 43.8023 57.0548 43.7373 56.8575 43.7583C56.7261 43.7255 56.5948 43.7191 56.4635 43.7392C55.9379 43.7772 55.4587 44.0694 54.9358 43.8704C54.4832 43.698 54.3082 43.2546 54.0383 43.9601C53.9672 43.8347 53.8963 43.7092 53.8253 43.5838C53.7377 43.72 53.6502 43.856 53.5624 43.9921C53.22 43.7678 53.199 43.638 52.805 43.7203C52.7125 43.7572 52.6176 43.752 52.5205 43.7048C52.4973 43.7738 52.4741 43.8429 52.4509 43.9119C52.4417 44.0855 52.3901 44.143 52.2963 44.0839C52.2174 44.0556 52.1463 44.0127 52.0828 43.9549C51.8222 43.9748 51.4891 44.0434 51.2093 44.0055C51.1013 43.991 50.4243 43.6335 50.3739 43.6891ZM58.352 39.0201C58.3827 39.0673 58.4135 39.1143 58.4442 39.1615C58.0209 39.3849 57.9213 39.2567 57.8775 38.8078C58.0844 38.8118 58.1197 39.1756 58.352 39.0201ZM58.6143 38.7567C58.8181 38.8466 59.0518 39.0232 59.2438 38.7866C59.373 39.1623 58.4131 39.6749 58.6143 38.7567ZM59.9306 38.9225C60.3585 39.2118 59.3321 38.9794 59.3337 38.9798C59.5182 38.8094 59.7171 38.7904 59.9306 38.9225ZM63.611 37.3099C63.7578 38.0504 64.1626 38.0293 64.8158 37.685C65.7685 37.183 65.9294 36.361 65.9958 35.3793C66.0596 34.4379 66.1747 34.0735 67.1454 34.2701C67.8228 34.4072 68.396 34.2919 69.079 34.2731C69.8078 34.253 70.0647 34.3643 70.1233 35.1143C70.182 35.8653 70.3157 36.4356 70.8606 37.0071C71.4147 37.5881 72.1536 37.9351 72.8736 38.2601C73.2438 38.4271 73.5914 38.6069 74.0011 38.6432C74.1598 38.6572 74.986 38.5527 75.0033 38.814C75.0162 39.0107 73.8721 39.565 73.7508 39.631C73.2201 39.9196 72.691 40.1785 72.1114 40.3533C70.7779 40.7556 69.3641 40.7793 67.983 40.7549C65.756 40.7158 62.6784 39.7739 61.3468 37.7983C62.1016 37.6355 62.8564 37.4727 63.611 37.3099ZM63.4113 30.8977C63.0589 30.602 62.8307 30.1553 62.5381 29.8051C62.3905 29.6286 62.2823 29.5723 62.1418 29.484C61.9939 29.3909 61.9106 29.5226 61.7871 29.3038C61.4683 28.7384 62.4522 27.9428 61.4086 27.7252C61.0556 27.6514 60.2058 27.9312 60.1027 27.4252C59.9569 26.7099 61.3223 26.6632 61.6435 26.3001C62.2823 25.5782 61.8487 24.3545 62.2378 23.5219C62.606 22.7331 63.5567 22.5929 64.307 22.3558C65.3525 22.0258 66.4105 21.8343 67.4721 21.5702C68.2143 21.3855 69.4475 20.6437 70.1359 21.2992C69.0736 21.535 69.6911 21.9051 70.3991 22.1142C71.2011 22.3511 72.051 22.4434 72.882 22.5094C73.7374 22.5772 74.6091 22.5902 75.4543 22.4196C76.236 22.2619 77.1089 21.5825 77.9284 21.7566C77.4737 22.5473 76.1191 22.9792 75.2959 23.1863C74.8766 23.2918 74.608 23.2588 74.6644 23.7817C74.7188 24.2885 75.1594 24.7967 75.259 25.3247C75.3906 26.0234 75.2756 26.6656 75.0269 27.3226C74.7822 27.9691 74.7252 28.0536 74.939 28.6714C75.2722 29.6333 74.556 30.6966 73.8942 31.3951C71.2175 34.2197 66.0952 33.1496 63.4113 30.8977ZM70.2126 14.0163C70.2141 14.0342 70.2233 14.0452 70.2126 14.0163V14.0163ZM71.0462 21.1445C70.9352 21.2275 70.296 21.4014 70.3228 21.1515C70.3584 20.8168 70.9346 20.9377 71.0462 21.1445ZM72.503 14.3834C72.353 14.2716 71.9329 14.3176 72.2401 13.8938C72.34 14.0802 72.4216 14.2317 72.503 14.3834ZM62.422 11.7045C62.6131 11.2079 62.8249 10.7458 62.911 10.217C62.9642 9.89127 62.8584 9.51927 63.3139 9.46812C62.7335 9.21505 62.7276 8.21609 62.6933 7.69823C62.6462 6.98509 62.4209 6.03024 62.7344 5.36647C63.0561 4.68463 63.4902 4.69591 63.6211 5.50796C63.6724 5.8259 63.4762 5.92875 63.4393 6.15016C63.3663 6.58819 63.5115 6.49216 63.794 6.15845C63.9108 6.49764 63.9554 7.00732 64.4302 6.98575C64.3985 6.89404 64.2167 6.69168 64.2775 6.57774C64.3708 6.40276 64.8267 6.67013 64.8846 6.71059C65.301 7.00184 65.3913 7.26772 65.0944 7.63505C65.5055 7.67939 65.1604 8.03935 65.4258 8.1331C65.8308 8.27626 65.5592 7.59815 65.5153 7.4789C65.7617 7.57503 65.8444 7.68477 66.0005 7.87956C66.0921 8.01385 66.1755 8.15337 66.2508 8.29764C66.3347 8.561 66.5073 8.62704 66.7689 8.49576C67.2934 8.6603 68.0175 8.63448 68.4875 8.92207C68.7022 9.05352 68.7797 9.34095 68.9591 9.45006C69.1609 9.57295 69.4314 9.51721 69.6482 9.59433C69.5688 9.77455 69.6331 9.87195 69.8404 9.88731C70.0016 9.90203 70.1578 9.9383 70.3087 9.9961C70.4214 9.91106 70.5443 9.84376 70.6769 9.79482C70.7661 9.95192 70.892 9.99072 71.0549 9.91169C71.5386 10.0023 71.7709 10.1852 72.0783 10.4587C72.3541 10.7042 72.1296 10.7241 72.4319 10.7023C72.5534 10.6935 72.7662 10.4875 73.044 10.5277C73.2039 10.5588 73.358 10.608 73.5065 10.6755C73.667 10.8128 73.8375 10.8301 74.0178 10.7273C74.3106 10.8704 74.3394 11.1241 74.6965 11.1588C75.0913 11.1973 74.9643 10.7049 75.2354 11.3992C75.6006 10.6631 75.7344 11.8358 76.1115 11.9305C76.502 12.0287 76.5441 11.712 76.8785 12.058C76.9787 12.1617 76.9732 12.3331 77.0856 12.443C77.2699 12.6229 77.5192 12.5869 77.6795 12.8324C77.5901 12.6954 77.7005 13.318 77.6986 13.2974C77.7235 13.572 77.4794 13.8797 77.9796 13.8562C77.974 13.8851 77.7338 14.2352 77.6869 14.1956C77.6755 14.1557 77.6657 14.1152 77.6581 14.0742C77.6044 14.0973 77.5806 14.4308 77.5905 14.4897C77.6329 14.4963 77.6503 14.4648 77.6426 14.3952C77.5604 14.6523 77.6842 14.8158 77.5263 15.06C77.4253 15.216 77.1488 15.3333 77.0018 15.4296C76.6472 15.6621 76.3003 15.8953 75.9542 16.1427C75.1477 16.7199 74.2445 17.416 73.2288 17.5363C73.7389 17.0354 76.674 15.1398 75.2018 14.5956C74.9288 14.4948 74.4317 14.3993 74.1462 14.3781C73.791 14.3516 73.4237 14.5549 73.0321 14.4281C72.5592 14.2753 72.7374 13.8309 72.4487 13.6714C71.8355 13.3333 71.9802 14.1286 71.7873 14.3369C71.5845 14.1242 71.6279 14.0206 71.3078 14.0015C70.9828 13.9818 70.9056 14.2822 70.5263 14.0951C70.0038 13.8372 70.2803 13.3235 69.5392 13.3115C69.5516 13.1987 69.6591 12.8836 69.5177 12.7957C69.327 13.0429 69.4746 13.3194 69.2975 13.5574C69.209 13.6768 69.0168 13.772 68.8764 13.8106C68.5478 13.9009 68.5011 14.0737 68.5546 13.5789C68.3111 14.0176 67.5644 13.8372 67.1202 13.7931C66.398 13.7213 65.6306 13.5846 64.9382 13.3531C64.298 13.1387 63.9561 12.7707 63.4279 12.4359C63.2284 12.3092 63.133 12.3576 62.8469 12.2789C62.5642 12.2013 62.2889 12.0509 62.422 11.7045ZM63.9456 3.93695C64.0547 3.87127 64.1329 4.85133 64.0009 5.03443C63.7589 4.65179 63.33 4.09053 63.9456 3.93695ZM64.2938 3.54602C64.6445 3.22874 64.4009 4.04825 64.3366 4.18574C64.2067 4.10247 64.0769 4.01922 63.947 3.93595C64.1127 3.83428 64.154 3.67257 64.2938 3.54602ZM77.5205 2.2253C80.7593 2.90498 83.9688 4.17546 86.5664 6.26625C88.9327 8.17064 90.6026 10.8727 91.5391 13.7468C92.5109 16.7301 92.1844 20.0399 89.8721 22.3232C88.654 23.5258 87.0455 24.2514 85.5125 24.9595C84.778 25.2987 84.0215 25.5812 83.2841 25.9127C82.7546 26.1507 82.108 26.5314 81.5037 26.4654C81.812 26.1411 82.2592 26.1344 82.6325 25.936C83.0833 25.6962 83.4515 25.236 83.8402 24.9072C84.2259 24.5809 85.0817 23.5531 85.6747 23.8019C85.5923 23.2542 86.2163 23.0001 86.4974 22.639C86.7946 22.257 86.816 21.8103 87.3639 21.6853C86.7755 21.2248 86.9557 20.3565 87.0836 19.7297C87.2474 18.928 87.3231 18.1921 87.3877 17.3764C87.5041 15.9058 87.5978 14.0323 86.7853 12.7396C86.5216 12.3198 86.1859 11.934 85.9507 11.4979C85.6671 10.9724 85.7296 10.5098 85.7296 9.93387C85.2113 10.2821 85.102 9.572 84.883 9.22582C84.7186 8.9661 84.5028 8.82104 84.4497 8.49417C84.4112 8.25647 84.6694 8.21624 84.5278 7.96698C84.3544 8.09795 84.2852 8.30097 84.1973 8.48942C84.0372 8.42544 84.2259 8.20247 84.1342 8.12993C84.1316 8.12803 83.8226 7.9939 83.8379 8.01322C83.6392 7.76126 83.5752 7.34318 83.4778 7.0433C83.1137 7.22775 83.1818 7.20602 82.7756 6.89784C82.7041 6.84362 82.3466 6.59449 82.3129 6.51306C82.1558 6.13224 82.4312 6.35782 82.3542 6.12146C82.133 5.44262 80.8917 5.57099 80.7934 4.55378C80.1881 4.93807 79.9572 4.39356 79.5995 4.00628C79.2327 3.60954 78.6176 3.45696 78.6506 2.82768C78.46 2.89286 78.2695 2.95789 78.0792 3.02274C78.1781 2.44207 77.3155 2.47906 77.0031 2.18448C77.1765 2.18665 77.3489 2.20024 77.5205 2.2253ZM78.0138 38.1898C78.3139 37.9213 78.2228 38.2786 78.416 38.2377C78.5812 38.2027 78.6138 38.0778 78.7722 38.0396C79.4248 37.8819 80.4005 38.08 81.0867 38.046C81.8815 38.0067 83.2441 38.1717 83.6229 39.1018C83.8511 39.6618 83.5028 39.4712 83.1191 39.4296C82.8217 39.3974 82.5573 39.4576 82.2629 39.4546C82.1173 39.4771 81.9724 39.4749 81.8278 39.4478C81.7574 39.4014 81.7157 39.336 81.7029 39.2517C81.2933 39.1898 80.8583 39.4321 80.4048 39.4442C79.7993 39.4603 79.2614 39.3442 78.8015 38.9355C78.6186 39.208 78.4941 39.3431 78.1652 39.3737C78.1566 39.3745 77.8353 39.2451 77.7857 39.2323C77.7198 39.2152 77.5534 39.3533 77.4266 39.3138C77.6516 38.9553 77.6844 38.4841 78.0138 38.1898ZM119.357 41.4263C119.464 41.0546 119.553 40.678 119.651 40.3039C121.145 42.0049 122.453 44.2819 123.041 46.4635C123.423 47.881 124.018 50.4497 122.196 51.1809C120.712 51.7765 119.884 49.6416 119.508 48.59C118.679 46.2687 118.679 43.7881 119.357 41.4263ZM52.5057 14.7725C52.5248 14.7686 51.5384 15.3423 51.8633 14.8779C51.9938 14.691 52.489 14.5597 52.7087 14.5597L52.5057 14.7725ZM51.5567 15.0156C51.4426 15.1116 51.3273 15.2065 51.211 15.3001C51.0994 15.1236 50.9874 14.9471 50.8758 14.7706C51.0961 14.6778 52.0309 14.6082 51.5567 15.0156ZM50.8614 32.8533C50.655 32.7135 50.4914 32.7878 50.4293 33.0225C50.4293 32.789 50.551 32.2465 50.7378 32.1833C50.8587 32.1423 50.3364 31.5245 50.4832 31.3628C50.8565 31.5766 50.633 31.7814 50.7423 32.0574C50.7917 32.1819 50.9399 32.2997 50.9724 32.3954C51.0275 32.5578 51.2503 33.1162 50.8614 32.8533ZM49.8502 31.4631C49.6388 31.5172 50.0089 31.8661 50.0086 32.0203C50.0083 32.1371 49.8683 32.2265 49.8105 32.3862C49.6852 32.7319 49.9007 32.9655 49.546 33.2293C49.546 32.4717 49.0375 30.4641 50.0146 30.0949C49.5379 29.7196 49.9294 29.2863 50.303 29.7355C50.6621 30.1675 50.4333 31.3139 49.8502 31.4631ZM49.3412 28.4733C49.1491 27.7923 48.5711 27.5541 47.9104 27.5945C47.9356 27.2458 48.1997 26.7432 48.3906 27.3715C48.4691 27.1858 48.5234 26.9435 48.7024 26.8204C49.0037 27.7651 50.506 28.2871 49.5707 29.3107C49.4942 29.0317 49.4199 28.752 49.3412 28.4733ZM47.5954 27.6452C44.1166 27.8975 39.2327 28.6193 36.4488 25.9528C34.6336 24.2141 34.7305 21.5065 36.1974 19.5748C37.0345 18.4724 38.1773 17.6963 39.325 16.9569C39.7678 16.6713 40.1429 16.483 40.6291 16.319C40.7078 16.3104 40.7819 16.328 40.8511 16.3717C40.8785 16.2542 40.9446 16.1673 41.0499 16.1106C41.2377 16.0102 41.5052 15.9742 41.6133 15.7656C41.4979 16.1574 41.4385 16.5608 41.3962 16.966C41.3025 16.8569 41.2089 16.7478 41.1153 16.6387C41.0371 17.377 40.2679 16.9301 39.8086 17.0223C40.1111 17.441 40.3274 17.593 40.3536 18.1463C40.1282 17.7303 39.6571 17.4568 39.219 17.3228C39.4569 18.0265 39.6251 18.4441 39.3856 19.2156C39.0963 19.0504 39.0768 18.6537 38.7259 18.5587C38.6332 19.0188 38.6169 19.5293 38.4983 19.9758C37.5998 19.5659 37.6873 20.6697 38.0482 21.2159C38.24 21.5065 38.3343 21.8429 38.5054 22.1218C38.9254 22.8059 38.6063 21.7829 39.0732 21.8313C38.9683 22.553 38.9318 22.6249 39.4599 23.1534C39.9754 23.6687 40.2427 24.3837 40.794 24.8678C40.9536 24.6637 40.7026 24.4504 40.6806 24.2551C41.1935 24.3411 41.4338 24.8555 41.9269 24.3998C42.142 24.819 42.3748 25.2805 42.8898 25.3667C42.5493 24.7194 43.5436 25.1584 43.7986 25.2503C43.992 25.3199 44.3385 25.3752 44.4131 25.4021C44.8332 25.5538 44.5451 25.2816 44.8001 25.779C45.1745 25.666 45.3158 25.3554 45.7636 25.6178C46.1277 25.8313 46.1285 26.1968 46.2118 26.5713C46.2986 26.3263 46.3861 26.0815 46.4821 25.8398C46.5798 25.881 46.9898 26.332 46.945 26.3343C47.9045 26.2872 47.8706 26.883 47.5954 27.6452ZM42.711 15.4323C42.9037 15.297 43.1389 15.4771 43.3552 15.4286C43.6548 15.3618 43.8249 15.1051 44.1595 15.0777C44.0664 15.3751 43.8917 15.3474 43.7438 15.581C43.6935 15.6606 43.7197 15.8516 43.6749 15.8974C43.2999 16.2816 43.1704 15.9682 42.7876 15.6774C42.8209 16.0281 42.8883 16.1388 42.558 16.2328C42.259 16.318 41.7654 16.0041 41.6146 15.7633C41.7418 15.5089 42.4804 15.5941 42.711 15.4323ZM45.098 14.8842C45.4228 14.9152 45.0315 15.8736 44.5661 14.9439C44.7414 14.9059 44.9187 14.8859 45.098 14.8842ZM46.7683 14.6991C47.2806 14.5945 48.9893 14.1076 49.1795 14.9049C49.2136 14.8851 49.3407 14.4349 49.3998 14.4899C49.6364 14.71 49.6629 15.0017 49.6448 15.3073C49.3588 14.7116 49.4605 15.2348 49.2666 15.1941C49.2161 15.1833 49.1387 15.2779 49.0106 15.2389C48.8425 15.1876 48.7222 14.8302 48.6161 14.709C48.4395 14.9612 48.2206 15.2858 47.867 15.2639C47.6166 15.2484 47.2133 14.6039 47.5374 15.3096C47.3471 15.2467 47.1268 15.1043 46.9148 15.1328C46.6774 15.1648 46.554 15.3992 46.3315 15.437C45.8382 15.5207 45.7638 15.046 45.4435 14.7882C45.8852 14.7626 46.3321 14.7879 46.7683 14.6991ZM49.8676 14.6913C49.9037 14.5279 50.3521 14.4618 50.4662 14.5138C50.7448 14.6403 50.6417 14.8072 50.5906 15.0853C50.3839 14.9874 50.1771 14.8897 49.9704 14.7919C50.2789 15.2888 49.7199 15.3609 49.8676 14.6913ZM136.642 43.7981C136.605 42.6073 136.571 41.3958 136.269 40.2365C136.057 39.4252 135.538 37.9703 134.557 37.8295C133.076 37.6169 132.256 40.543 131.841 41.5474C131.758 40.3649 131.831 39.1062 131.384 37.9839C131.027 37.0844 130.123 36.2325 129.345 37.2426C128.653 38.1416 128.52 39.4685 128.337 40.5502C128.101 41.9517 127.959 43.364 127.787 44.7739C127.111 43.4671 126.993 41.9712 126.458 40.613C125.954 39.3314 125.16 38.1074 124.396 36.9675C123.771 36.0363 123.012 35.1609 122.034 34.5917C121.183 34.0963 119.694 33.5604 118.882 34.3831C118.205 35.0697 118.312 35.9883 118.347 36.8546C118.363 37.2405 118.423 37.505 118.084 37.6993C117.917 37.795 117.656 37.7455 117.473 37.7965C117.178 37.879 116.952 38.0187 116.702 38.2043C114.951 39.5056 114.144 41.8507 113.894 43.9414C113.578 46.5905 114.611 48.8615 115.499 51.2852C115.641 51.6716 116.091 52.4912 116.029 52.9224C115.961 53.3948 115.368 53.4072 114.967 53.417C113.759 53.4468 112.495 53.3566 111.293 53.244C108.43 52.9763 105.569 51.5979 103.005 50.3672C102.537 50.1425 101.876 50.014 101.494 49.6604C101.135 49.328 101.04 48.7953 100.73 48.4139C99.9701 47.4783 99.4856 46.68 98.366 46.1146C97.2259 45.5391 96.0624 45.0072 94.9501 44.3769C93.5745 43.597 92.3035 42.6091 90.9853 41.7359C88.5354 40.1134 86.1021 38.3348 83.5047 36.9551C82.2979 36.3139 80.9491 36.2102 79.6961 35.6852C78.4757 35.174 76.9779 35.1734 75.7045 35.4961C75.0842 35.6535 74.6621 36.0263 74.0916 36.2697C73.4231 36.555 72.8777 36.2401 72.2894 35.8996C71.3905 35.3796 70.4995 34.532 71.7796 33.9709C72.2137 33.7804 72.7578 33.7084 73.1371 33.4089C73.5414 33.0899 73.866 32.5016 74.1948 32.1021C74.9257 31.2138 75.3623 30.1912 76.432 29.639C77.615 29.0282 79.0173 28.8619 80.2787 28.4627C81.6454 28.0303 82.9836 27.5161 84.3248 27.0113C86.7412 26.1018 89.2534 25.1198 90.9899 23.1174C92.4875 21.3901 93.1403 19.1603 93.0798 16.8957C92.9563 12.2663 90.4763 7.56774 86.9181 4.6732C82.555 1.12382 77.0043 -0.0597315 71.4931 0.00229991C68.9065 0.0314865 65.8197 0.370007 63.6615 1.94151C61.7974 3.2989 61.4873 5.67299 61.7646 7.81606C61.877 8.68579 62.2617 9.83346 61.6484 10.5999C61.305 11.0286 60.6888 11.1349 60.2264 11.4022C59.6454 11.7381 59.1329 12.0601 58.4747 12.2376C55.6791 12.9927 52.7343 12.7298 49.8759 12.688C45.1142 12.6183 40.2334 13.9075 36.6812 17.2628C33.8126 19.9721 32.9524 25.0811 36.451 27.7223C39.2776 29.8561 43.7112 29.6214 47.0441 29.2493C48.0776 29.1337 48.7884 28.9658 48.7907 30.2303C48.7933 31.6116 48.5646 33.0553 48.917 34.4112C49.472 36.5469 51.5241 36.5977 53.3383 36.1378C54.2957 35.8952 55.2211 35.5303 56.1302 35.1482C57.4636 34.5877 58.6858 33.7636 60.0026 33.2041C60.8953 32.825 61.5638 34.0512 62.3556 33.2011C62.502 33.044 62.529 32.8099 62.7496 32.7295C63.0955 32.6036 63.6756 33.0451 63.979 33.1846C64.4332 33.3938 64.891 33.5476 65.0725 34.0512C65.2423 34.5222 65.1679 35.2713 65.0052 35.7359C64.6519 36.7459 63.7005 36.5464 62.8318 36.4788C61.3167 36.361 59.812 36.1109 58.2975 36.0059C56.9388 35.9117 55.6663 36.3177 54.4944 36.9878C52.0328 38.3951 50.0189 40.6336 47.8846 42.4745C46.786 43.4218 45.7242 44.4452 44.5296 45.2701C44.0102 45.6289 43.4477 45.9586 42.9963 46.4044C42.5483 46.8466 42.4991 47.2487 42.3459 47.8372C42.0731 48.8849 40.7181 49.3971 39.8712 49.9497C38.6735 50.7314 37.4037 51.283 36.0609 51.7627C33.2175 52.7783 30.3516 53.4876 27.3787 54.0118C25.9232 54.2687 24.4799 54.4373 23.0103 54.5759C21.7433 54.6953 20.3963 55.0855 19.131 54.7738C19.4954 54.1827 20.1412 53.8278 20.6441 53.3707C21.2925 52.7818 21.8439 52.0839 22.3347 51.3608C23.2898 49.9526 23.9598 48.4416 24.1136 46.7337C24.2523 45.1964 24.0933 43.3577 23.1658 42.0591C22.8454 41.6104 22.2115 41.4883 21.9248 41.0843C21.6396 40.6827 21.7484 39.9911 21.5923 39.5229C21.1949 38.3316 20.0156 36.8555 18.9777 36.1636C17.8517 35.4128 16.2045 35.137 14.9039 35.5283C12.4942 36.2531 11.014 38.8283 9.91129 40.9095C9.30902 39.6421 10.3176 37.7617 9.141 36.7238C8.14853 35.8482 7.36082 37.5443 7.02889 38.2699C5.47074 41.6762 5.1168 45.2889 4.46402 48.9335C4.19797 48.6713 4.33432 47.9982 4.35934 47.6853C4.4059 47.103 4.40146 46.5318 4.40273 45.9469C4.4059 44.4697 4.6805 42.9857 4.5546 41.5097C4.48191 40.6564 4.20984 38.8574 2.97024 39.1409C1.91897 39.3813 1.26047 40.8596 0.930158 41.7634C0.453718 43.0671 0.343718 44.3576 0.37338 45.7347C0.406177 47.2563 0.116274 48.753 0.0460398 50.2725C-0.0904705 53.2239 0.0443778 56.1497 0.891233 58.9982C2.27795 63.6627 5.46647 67.5382 9.72188 69.8785C12.0665 71.1681 14.6674 71.984 17.3416 72.1594C18.7908 72.2545 20.1898 72.082 21.6266 71.9322C23.0445 71.7843 24.4697 71.7159 25.8852 71.5424C29.0373 71.1557 32.1088 70.1579 34.9739 68.8151C36.482 68.1081 37.9003 67.2403 39.3837 66.4867C39.979 66.1845 40.3811 65.8062 40.8891 65.3857C41.3927 64.969 41.5321 64.9364 42.1049 64.9364C41.9369 64.487 42.4272 64.3484 42.6454 64.064C42.6332 64.2021 42.6209 64.3399 42.6087 64.4776C42.7749 64.1169 42.9298 64.1204 43.0731 64.4881C43.2147 64.0763 43.3196 63.6529 43.4906 63.2514C44.1445 63.5824 44.0894 64.369 44.9639 63.7946C45.6839 63.3219 46.3461 62.7643 47.0801 62.3011C48.7523 61.2456 50.194 59.8722 51.8709 58.8289C51.8709 59.8452 51.9427 60.8701 51.8068 61.8811C51.6776 62.8425 51.3187 63.7411 51.0332 64.6615C50.5068 66.3595 50.4704 68.1742 49.8869 69.8551C49.6456 70.5512 49.017 71.1334 48.8367 71.811C48.653 72.5024 49.0774 73.0564 48.366 73.5103C47.8643 73.8302 47.2373 73.9654 46.6818 74.1589C45.8345 74.4543 45.0301 74.8711 44.2053 75.2246C40.3364 76.8823 36.5628 78.5707 32.9784 80.7996C29.5767 82.9148 26.1231 85.0992 22.9982 87.6114C20.2862 89.7916 17.5448 92.6105 16.8846 96.167C16.244 99.6167 17.9508 103.32 21.378 104.456C23.1599 105.046 25.1745 104.973 27.0302 104.999C29.027 105.026 31.1431 104.545 33.1063 104.197C35.1796 103.829 37.2175 103.254 39.2968 102.925C41.2919 102.61 43.1216 101.906 45.0841 101.472C47.1742 101.01 49.3179 100.759 51.4196 100.343C52.3658 100.156 53.2927 99.8796 54.2415 99.7063C55.2802 99.5166 56.3303 99.4453 57.3589 99.1942C59.354 98.7066 61.2642 97.9204 63.268 97.4669C64.1687 97.2629 65.0559 96.9897 65.9572 96.7991C66.7868 96.6236 67.4333 96.1572 68.2648 96.5403C68.9366 96.8497 69.4725 97.3803 70.1084 97.7499C70.933 98.2292 71.8024 98.6587 72.6621 99.0713C74.3896 99.9002 76.1812 100.473 77.9875 101.095C79.8847 101.749 81.7478 102.495 83.7135 102.926C85.7285 103.369 87.7842 103.492 89.8132 103.842C93.9685 104.559 98.0887 104.881 102.307 104.907C104.439 104.92 106.57 104.668 108.697 104.697C110.581 104.724 112.218 105.148 113.939 104.147C116.691 102.548 119.882 100.138 119.814 96.6388C119.753 93.469 117.851 90.4406 116.068 87.9406C113.902 84.9046 110.814 82.7667 107.788 80.6725C104.562 78.4406 100.939 76.8985 97.5495 74.9503C95.8157 73.954 94.2167 72.882 92.3342 72.174C91.4355 71.8362 90.5588 71.4444 89.6707 71.0805C88.956 70.7877 87.9242 70.626 87.3125 70.1403C86.9308 69.8372 86.8942 69.3782 86.7935 68.9277C86.5702 67.9305 86.2196 66.9847 85.8796 66.0231C85.2233 64.1661 84.787 62.2749 84.505 60.3274C84.2361 58.4707 83.6392 56.5401 83.9483 54.6532C85.9816 56.6199 88.0709 58.5106 90.1513 60.4253C90.9309 61.1428 91.696 61.8754 92.4797 62.5885C93.0681 63.1239 93.8038 63.9192 94.624 64.0781C95.6714 64.2811 95.2888 63.1225 96.0079 62.9429C96.4474 62.8333 97.7731 63.9501 98.1207 64.1707C100.323 65.5691 102.762 66.4551 105.185 67.4071C107.725 68.4051 110.338 69.2916 113.071 69.5428C115.596 69.7753 118.178 69.4769 120.615 68.7891C125.467 67.4191 129.038 64.1687 131.659 59.9552C134.645 55.1539 136.818 49.5296 136.642 43.7981Z" fill="#2B150A"/>
<path fill-rule="evenodd" clip-rule="evenodd" d="M62.478 33.3315C62.4772 33.3329 62.4697 33.3489 62.4697 33.3489C62.479 33.3425 62.4817 33.3368 62.478 33.3315Z" fill="#2B150A"/>
<path fill-rule="evenodd" clip-rule="evenodd" d="M62.7122 33.3936C62.694 33.2406 62.6547 33.091 62.5946 32.9443C62.434 33.199 62.2902 33.3081 62.5013 33.5778C62.5714 33.5163 62.6418 33.4551 62.7122 33.3936Z" fill="#2B150A"/>
<path fill-rule="evenodd" clip-rule="evenodd" d="M73.9022 69.7924C74.0818 69.6011 73.7676 69.529 73.6482 69.5265C73.66 69.7316 73.5584 70.2233 73.839 70.3183C73.7717 70.1327 73.7928 69.9574 73.9022 69.7924Z" fill="#2B150A"/>
<path fill-rule="evenodd" clip-rule="evenodd" d="M69.1615 29.7838C68.8526 30.3802 69.5349 30.5652 69.9298 30.2771C70.2269 30.0605 70.4027 29.5083 70.4515 29.154C70.6094 28.0078 69.8073 26.9166 69.4072 25.8994C69.304 25.6366 69.1624 24.7348 68.8295 24.7101C68.4472 24.6816 68.4189 25.5121 68.414 25.7264C68.3992 26.3725 68.5703 27.0306 68.7708 27.6405C68.9868 28.298 69.5222 29.0873 69.1615 29.7838Z" fill="#2B150A"/>
<path fill-rule="evenodd" clip-rule="evenodd" d="M70.6309 27.3919C71.8178 28.4489 72.7674 26.6885 72.6844 25.6472C72.6639 25.3893 72.4896 24.438 72.0002 24.7842C71.7545 24.958 71.964 25.5232 71.8468 25.7714C71.279 26.9743 70.7324 25.1083 70.3501 24.9618C69.885 24.7834 69.8382 25.3945 69.8389 25.7212C69.84 26.3697 70.1486 26.9625 70.6309 27.3919Z" fill="#2B150A"/>
<path fill-rule="evenodd" clip-rule="evenodd" d="M66.3223 27.5563C66.6019 27.116 66.9457 26.5255 66.9837 25.9979C67.0426 25.1781 66.565 25.2465 66.1716 25.8185C65.894 26.2227 65.6856 26.9081 65.0724 26.7377C64.3154 26.5277 64.5468 25.5097 64.123 25.0261C63.0529 26.4634 65.0779 29.5152 66.3223 27.5563Z" fill="#2B150A"/>
<path fill-rule="evenodd" clip-rule="evenodd" d="M67.9261 31.9548C68.3687 32.0504 69.5227 32.0153 69.1229 31.3375C68.6186 30.4839 66.9419 31.7419 67.9261 31.9548Z" fill="#2B150A"/>
<path fill-rule="evenodd" clip-rule="evenodd" d="M83.4325 6.49725C83.5136 6.25598 83.4023 6.21216 83.2091 6.02216C83.0262 6.191 83.2604 6.36864 83.4325 6.49725Z" fill="#2B150A"/>
<path fill-rule="evenodd" clip-rule="evenodd" d="M91.6873 50.1977C91.9794 50.2441 92.0734 50.0897 91.9691 49.7343C91.5084 49.7045 91.4146 49.859 91.6873 50.1977Z" fill="#2B150A"/>
<path fill-rule="evenodd" clip-rule="evenodd" d="M75.742 12.9191C76.0641 13.0664 75.9408 13.3685 75.9352 13.6238C76.1012 13.4436 76.4363 13.1139 76.2998 12.8549C76.0896 12.4557 75.5403 12.8269 75.742 12.9191Z" fill="#2B150A"/>
<path fill-rule="evenodd" clip-rule="evenodd" d="M64.771 7.89321C64.7219 7.7974 64.6728 7.70158 64.6237 7.60577C64.4237 7.76636 64.1149 8.19077 64.4327 8.3976C64.5631 8.23939 64.6758 8.07137 64.771 7.89321Z" fill="#2B150A"/>
<path fill-rule="evenodd" clip-rule="evenodd" d="M68.636 10.7104C69.0368 11.0246 68.8445 10.06 68.8325 9.98132C68.7729 10.0944 68.4336 10.5516 68.636 10.7104Z" fill="#2B150A"/>
<path fill-rule="evenodd" clip-rule="evenodd" d="M68.4134 10.2206C68.3829 10.141 68.352 10.0611 68.3214 9.98132C68.1589 10.1318 67.96 10.4388 68.2283 10.6148C68.3019 10.4916 68.3635 10.3601 68.4134 10.2206Z" fill="#2B150A"/>
<path fill-rule="evenodd" clip-rule="evenodd" d="M70.9587 13.5328C70.9914 13.5629 71.0241 13.5932 71.0567 13.6236C71.1889 13.3569 71.0386 13.1567 70.7891 13.1485C70.8068 13.2982 70.8633 13.4263 70.9587 13.5328Z" fill="#2B150A"/>
<path fill-rule="evenodd" clip-rule="evenodd" d="M60.221 43.5283C60.38 43.4201 60.5243 43.2966 60.6541 43.158C60.1836 42.8705 60.4655 43.4938 59.8992 43.111C59.7773 43.2797 59.9765 43.6572 60.221 43.5283Z" fill="#2B150A"/>
<path fill-rule="evenodd" clip-rule="evenodd" d="M79.991 69.6847C80.1699 69.4101 80.2022 69.4181 79.9579 69.2097C79.7541 69.549 79.7751 69.4618 79.991 69.6847Z" fill="#2B150A"/>
<path fill-rule="evenodd" clip-rule="evenodd" d="M42.6006 25.9883C42.698 26.0898 42.7954 26.1915 42.8928 26.2928C42.9382 26.16 43.1862 25.7843 43.0177 25.6594C42.8788 25.769 42.7396 25.8785 42.6006 25.9883Z" fill="#2B150A"/>
<path fill-rule="evenodd" clip-rule="evenodd" d="M46.0637 26.9931C45.9082 26.9672 45.5362 26.8538 45.4502 26.9984C45.6778 27.1848 46.191 27.0145 46.0637 26.9931Z" fill="#2B150A"/>
</svg>
