<svg width="23" height="24" viewBox="0 0 23 24" fill="none" xmlns="http://www.w3.org/2000/svg">
<path d="M21.2207 13.9312C20.6589 15.7651 19.533 17.3751 18.0033 18.5321C16.6602 19.5429 15.062 20.1594 13.388 20.3124C11.714 20.4653 10.0305 20.1487 8.52647 19.3981C7.02243 18.6474 5.75738 17.4924 4.8733 16.0627C3.98922 14.633 3.52112 12.9852 3.52153 11.3042C3.51548 9.34218 4.15332 7.43235 5.33718 5.8677C6.49417 4.33796 8.10416 3.21209 9.93805 2.65031C10.0589 2.61309 10.1876 2.60953 10.3104 2.64C10.4331 2.67048 10.5452 2.73383 10.6347 2.82326C10.7241 2.91269 10.7874 3.0248 10.8179 3.14754C10.8484 3.27028 10.8448 3.39901 10.8076 3.51988C10.4066 4.84634 10.373 6.25674 10.7103 7.6008C11.0477 8.94486 11.7433 10.1722 12.7232 11.1521C13.7031 12.132 14.9305 12.8276 16.2745 13.165C17.6186 13.5023 19.029 13.4687 20.3554 13.0677C20.4763 13.0305 20.605 13.0269 20.7278 13.0574C20.8505 13.0879 20.9626 13.1512 21.0521 13.2407C21.1415 13.3301 21.2048 13.4422 21.2353 13.5649C21.2658 13.6877 21.2622 13.8164 21.225 13.9373L21.2207 13.9312Z" fill="#343330"/>
</svg>
