<svg  viewBox="0 0 17 16" fill="none" xmlns="http://www.w3.org/2000/svg">
<path d="M14.9324 13.25C13.9806 11.6044 12.5137 10.4244 10.8018 9.86499C11.6486 9.3609 12.3065 8.59279 12.6744 7.67861C13.0424 6.76444 13.1001 5.75474 12.8387 4.80459C12.5773 3.85444 12.0112 3.01636 11.2274 2.41907C10.4436 1.82178 9.48538 1.49829 8.49993 1.49829C7.51447 1.49829 6.55626 1.82178 5.77244 2.41907C4.98863 3.01636 4.42255 3.85444 4.16114 4.80459C3.89973 5.75474 3.95744 6.76444 4.32542 7.67861C4.69339 8.59279 5.35128 9.3609 6.19805 9.86499C4.48618 10.4237 3.0193 11.6037 2.06743 13.25C2.03252 13.3069 2.00936 13.3702 1.99933 13.4363C1.9893 13.5023 1.99259 13.5696 2.009 13.6343C2.02542 13.6991 2.05463 13.7598 2.09492 13.8131C2.13521 13.8663 2.18575 13.911 2.24357 13.9444C2.30138 13.9778 2.3653 13.9992 2.43156 14.0075C2.49781 14.0158 2.56505 14.0108 2.62931 13.9926C2.69358 13.9745 2.75356 13.9437 2.80573 13.902C2.8579 13.8604 2.90119 13.8087 2.93305 13.75C4.11055 11.715 6.1918 10.5 8.49993 10.5C10.8081 10.5 12.8893 11.715 14.0668 13.75C14.0987 13.8087 14.142 13.8604 14.1941 13.902C14.2463 13.9437 14.3063 13.9745 14.3705 13.9926C14.4348 14.0108 14.502 14.0158 14.5683 14.0075C14.6345 13.9992 14.6985 13.9778 14.7563 13.9444C14.8141 13.911 14.8646 13.8663 14.9049 13.8131C14.9452 13.7598 14.9744 13.6991 14.9908 13.6343C15.0073 13.5696 15.0106 13.5023 15.0005 13.4363C14.9905 13.3702 14.9673 13.3069 14.9324 13.25ZM4.99993 5.99999C4.99993 5.30776 5.2052 4.63107 5.58978 4.0555C5.97437 3.47992 6.52099 3.03132 7.16053 2.76641C7.80008 2.50151 8.50381 2.43219 9.18274 2.56724C9.86168 2.70229 10.4853 3.03563 10.9748 3.52512C11.4643 4.0146 11.7976 4.63824 11.9327 5.31718C12.0677 5.99611 11.9984 6.69984 11.7335 7.33938C11.4686 7.97892 11.02 8.52555 10.4444 8.91014C9.86885 9.29472 9.19216 9.49999 8.49993 9.49999C7.57197 9.499 6.68231 9.12993 6.02615 8.47377C5.36999 7.81761 5.00092 6.92794 4.99993 5.99999Z"/>
</svg>
