<svg width="32" height="32" viewBox="0 0 32 32" fill="none" xmlns="http://www.w3.org/2000/svg">
<path d="M28 16C28 16.2652 27.8946 16.5196 27.7071 16.7071C27.5196 16.8946 27.2652 17 27 17L14 17C13.7348 17 13.4804 16.8946 13.2929 16.7071C13.1054 16.5196 13 16.2652 13 16C13 15.7348 13.1054 15.4804 13.2929 15.2929C13.4804 15.1054 13.7348 15 14 15L27 15C27.2652 15 27.5196 15.1054 27.7071 15.2929C27.8946 15.4804 28 15.7348 28 16ZM14 8.99999L27 8.99999C27.2652 8.99999 27.5196 8.89464 27.7071 8.7071C27.8946 8.51956 28 8.26521 28 7.99999C28 7.73478 27.8946 7.48042 27.7071 7.29289C27.5196 7.10535 27.2652 6.99999 27 6.99999L14 6.99999C13.7348 6.99999 13.4804 7.10535 13.2929 7.29289C13.1054 7.48042 13 7.73478 13 7.99999C13 8.26521 13.1054 8.51956 13.2929 8.7071C13.4804 8.89464 13.7348 8.99999 14 8.99999ZM27 23L5 23C4.73478 23 4.48043 23.1054 4.29289 23.2929C4.10536 23.4804 4 23.7348 4 24C4 24.2652 4.10536 24.5196 4.29289 24.7071C4.48043 24.8946 4.73478 25 5 25L27 25C27.2652 25 27.5196 24.8946 27.7071 24.7071C27.8946 24.5196 28 24.2652 28 24C28 23.7348 27.8946 23.4804 27.7071 23.2929C27.5196 23.1054 27.2652 23 27 23ZM4.6175 17.9237C4.8002 17.9995 5.00128 18.0195 5.1953 17.981C5.38932 17.9425 5.56757 17.8473 5.7075 17.7075L10.7075 12.7075C10.8005 12.6146 10.8742 12.5043 10.9246 12.3829C10.9749 12.2615 11.0008 12.1314 11.0008 12C11.0008 11.8686 10.9749 11.7385 10.9246 11.6171C10.8742 11.4957 10.8005 11.3854 10.7075 11.2925L5.7075 6.29249C5.56764 6.15248 5.38939 6.05712 5.19531 6.01846C5.00122 5.97981 4.80003 5.99962 4.61721 6.07537C4.43439 6.15112 4.27815 6.27942 4.16828 6.44401C4.05841 6.60861 3.99984 6.8021 4 6.99999L4 17C4.00004 17.1978 4.05873 17.3911 4.16864 17.5555C4.27856 17.72 4.43476 17.8481 4.6175 17.9237Z" fill="#1A0D05"/>
</svg>
