<svg width="83" height="31" viewBox="0 0 83 31" fill="none" xmlns="http://www.w3.org/2000/svg">
<rect width="83" height="31" fill="#332924"/>
<path d="M8 8H21.4724V11.7294L20.6637 11.5852C20.6637 9.77198 19.4012 8.78297 16.5805 8.76236V18.0549C16.5805 19.3942 16.5608 21.0632 16.8567 21.5989C17.0342 21.9286 17.5273 22.0934 17.6654 22.114C17.8627 22.1346 18.3952 22.1552 18.8292 22.1552L18.9673 23H10.5248L10.6432 22.1552C11.0772 22.1552 11.6097 22.1346 11.807 22.114C11.9451 22.0934 12.4382 21.9286 12.6157 21.5989C12.9116 21.0632 12.9116 19.3942 12.9116 18.0549V8.76236C10.0909 8.78297 8.80874 9.77198 8.80874 11.5852L8 11.7294V8Z" fill="#FAF7F5"/>
<path d="M30.6054 21.8255C30.8618 22.0316 31.493 22.1552 32.1242 22.1552L32.2426 23H24.5497L24.6878 22.1552C25.102 22.1552 25.5162 22.1346 25.6543 22.114C26.0291 22.0522 26.4433 21.5783 26.4828 20.9396C26.5222 20.4038 26.5814 19.3118 26.5814 18.0549V12.9451C26.5814 11.544 26.542 10.5549 26.4631 10.0192C26.3842 9.4217 26.3053 9.23626 26.2066 9.15385C25.9699 8.96841 25.3387 8.84478 24.6878 8.84478L24.5497 8H32.2623L32.1045 8.84478C31.6114 8.84478 30.9407 8.86538 30.6251 9.15385C30.3489 9.4011 30.2306 10.4931 30.2306 12.9451V18.0549C30.2306 19.8269 30.3095 20.6923 30.3489 21.0014C30.4081 21.4753 30.487 21.7225 30.6054 21.8255Z" fill="#FAF7F5"/>
<path d="M46.7116 15.5206C47.4611 15.9739 48.2896 17.169 48.2896 18.6731C48.2896 22.2788 44.956 23 42.155 23H35.4681L35.6062 22.1552C35.8626 22.1552 36.7503 22.1552 36.9673 21.9492C37.204 21.7225 37.3618 21.2486 37.4012 20.919C37.4604 20.4657 37.4801 19.4973 37.4801 18.0549V12.9451C37.4801 10.4519 37.3618 9.62775 37.2434 9.38049C37.1251 9.15385 36.8095 8.9272 36.5728 8.88599C36.4347 8.86538 35.981 8.86538 35.6062 8.86538L35.4681 8H41.938C46.0804 8 47.3033 9.75137 47.3033 11.5646C47.3033 13.728 45.2124 14.717 42.5101 14.717V14.8201C44.4037 14.8201 45.9423 15.0467 46.7116 15.5206ZM41.1688 8.76236V14.408C43.0427 14.408 43.3385 12.8832 43.3385 11.5646C43.3385 9.52473 42.7073 8.76236 41.1688 8.76236ZM41.6422 22.2376C44.0289 22.2376 44.3248 20.5275 44.3248 18.6731C44.3248 17.6429 43.9697 15.1703 41.1688 15.1703V18.364C41.1688 19.9505 41.2082 21.1456 41.2871 21.5577C41.3463 21.8874 41.4844 22.2376 41.6422 22.2376Z" fill="#FAF7F5"/>
<path d="M61.5811 21.9904C62.9027 21.4547 63.0802 20.2802 63.0802 19.2706L63.8889 19.1264V23H51.1464V21.3929L59.8058 8.76236C58.6814 8.76236 55.6832 8.78297 54.7956 8.90659C53.6909 9.05082 53.257 9.27747 52.9414 9.8956C52.8033 10.1841 52.6455 11.3791 52.6455 11.75L51.817 11.8942V8H63.9876V9.44231L55.052 22.2376H57.9911C59.431 22.2376 60.9301 22.2582 61.5811 21.9904Z" fill="#FAF7F5"/>
<path d="M73.3431 21.8255C73.5995 22.0316 74.2307 22.1552 74.8619 22.1552L74.9803 23H67.2874L67.4255 22.1552C67.8397 22.1552 68.2539 22.1346 68.392 22.114C68.7668 22.0522 69.181 21.5783 69.2205 20.9396C69.2599 20.4038 69.3191 19.3118 69.3191 18.0549V12.9451C69.3191 11.544 69.2797 10.5549 69.2008 10.0192C69.1218 9.4217 69.0429 9.23626 68.9443 9.15385C68.7076 8.96841 68.0764 8.84478 67.4255 8.84478L67.2874 8H75L74.8422 8.84478C74.3491 8.84478 73.6784 8.86538 73.3628 9.15385C73.0866 9.4011 72.9683 10.4931 72.9683 12.9451V18.0549C72.9683 19.8269 73.0472 20.6923 73.0866 21.0014C73.1458 21.4753 73.2247 21.7225 73.3431 21.8255Z" fill="#FAF7F5"/>
</svg>
