<svg width="16" height="17" viewBox="0 0 16 17" fill="none" xmlns="http://www.w3.org/2000/svg">
<path d="M8 3C6.81331 3 5.65328 3.35189 4.66658 4.01118C3.67989 4.67047 2.91085 5.60754 2.45673 6.7039C2.0026 7.80026 1.88378 9.00666 2.11529 10.1705C2.3468 11.3344 2.91825 12.4035 3.75736 13.2426C4.59648 14.0818 5.66558 14.6532 6.82946 14.8847C7.99335 15.1162 9.19975 14.9974 10.2961 14.5433C11.3925 14.0892 12.3295 13.3201 12.9888 12.3334C13.6481 11.3467 14 10.1867 14 9C13.9982 7.40926 13.3655 5.88419 12.2406 4.75937C11.1158 3.63454 9.59074 3.00182 8 3ZM8 14C7.0111 14 6.0444 13.7068 5.22215 13.1573C4.39991 12.6079 3.75904 11.827 3.38061 10.9134C3.00217 9.99979 2.90315 8.99445 3.09608 8.02455C3.289 7.05464 3.76521 6.16373 4.46447 5.46447C5.16373 4.7652 6.05465 4.289 7.02455 4.09607C7.99446 3.90315 8.99979 4.00216 9.91342 4.3806C10.8271 4.75904 11.6079 5.3999 12.1574 6.22215C12.7068 7.04439 13 8.01109 13 9C12.9985 10.3256 12.4713 11.5965 11.5339 12.5339C10.5965 13.4712 9.32563 13.9985 8 14ZM10.8538 6.14625C10.9002 6.19269 10.9371 6.24783 10.9623 6.30853C10.9874 6.36923 11.0004 6.43429 11.0004 6.5C11.0004 6.56571 10.9874 6.63077 10.9623 6.69147C10.9371 6.75217 10.9002 6.80731 10.8538 6.85375L8.35375 9.35375C8.3073 9.40021 8.25215 9.43705 8.19145 9.4622C8.13075 9.48734 8.0657 9.50028 8 9.50028C7.93431 9.50028 7.86925 9.48734 7.80855 9.4622C7.74786 9.43705 7.69271 9.40021 7.64625 9.35375C7.5998 9.30729 7.56295 9.25214 7.53781 9.19145C7.51266 9.13075 7.49972 9.0657 7.49972 9C7.49972 8.9343 7.51266 8.86925 7.53781 8.80855C7.56295 8.74786 7.5998 8.6927 7.64625 8.64625L10.1463 6.14625C10.1927 6.09976 10.2478 6.06288 10.3085 6.03772C10.3692 6.01256 10.4343 5.99961 10.5 5.99961C10.5657 5.99961 10.6308 6.01256 10.6915 6.03772C10.7522 6.06288 10.8073 6.09976 10.8538 6.14625ZM6 1.5C6 1.36739 6.05268 1.24021 6.14645 1.14645C6.24022 1.05268 6.36739 1 6.5 1H9.5C9.63261 1 9.75979 1.05268 9.85356 1.14645C9.94732 1.24021 10 1.36739 10 1.5C10 1.63261 9.94732 1.75979 9.85356 1.85355C9.75979 1.94732 9.63261 2 9.5 2H6.5C6.36739 2 6.24022 1.94732 6.14645 1.85355C6.05268 1.75979 6 1.63261 6 1.5Z" fill="#FAF7F5"/>
</svg>
