<svg width="156" height="118" viewBox="0 0 156 118" fill="none" xmlns="http://www.w3.org/2000/svg">
<mask id="mask0_75_30403" style="mask-type:alpha" maskUnits="userSpaceOnUse" x="0" y="0" width="156" height="118">
<rect width="155.133" height="118" fill="#D9D9D9"/>
</mask>
<g mask="url(#mask0_75_30403)">
<path fill-rule="evenodd" clip-rule="evenodd" d="M28.9304 65.9775C30.1407 64.7312 31.3701 63.5031 32.6104 62.2864C34.9464 64.1272 37.2826 65.968 39.6186 67.8089C40.2152 68.2789 40.8116 68.7489 41.408 69.2189C42.0555 69.7291 42.7029 70.2392 43.3504 70.7493C43.4177 70.8025 43.5027 70.8802 43.5974 70.9668C43.8994 71.2428 44.2984 71.6076 44.5279 71.5419C44.8632 71.4459 45.3404 70.8086 45.7023 70.3255C45.8465 70.1329 45.9724 69.9651 46.0636 69.8656C46.5686 69.3141 47.0734 68.7627 47.5783 68.2113C48.0834 67.66 48.5883 67.1086 49.0931 66.5572L49.1011 66.5485C52.8145 62.4943 56.5278 58.44 60.241 54.3857C60.7406 54.8898 61.2414 55.3924 61.7432 55.8939C62.0684 56.2191 62.3932 56.5453 62.7183 56.8717C64.5747 58.735 66.4365 60.6039 68.4008 62.3494C69.5583 63.3781 70.9109 64.082 72.3114 64.7276C73.0558 65.071 73.8106 65.3919 74.5713 65.6981C74.641 65.7262 74.7601 65.7598 74.8977 65.7986C75.2322 65.8927 75.6758 66.0177 75.7849 66.1696C75.9699 66.4276 75.8464 67.2297 75.7557 67.8186C75.7225 68.0351 75.6935 68.2229 75.6861 68.344C75.5975 69.776 75.5089 71.2081 75.4203 72.6401L75.4167 72.7023C75.4054 72.8839 75.4044 73.0782 75.4032 73.2765C75.401 73.7131 75.3984 74.1693 75.2869 74.5535C75.2021 74.8457 75.0245 75.1457 74.8551 75.4316C74.7752 75.5665 74.6971 75.6984 74.6314 75.8247C72.092 80.7195 69.5047 85.6161 66.5948 90.303C65.9685 91.3118 65.3278 92.3181 64.6128 93.2672C64.5582 93.3394 64.5009 93.4184 64.4412 93.5007C64.1132 93.9527 63.7063 94.5137 63.2222 94.7126C62.6168 94.9617 61.8293 94.5879 61.2629 94.3194C61.2259 94.3017 61.1898 94.2846 61.1548 94.2681C60.0442 93.7463 59.0004 93.074 57.9821 92.3936C55.5285 90.7542 53.1908 88.939 50.8946 87.088C50.6332 86.8774 50.376 86.6568 50.1183 86.4359C49.6845 86.0639 49.2492 85.6908 48.7902 85.3611C48.5962 85.2219 48.5627 85.1613 48.5211 85.1548C48.4877 85.1497 48.4488 85.1791 48.3181 85.2305C48.0343 85.342 47.7164 85.7072 47.4433 86.0208C47.3225 86.1598 47.2101 86.2887 47.1136 86.3808C46.7439 86.7339 46.3742 87.087 46.0046 87.4401C45.6349 87.7931 45.2652 88.1463 44.8954 88.4995C42.8785 90.4255 40.8615 92.3518 38.8449 94.2781C38.1632 94.9291 37.4816 95.58 36.8 96.2309C35.4368 97.533 34.0735 98.8349 32.7103 100.137C32.333 100.497 31.9559 100.857 31.5787 101.218C31.1811 101.597 30.7836 101.977 30.386 102.357C30.2517 102.485 30.1145 102.634 29.9732 102.788C29.679 103.108 29.3686 103.445 29.0362 103.646C28.8541 103.756 28.8147 103.822 28.7761 103.821C28.7359 103.821 28.6967 103.748 28.4974 103.577C27.8936 103.059 27.3375 102.463 26.7858 101.871C26.512 101.577 26.2392 101.285 25.962 101.003C25.505 100.539 25.048 100.075 24.591 99.6113C24.1007 99.1135 23.6102 98.6155 23.1199 98.1177C23.0537 98.0504 22.9804 97.9866 22.9086 97.9243C22.6872 97.7316 22.4802 97.5514 22.5383 97.3192C22.6045 97.0549 22.9927 96.6913 23.3027 96.4011C23.4318 96.2803 23.5473 96.1723 23.6202 96.0893L25.6958 93.7298L31.3933 87.2529C32.6422 85.8333 33.8907 84.4138 35.1396 82.9942C36.481 81.4692 37.8222 79.9441 39.1639 78.4191C37.8669 77.6086 36.57 76.7979 35.273 75.9874L35.2704 75.9857C33.3527 74.7872 31.4349 73.5885 29.5174 72.3896C29.2801 72.2414 29.0197 72.0975 28.753 71.9502C28.0306 71.5508 27.2615 71.1258 26.7798 70.5192C26.1248 69.6941 26.1174 69.0742 26.7548 68.3146C27.3666 67.5854 28.0339 66.8994 28.698 66.2168C28.7754 66.137 28.8529 66.0573 28.9304 65.9775ZM62.4733 74.5326L62.6953 73.7558L62.0341 74.2197L55.5926 78.7402L55.2856 78.9556L55.5747 79.1947L59.7402 82.6401L60.0775 82.919L60.1975 82.4983L62.4733 74.5326ZM56.2282 78.993L61.7014 75.1522L59.7678 81.9205L56.2282 78.993Z" fill="#7F5539"/>
<path fill-rule="evenodd" clip-rule="evenodd" d="M137.892 59.9605C137.223 60.5079 136.638 61.2414 135.779 60.7407C134.984 60.2775 134.31 59.5596 133.596 58.9854C132.793 58.3404 131.972 57.7191 131.158 57.0894C130.131 56.2953 130.606 56.0611 131.158 55.0656C131.663 54.1564 132.054 53.1431 132.48 52.194C132.678 51.7529 132.828 51.317 132.966 50.8553C133.091 50.4372 133.522 50.1164 133.593 49.7329C133.835 48.4244 129.174 48.222 129.35 47.5595C130.102 47.6318 131.21 47.9634 131.889 47.5114C132.687 46.9804 132.447 46.3699 131.671 46.1057C129.759 45.4561 127.768 44.4786 126.103 43.3263C126.871 43.4566 133.469 44.9999 132.736 42.9147C132.571 42.4448 131.846 42.3505 131.444 42.194C130.806 41.9459 130.206 41.6167 129.609 41.285C128.98 40.9353 128.355 40.5795 127.734 40.2155C127.299 39.9602 126.385 39.6512 126.105 39.2497C125.821 38.8421 126.654 39.2146 126.806 39.2597C127.466 39.4571 128.135 39.631 128.803 39.7983C129.988 40.0953 131.18 40.2676 132.404 40.1518C133.328 40.0645 135.11 39.6501 135.463 38.656C135.668 38.0798 135.631 37.3325 135.764 36.729C135.92 36.0242 136.156 35.3389 136.365 34.6488C136.594 35.1913 136.992 35.6511 137.246 36.1837C137.499 36.7164 137.787 37.2256 138.094 37.7338C138.711 38.7535 139.505 39.5811 140.155 40.5501C140.891 41.6468 141.643 42.8057 142.479 43.8273C143.207 44.7166 143.737 45.6472 144.02 46.7695C144.597 49.0618 144.35 51.3373 143.31 53.4567C142.7 54.6984 141.826 55.7686 140.917 56.8007C139.958 57.8887 139.018 59.0395 137.892 59.9605ZM129.685 52.3503C127.976 52.1315 126.251 51.5929 124.572 51.1941C123.611 50.9655 122.659 50.7013 121.707 50.4386C121.032 50.2522 120.069 50.1752 119.459 49.8297C119.072 49.611 119.09 49.6391 119.161 49.1661C119.23 48.7143 119.342 48.2642 119.43 47.8158C119.593 46.9888 119.75 46.161 119.908 45.3331C120.261 43.4773 120.615 41.6229 120.908 39.7562C121.201 37.8832 121.547 36.0194 121.88 34.1534C122.035 33.286 122.194 32.4184 122.314 31.5455C122.405 30.8788 122.249 29.5827 123.038 29.442C123.771 29.3112 124.845 29.6427 125.59 29.7232C126.5 29.8222 127.409 29.9282 128.319 30.0236C130.276 30.2288 132.238 30.368 134.195 30.5711C133.562 33.1708 133.198 35.8257 132.856 38.4765C131.199 38.1592 129.563 37.7993 127.94 37.3345C126.741 36.9913 124.978 36.3915 123.722 36.7025C122.485 37.0084 122.127 38.3717 123.006 39.2294C123.532 39.7422 124.197 40.1036 124.797 40.5174C125.229 40.8159 126.176 41.1955 126.335 41.7091C125.354 41.5212 122.058 40.5605 122.312 42.6896C122.494 44.2113 124.923 44.5375 125.645 45.6252C124.852 45.8995 123.745 46.485 124.249 47.518C124.668 48.3777 125.951 48.7265 126.765 49.0382C127.353 49.2633 127.944 49.48 128.541 49.6826C129.015 49.8435 129.702 49.9104 130.117 50.1792C130.602 50.4926 130.355 52.4359 129.685 52.3503ZM73.2135 74.4099C73.8923 74.8516 74.416 74.8932 73.9338 75.7687C73.502 76.5529 73.0905 77.3124 72.7169 78.1295C71.7385 77.3527 70.5325 77.0305 69.2986 77.0145C68.4199 77.0034 66.5091 77.1537 66.0558 78.0975C64.9534 80.3907 71.53 79.1248 72.2668 79.0218C72.1092 80.0166 71.5136 80.9513 71.0659 81.8364C70.7475 82.4664 70.3993 83.9219 69.5689 83.3633C68.4029 82.5793 66.1589 81.1683 64.9302 82.7076C63.48 84.5246 65.6308 86.5397 66.7608 87.751C67.3981 88.4339 66.8882 88.9797 66.4104 89.6784C66.1968 89.9908 65.9845 90.4855 65.5658 90.4662C65.1941 90.4492 64.5621 89.8612 64.2416 89.6664C63.3067 89.0987 62.3693 88.5346 61.4347 87.9669C60.3735 87.3224 60.1576 86.6164 59.5614 85.5952C59.3406 85.2173 58.9983 84.9651 59.2988 84.6021C59.4833 84.3792 59.9953 84.2489 60.2586 84.105C61.3005 83.5357 62.3259 82.9049 63.217 82.1151C64.5122 80.9679 66.148 78.9585 64.837 77.2564C64.2131 76.4466 64.1078 76.2754 64.4274 75.2738C64.7729 74.1906 64.8558 72.9633 65.8042 72.2355C66.4911 71.7079 67.4349 70.3732 68.3189 70.2326C68.7275 70.1676 69.2195 70.3633 69.6288 70.4191C70.1507 70.4899 70.6758 70.5342 71.2016 70.5583C71.6438 70.5788 72.3289 70.4491 72.7486 70.5587C73.2615 70.6925 73.1523 70.8286 73.1212 71.3473C73.075 72.1133 72.4506 73.9137 73.2135 74.4099ZM72.22 78.7396C71.6366 78.9548 70.8168 78.8931 70.202 78.952C69.5834 79.0112 68.9626 79.1048 68.3398 79.0997C67.6544 79.0942 65.5844 78.6892 66.9123 77.8559C67.9452 77.2081 69.433 77.2987 70.5692 77.5621C70.7893 77.613 73.2072 78.3752 72.22 78.7396ZM69.7771 84.1633C69.3629 84.8588 68.8726 85.5161 68.4356 86.198C68.2122 86.5468 67.8481 87.5549 67.4525 87.7195C66.7823 87.9985 65.3886 85.6011 65.1448 85.0565C64.5641 83.7601 65.0843 82.3328 66.6462 82.4422C67.2382 82.4841 70.1911 83.4678 69.7771 84.1633ZM64.5261 92.2572C64.1158 92.9071 63.9502 93.713 63.0379 93.6352C62.2804 93.5708 61.3502 93.1361 60.7018 92.7551C59.8179 92.2356 59.969 91.6083 60.0793 90.7218C60.1979 89.7684 60.2718 88.8089 60.3147 87.8493C62.0514 88.8831 63.788 89.9168 65.5249 90.951C65.1464 91.3495 64.819 91.793 64.5261 92.2572ZM58.6869 91.555C57.976 90.8098 56.9592 90.2746 56.1451 89.6172C55.1284 88.7963 54.0827 88.0116 53.0751 87.1794C54.0499 86.6344 55.1389 86.3556 56.1717 85.9464C57.2078 85.5356 57.5231 85.6833 58.3637 86.3707C59.1428 87.0077 59.8947 87.2429 59.848 88.3706C59.7999 89.5436 59.646 90.7224 59.5125 91.888C59.2286 91.84 58.8966 91.7749 58.6869 91.555ZM53.1943 86.6627C52.8828 86.6228 52.6751 85.7033 52.5534 85.4481C52.3168 84.9516 52.2779 84.827 52.4271 84.2795C52.5554 83.8089 52.6252 83.2021 52.9104 82.7957C53.2859 82.2598 54.0796 81.8371 54.5972 81.4413C54.3391 82.1189 54.948 82.8015 55.3206 83.3043C55.6022 83.6845 56.696 84.5366 56.7234 85.019C56.7536 85.5519 55.5323 85.8042 55.1325 85.956C54.6553 86.1374 53.7177 86.7299 53.1943 86.6627ZM52.468 86.7072C52.2122 86.5333 51.3647 86.1503 51.7606 85.757C52.2127 85.3075 52.6194 86.6377 52.468 86.7072ZM51.3653 85.6191C50.9563 85.9705 50.1478 85.1452 50.4528 84.7841C50.968 84.1735 52.0184 85.0572 51.3653 85.6191ZM60.3448 74.1965C59.5529 74.6049 58.0397 73.5884 57.3601 73.3022C56.7394 73.0409 54.621 72.54 54.4203 71.8058C57.0589 72.2182 59.716 72.6902 62.3981 72.5675C62.1258 72.9666 61.7675 73.1763 61.355 73.4078C60.9828 73.617 60.6957 74.0158 60.3448 74.1965ZM57.8413 76.0486C56.1965 77.3277 54.5375 78.6304 52.8256 79.8178C52.4035 79.0754 52.2614 78.2453 51.7589 77.5278C51.3003 76.8732 50.7153 76.3148 50.0609 75.8579C48.6663 74.884 47.0048 74.4586 45.381 74.0398C46.2525 72.9203 47.0867 71.6291 48.0843 70.622C48.913 69.7852 50.6165 70.9158 51.6146 71.1901C52.2185 71.3559 52.8659 71.3985 53.3941 71.7566C53.9377 72.125 54.39 72.557 54.991 72.8532C56.4118 73.5535 57.9556 73.9939 59.4124 74.6115C59.015 75.2085 58.3978 75.6161 57.8413 76.0486ZM50.8268 81.411C50.4563 81.705 49.9442 82.3704 49.4398 82.3846C48.9649 82.3982 48.4359 81.9133 48.0514 81.6752C46.8799 80.95 45.7076 80.2277 44.5316 79.5103C44.0054 79.1893 43.4831 78.8641 42.9646 78.5314C42.7173 78.3727 42.0008 78.0764 41.9819 77.7424C41.9641 77.4254 42.5677 77.0369 42.7776 76.8328C43.197 76.4255 43.6234 76.0223 43.998 75.5724C44.717 74.7096 45.0571 74.4405 46.2136 74.7357C47.4423 75.0492 48.5638 75.5288 49.6273 76.2197C50.7039 76.9193 51.4915 77.8376 52.0321 79.0159C52.1826 79.3436 52.433 79.8091 52.2985 80.1782C52.1152 80.6803 51.2203 81.0985 50.8268 81.411ZM37.3126 93.4975C36.74 93.3832 35.9941 92.6053 35.5378 92.2608C34.8015 91.7042 34.1702 91.028 33.6051 90.299C33.1796 89.7504 32.5368 88.9397 32.4856 88.2285C32.4126 87.2178 33.0609 87.7873 33.4432 88.215C34.5553 89.4585 35.8457 90.5438 37.1351 91.5972C37.3862 91.8023 38.2126 92.193 38.3479 92.5037C38.5211 92.9009 37.7135 93.5775 37.3126 93.4975ZM29.03 100.888C26.9859 98.5422 27.4427 95.445 28.4274 92.7681C28.9561 91.3309 30.1286 90.4069 31.1078 89.2843C31.2868 89.0793 31.626 88.4717 31.9687 88.5161C32.2906 88.5578 32.6576 89.7164 32.8181 89.9649C33.6405 91.2392 34.8009 92.3834 36.1146 93.1426C36.6838 93.4715 37.1381 93.5123 36.8504 94.1125C36.6187 94.5959 35.7775 95.095 35.3887 95.4636C34.7164 96.1013 29.6831 101.638 29.03 100.888ZM24.5317 96.6405C24.8317 96.3059 27.7853 92.8511 27.9546 92.9921C27.4611 94.4653 27.0829 95.8426 27.2351 97.4133C27.3127 98.2159 27.4813 99.0322 27.8381 99.7609C27.9722 100.035 29.0922 101.205 28.9065 101.517C28.5815 102.063 27.9508 101.122 27.7473 100.861C27.5841 100.65 27.4893 100.407 27.334 100.195C27.038 99.7932 26.6185 99.5614 26.2531 99.2298C25.6979 98.726 25.2168 98.1631 24.6272 97.6951C24.0884 97.2672 24.0771 97.1481 24.5317 96.6405ZM38.8508 82.1565C41.3662 83.3549 41.8618 86.0564 41.4195 88.5613C41.1672 89.9898 40.7151 90.7279 39.6284 91.6745C39.2394 92.0134 39.0676 92.3294 38.5808 92.1571C38.0989 91.9868 37.433 91.1459 37.0492 90.8158C35.9459 89.8663 34.8312 88.9371 33.8338 87.8756C33.1858 87.1862 33.1988 86.9784 33.8404 86.3232C34.6128 85.5346 35.3006 84.6731 36.0146 83.8269C36.7869 82.9112 37.5301 81.5272 38.8508 82.1565ZM39.3121 80.4053C39.8703 79.8169 40.4064 79.1789 40.9986 78.6245C41.5858 78.0752 41.8068 78.3386 42.4515 78.7596C43.848 79.6712 45.267 80.5556 46.7198 81.3754C47.2944 81.6997 48.0299 81.9747 48.5163 82.4311C49.0268 82.9102 48.7526 83.1461 48.2929 83.5644C47.2746 84.4908 46.1627 85.301 45.1692 86.2409C44.0968 87.2553 43.0399 88.3105 42.0313 89.3873C41.6909 89.7508 41.5255 90.102 41.537 89.4716C41.5489 88.8403 41.9087 88.1568 41.9932 87.5146C42.1662 86.1998 41.92 84.778 41.2382 83.6327C40.8612 82.9995 40.3432 82.4619 39.7177 82.0712C39.5281 81.9526 38.3695 81.5791 38.3391 81.4078C38.3185 81.2919 39.2894 80.429 39.3121 80.4053ZM27.0562 107.493C27.3033 108.762 27.7316 110.004 28.2255 111.198C28.5035 111.87 29.9822 114.128 29.5835 114.672C29.3709 114.962 28.78 114.953 28.5439 114.788C28.2443 114.579 27.9735 113.998 27.7367 113.713C26.8751 112.675 25.9047 111.756 25.211 110.587C23.8265 108.254 22.0049 106.244 20.5351 103.962C20.1853 103.419 19.828 102.882 19.466 102.347C19.1221 101.839 18.9114 101.672 19.3356 101.192C20.2665 100.139 21.5474 99.3704 22.5264 98.3393C23.909 99.981 25.4661 101.448 26.8825 103.063C27.4895 103.754 27.3548 103.866 27.0966 104.724C26.829 105.614 26.8808 106.591 27.0562 107.493ZM50.8409 67.1919C51.1786 66.7955 51.5212 66.4022 51.8432 65.9932C52.0595 65.7183 52.4969 64.7922 52.8137 64.7182C53.1899 64.6306 53.2109 64.921 53.4943 65.1763C53.8677 65.513 54.3126 65.6553 54.7955 65.7478C55.71 65.9232 56.587 65.845 57.4857 65.636C58.2766 65.4518 58.8513 64.7222 59.4043 64.1294C60.8339 62.596 62.3494 61.2149 63.7029 59.5967C64.3246 58.8535 64.5171 59.8517 64.9156 60.4007C65.5674 61.2986 66.5263 62.0097 67.3299 62.7729C67.1229 62.932 65.0363 61.8404 64.6028 61.766C63.4933 61.5751 62.4111 61.9245 61.6922 62.8095C60.2459 64.5901 61.8142 66.5985 63.1489 67.8661C61.1114 67.7984 59.1369 67.7038 57.1201 68.0901C55.6333 68.3748 52.8368 69.0641 52.9548 71.0457C51.5265 70.6951 50.0501 70.4116 48.7587 69.672C49.4516 68.8444 50.1412 68.0138 50.8409 67.1919ZM79.1015 36.4466C79.2503 37.0474 79.7342 36.854 80.1903 36.9483C80.833 37.0808 80.944 37.2324 81.5247 36.721C82.6017 35.7723 83.0534 34.4191 83.3081 33.0506C83.424 32.4286 83.6101 31.7334 83.5435 31.0987C83.483 30.5201 83.0689 30.3083 83.0407 29.7427C83.0297 29.5205 83.204 29.3861 83.0069 29.2082C82.8769 29.0912 82.1962 29.1929 82.0092 29.1807C81.4183 29.1417 80.8154 28.9673 80.595 28.3305C80.2738 27.4034 81.6066 26.3999 82.4639 26.4771C83.1241 26.5364 83.5275 27.0051 84.0037 27.3639C84.3605 27.6332 84.4145 27.7107 84.6311 27.2156C84.7825 26.8689 84.7587 26.464 84.8919 26.1107C85.1476 25.4321 85.7502 24.8834 86.1484 24.2858C86.5051 23.7502 86.7913 23.077 87.2404 22.6152C87.8127 22.0275 88.1537 22.0567 88.828 22.3777C89.4813 22.6886 90.2329 22.7234 90.9424 22.8265C91.7454 22.9429 92.4855 23.2181 93.2741 23.3768C93.8095 23.4843 94.4288 23.2641 94.611 23.8125C94.8275 24.4643 94.6463 25.5874 94.6901 26.29C93.8147 26.1201 93.544 26.1518 92.9768 26.9029C92.4569 27.5915 92.0588 28.2669 92.1249 29.1514C92.1503 29.4913 92.3653 29.9475 92.3254 30.274C92.2791 30.6545 92.3582 30.3553 92.0982 30.5885C91.9581 30.7145 91.7658 30.7017 91.6402 30.8815C91.0833 31.6812 92.2786 32.0283 92.8402 32.0984C94.8466 32.3489 93.287 29.5676 93.0609 28.7543C92.9051 28.1925 93.3856 27.3245 93.7851 28.0534C94.051 28.5383 93.9258 30.401 94.915 29.5302C95.3425 30.9772 94.8217 32.7005 94.9174 34.1919C94.9863 35.2674 95.1971 36.5873 93.9366 37.0093C92.3299 37.5475 90.7139 36.9537 89.221 36.43C87.7731 35.9221 86.7686 37.4084 86.5686 38.7102C86.4532 39.4628 86.6133 40.1192 86.9004 40.8093C87.1934 41.5142 87.0478 41.8793 86.6628 42.5081C86.236 43.2059 85.884 43.3168 85.0964 43.1413C84.3273 42.9701 83.5447 42.7685 82.8027 42.502C81.1981 41.9258 79.9909 40.8443 78.6236 39.8723C78.1444 39.5318 77.6218 39.2719 77.7875 38.6342C77.9742 37.9167 78.7234 37.0857 79.1015 36.4466ZM81.0543 34.0149C80.9118 33.5966 79.7559 33.4457 79.376 33.1281C78.7616 32.6141 78.3928 32.2403 77.5857 32.061C76.06 31.722 74.5421 31.7073 72.9913 31.7818C71.2449 31.8657 69.4988 31.9592 67.7526 32.0486C66.9614 32.0887 66.1702 32.1249 65.3788 32.153C64.7549 32.1752 64.014 32.3352 63.4019 32.1933C63.6812 31.9389 64.0324 31.9038 64.332 31.7062C64.5069 31.5905 64.5654 31.4073 64.7223 31.2863C64.7732 31.2471 65.0487 31.2039 65.1173 31.1691C65.2988 31.0777 65.49 30.9987 65.6861 30.9109C65.869 30.829 65.9927 30.6817 66.1821 30.5946C66.3772 30.5046 66.627 30.5592 66.8171 30.4685C67.3739 30.2037 67.2891 29.7568 66.8515 29.3617C67.8091 28.6842 68.2689 28.3445 69.4216 28.8759C70.5228 29.3836 71.6376 29.8384 72.8206 30.1233C73.871 30.3764 74.9715 30.3502 76.0378 30.5337C76.9926 30.6978 78.1085 30.979 78.8582 30.1736C78.9774 30.7132 79.1096 31.1974 79.702 31.3322C80.202 31.4461 80.3887 31.3337 80.7935 31.6486C81.1237 31.9058 81.3186 32.0754 81.463 32.464C81.633 32.9212 81.5735 33.0712 82.1945 32.7852C82.2376 33.1613 82.0722 34.4021 81.7783 34.6774C81.6165 34.8292 81.5235 34.8787 81.284 34.7327C80.9445 34.5256 81.1587 34.3209 81.0543 34.0149ZM38.4495 76.4374C38.1109 76.5186 37.5649 75.9286 37.3425 75.7131C36.6649 75.0556 36.9693 74.253 37.1942 73.4121C37.5488 72.0862 38.5618 69.5936 40.2106 69.4087C41.5121 69.2629 41.8436 71.3098 41.7443 72.2549C41.658 73.0713 40.8784 73.6807 40.3743 74.2816C39.9495 74.7879 39.1178 76.2775 38.4495 76.4374ZM36.2746 74.9835C35.741 74.9984 34.9057 74.0989 34.4864 73.8144C33.7385 73.3061 32.9741 72.8227 32.1635 72.4194C31.5602 72.1191 30.7344 72.0651 31.2282 71.2953C31.6434 70.6481 32.3176 70.0383 32.8513 69.4934C33.4271 68.9055 34.0478 68.3744 34.6623 67.8283C35.078 67.459 35.6898 66.6351 36.3106 66.6367C36.8454 66.6381 37.5582 67.2633 38.0093 67.5225C38.75 67.9484 39.5605 68.3545 40.1267 69.0125C38.8213 69.6602 37.8051 70.6731 37.2617 72.0345C37.1065 72.423 36.6042 74.9741 36.2746 74.9835ZM35.4028 66.6634C33.8369 68.0137 32.2612 69.3726 30.9884 71.0143C30.9127 71.1122 30.6318 71.624 30.5246 71.6441C30.4135 71.6653 29.9999 71.3395 29.8942 71.2781C29.4736 71.0349 29.0489 70.7969 28.6346 70.5426C27.8287 70.0472 28.1427 69.539 28.6002 68.7904C29.5805 67.1867 31.4983 66.2562 33.0436 65.2868C33.7962 64.8148 33.9842 64.8561 34.6478 65.3852C35.1094 65.7535 36.0682 66.0896 35.4028 66.6634ZM27.5327 69.7844C27.0544 69.7752 27.8404 68.4286 27.9241 68.2946C28.2564 67.7631 28.7346 67.3573 29.1646 66.9049C29.8367 66.1983 30.4491 65.4419 31.1145 64.7356C31.4746 64.3535 31.9257 63.3035 32.5681 63.5283C32.7565 63.5944 33.2594 64.1164 33.3051 64.3071C33.4 64.7035 33.2031 64.7161 32.8633 64.9283C32.101 65.4053 31.3581 65.9062 30.6121 66.4083C29.8807 66.9007 29.1734 67.3711 28.6301 68.0801C28.4503 68.3144 27.8374 69.7901 27.5327 69.7844ZM42.318 70.5711C43.1119 70.987 42.6915 71.499 42.2559 71.9577C42.2296 71.7942 41.9038 70.3542 42.318 70.5711ZM65.8263 28.9005C65.4333 29.0084 64.3949 28.1579 64.0539 27.9618C63.3832 27.5758 62.7129 27.1887 62.0383 26.8095C60.7747 26.099 59.5053 25.445 58.3311 24.5883C59.7771 24.211 60.708 23.5848 61.6875 22.3339C62.9245 20.7548 64.1107 19.1558 65.1194 17.4193C66.1142 15.7069 67.0482 13.9548 67.9961 12.2159C68.462 11.3616 68.9007 10.5066 69.2895 9.6144C69.6011 8.89947 69.935 7.94408 70.7782 7.70624C71.0354 9.09415 71.0845 10.374 70.689 11.7393C70.2647 13.2025 69.7516 14.6313 69.4489 16.1289C69.3105 16.8135 69.2532 17.503 69.1466 18.1915C69.0831 18.6012 68.8694 19.0769 68.8895 19.492C68.9127 19.9705 69.0729 20.3373 69.6011 20.066C70.1679 19.7747 70.4935 18.4462 70.7362 17.899C71.3219 16.5778 71.9088 15.2615 72.5987 13.9906C73.1564 12.963 73.7335 11.629 74.68 10.8835C75.6172 10.1454 75.6188 11.3093 75.5365 11.9864C75.3665 13.3821 74.8244 14.6839 74.3423 15.9928C73.8997 17.1954 73.5556 18.4159 73.1707 19.6356C73.0367 20.06 72.5121 20.9876 72.8 21.4234C73.2182 22.0572 73.8879 21.2575 74.1266 20.902C75.7099 18.5448 76.6629 15.7559 78.4355 13.5111C78.5201 13.4037 79.1187 12.513 79.2829 12.5465C79.6009 12.6111 79.1334 13.647 79.039 13.9199C78.5485 15.3394 77.8704 16.6837 77.1647 18.0058C76.5645 19.1303 75.9345 20.2393 75.372 21.3835C75.0629 22.0123 74.7834 22.6539 74.5001 23.2948C74.2432 23.875 73.6975 24.7656 73.8283 25.4316C74.0141 26.3765 76.9662 27.3376 76.3565 28.3966C75.9233 29.1495 73.5653 27.8569 72.9864 27.6627C72.2243 27.4071 71.4504 27.1844 70.6878 26.9288C70.1107 26.7352 69.4616 26.266 68.8407 26.3411C68.1829 26.4207 67.6418 26.8943 67.1984 27.3452C66.8625 27.6864 66.2922 28.7725 65.8263 28.9005ZM58.2014 34.3862C57.9922 34.5537 57.5973 34.6642 57.3547 34.7826C56.8608 35.024 56.3189 35.358 55.7932 35.5228C55.3407 35.6651 54.8383 35.6997 54.3872 35.8516C53.9592 35.996 53.6227 36.3109 53.1686 36.4311C52.6491 36.5682 52.0834 36.4851 51.5676 36.6215C51.313 36.689 51.0334 36.7763 50.7275 36.8149C49.6435 36.9518 48.596 37.0574 47.5693 37.3313C47.3067 37.4016 46.1061 37.6572 45.867 37.5065C45.3674 37.1909 46.4239 37.0555 46.6235 37.0096C48.0673 36.6779 49.4891 36.2357 50.9254 35.8704C52.3162 35.5171 53.7137 35.1828 55.0961 34.7962C56.2234 34.4813 57.5156 33.721 58.7131 33.8804C58.5507 34.0575 58.3803 34.2263 58.2014 34.3862ZM85.4515 44.5517C84.4507 46.3051 83.5597 48.0787 82.6152 49.8612C81.7389 51.5151 80.8955 53.3743 79.7685 54.8681C78.6519 56.3476 77.7138 58.0258 76.9731 59.7317C76.6301 60.5208 76.2912 61.3179 75.9728 62.1175C75.7978 62.5566 75.6448 63.0028 75.4942 63.4509C75.3771 63.7988 75.3017 64.4704 75.0705 64.7378C74.8851 64.952 75.0342 64.9372 74.6852 64.9C74.324 64.8614 74.015 64.4593 73.7438 64.2563C73.0358 63.727 72.1866 63.3787 71.4175 62.9462C69.9342 62.1121 68.279 60.9984 67.2468 59.6276C66.8126 59.0509 66.3474 58.4672 65.9441 57.8695C65.4479 57.1339 65.5647 56.7513 66.02 56.0109C67.0156 54.3918 68.047 52.8134 69.1001 51.2319C70.3531 49.3508 71.5814 47.45 72.9071 45.6187C74.2487 43.7665 75.6526 41.97 76.8546 40.0197C78.0049 41.5396 79.0476 43.0137 80.7716 43.9344C82.2983 44.7498 83.7867 44.9298 85.4515 44.5517ZM74.1166 67.2572C73.8271 68.1753 72.556 68.0455 71.741 68.1932C70.6664 68.3877 69.5959 68.64 68.5023 68.7008C68.959 67.8887 69.5137 67.0134 69.5855 66.0599C69.6772 64.8422 68.7582 64.5065 68.3809 63.5328C69.4301 63.8625 70.2218 64.8634 71.279 65.2723C72.3217 65.6756 73.3093 66.152 74.3868 66.4139C74.297 66.6951 74.2055 66.9757 74.1166 67.2572ZM57.5691 79.4249C57.0856 79.0162 58.3087 78.3379 58.566 78.1253C59.2735 77.5411 59.9818 76.9577 60.6802 76.3629C60.1146 77.7205 59.5488 79.0781 58.9831 80.4357C58.5104 80.1015 58.0124 79.7995 57.5691 79.4249ZM52.2933 83.5099C52.2243 83.7084 52.0779 84.4488 51.7662 84.3163C51.3392 84.1347 52.0279 83.3299 52.2933 83.5099ZM61.9222 72.2245C59.3545 72.0097 56.794 71.8075 54.2597 71.3169C53.7046 71.2094 53.2681 70.9713 53.4511 70.3169C53.5953 69.8026 54.1521 69.5958 54.586 69.369C55.6923 68.7908 56.9119 68.5319 58.1424 68.3733C60.5997 68.0566 63.0817 68.1484 65.3322 69.2349C65.7005 69.4127 66.3942 69.5546 66.1391 70.023C65.9893 70.2986 65.2218 70.6154 64.9762 70.7747C63.9621 71.4335 63.1987 72.3316 61.9222 72.2245ZM58.0809 84.7273C57.1755 85.7499 55.2196 82.3862 55.0493 81.8894C55.5163 82.1057 58.4879 84.2675 58.0809 84.7273ZM59.0821 85.6853C59.2027 85.8806 59.7691 86.5192 59.3388 86.5123C58.9533 86.5061 58.0894 85.5458 57.8194 85.3346C58.5034 84.9448 58.6714 85.0206 59.0821 85.6853ZM59.8359 83.8815C59.5665 84.0449 59.2235 84.3584 58.8829 84.3226C58.4581 84.2782 58.0427 83.6686 57.7623 83.4065C57.2861 82.9612 56.7898 82.538 56.2738 82.1395C56.0765 81.9868 55.1376 81.5164 55.1104 81.2062C55.0905 80.9785 55.6261 80.5045 55.8267 80.4737C56.2384 80.41 56.5878 80.8971 56.8648 81.1408C57.8787 82.0327 58.8568 82.9517 59.8359 83.8815ZM62.6722 79.6192C62.7284 79.2827 62.7015 79.2615 62.9362 78.895C63.1873 78.5026 63.2958 78.0664 63.5051 77.6559C63.9657 76.7525 64.5699 77.4424 64.8116 78.1618C65.4385 80.0279 62.912 82.0905 61.5596 82.8959C61.4212 82.1329 61.3967 81.8232 61.7495 81.1371C61.8836 80.8763 62.0069 80.6124 62.1375 80.3507C62.2338 80.1578 62.6443 79.7867 62.6722 79.6192ZM73.5946 68.2822C73.9874 68.5729 73.276 69.9715 72.9517 70.1131C72.2878 70.4024 71.0915 70.0906 70.3982 70.0204C69.9366 69.9738 69.4484 69.9589 68.9933 69.8686C68.5711 69.7846 68.5069 69.5471 68.1848 69.394C67.7191 69.1725 67.276 69.4681 66.7578 69.2853C66.0285 69.0282 65.3456 68.5037 64.6145 68.2028C63.7275 67.8377 63.1245 67.2806 62.5541 66.5172C61.7338 65.4194 61.0435 63.8453 62.2592 62.7365C64.4037 60.7799 69.6008 63.651 69.0543 66.512C68.912 67.2566 68.3958 67.7936 68.1169 68.4742C67.8153 69.2112 68.218 69.1901 68.9074 69.0892C69.8095 68.9568 70.7088 68.769 71.6064 68.6091C71.8967 68.5576 73.3108 68.0728 73.5946 68.2822ZM28.6269 64.5648C28.2686 64.9036 27.9471 65.2869 27.4999 65.5107C27.0491 65.7364 26.5318 65.7746 26.0691 65.9709C25.1314 66.3685 24.3581 67.1911 23.6832 67.9289C22.1128 69.6457 20.9612 71.6662 19.594 73.5368C18.8908 72.8689 18.1547 72.1881 17.662 71.341C17.222 70.5843 17.5461 70.0462 17.9047 69.3212C18.9118 67.2849 19.8739 65.2187 21.2797 63.418C21.9498 62.56 22.669 61.7363 23.3802 60.9124C24.0044 60.1899 24.4458 60.0346 25.3958 60.2829C27.4612 60.8224 29.4582 61.5338 31.5431 62.0246C30.5291 62.8218 29.5637 63.6786 28.6269 64.5648ZM139.048 64.0525C138.775 63.6787 138.476 63.3247 138.18 62.969C138.025 62.7834 137.454 62.2988 137.431 62.0618C137.404 61.7797 138.639 61.0112 138.861 60.8047C140.192 59.5645 141.38 58.1115 142.502 56.6823C144.533 54.0952 145.868 51.1825 145.761 47.8363C145.708 46.1707 145.381 44.5804 144.516 43.1442C144.012 42.3073 143.403 41.5397 142.892 40.7073C142.48 40.0356 142.125 39.3773 141.606 38.7753C140.572 37.5745 139.934 36.1518 139.053 34.8446C138.404 33.8828 137.494 32.1953 136.083 32.6201C136.129 31.731 136.056 30.9622 135.873 30.0945C135.699 29.2634 135.948 28.8337 134.943 28.653C132.99 28.3018 130.95 28.1966 128.975 28.0295C127.129 27.8734 125.281 27.7891 123.449 27.5177C121.58 27.2411 120.532 28.7778 120.015 30.3846C119.041 33.4087 118.893 36.6406 118.549 39.6965C118.334 41.6108 118.119 43.5291 117.898 45.4424C117.687 47.2713 117.209 49.1665 117.236 51.0141C117.253 52.1791 118.708 52.0519 119.587 52.189C120.679 52.3589 121.775 52.5008 122.867 52.6728C125.14 53.0306 127.452 53.5395 129.686 54.0925C129.509 54.4927 129.331 54.8929 129.153 55.2933C128.81 55.0151 128.446 54.5353 127.958 54.7254C127.262 54.9966 127.771 55.6001 127.605 55.9763C127.457 56.3122 126.463 56.6301 126.14 56.7542C125.414 57.0345 124.658 57.1531 123.886 57.2189C120.831 57.4807 117.831 56.8967 114.855 56.2313C111.671 55.5189 108.788 54.1958 105.819 52.8695C104.309 52.195 102.957 51.2671 101.546 50.4154C100.187 49.5949 98.7554 48.8521 97.5156 47.8555C94.9792 45.8164 92.3434 43.5935 90.4949 40.8836C90.2924 40.5871 90.1365 40.2115 89.8989 39.9435C89.7083 39.7285 89.4719 39.6701 89.2651 39.4959C88.8207 39.1216 88.9354 38.5163 88.2696 38.55C87.9365 38.5669 87.6557 38.8582 87.7312 38.3106C87.8273 37.614 88.6624 38.2511 89.0557 38.3985C90.3799 38.8947 91.9003 38.8112 93.2696 38.5681C94.6376 38.3252 95.543 37.5406 96.0746 36.2447C96.6059 34.9492 96.3817 33.5188 96.4855 32.157C96.5361 31.498 96.6311 30.84 96.6287 30.1778C96.6273 29.8241 96.5102 29.3759 96.6766 29.1777C96.87 28.9472 97.1031 28.9624 97.2756 28.6233C97.3206 28.5351 97.2711 28.414 97.3243 28.3208C97.4093 28.1723 97.5524 28.1114 97.6485 27.9792C97.8686 27.6761 97.923 27.4064 97.9822 27.0435C98.0196 26.817 98.1445 26.4111 98.1139 26.1862C98.0603 25.7918 97.6833 25.5755 97.6283 25.1751C97.5411 24.5417 97.9933 23.8081 98.0068 23.1518C98.0257 22.2282 97.4546 22.6395 97.1263 22.0294C96.8459 21.5074 97.4319 20.8968 97.2982 20.3767C97.1099 19.644 96.2086 19.8128 95.6821 19.5424C94.9892 19.1866 95.7777 18.7708 95.346 18.257C94.9563 17.7932 93.5116 18.1078 92.9956 18.2167C93.0181 17.7476 93.1923 17.0765 92.6429 16.8566C92.0662 16.6259 91.2611 17.328 90.6938 17.3136C90.4961 17.3084 90.4519 17.4005 90.2786 17.3204C90.055 17.2166 90.0617 16.7562 89.7711 16.6237C89.1846 16.3567 88.6799 16.9989 88.317 17.3812C87.8665 16.8108 87.5387 16.4272 86.8312 16.8251C86.1387 17.2146 86.3037 16.9098 85.5832 16.5681C84.9624 16.2733 84.4694 16.6617 83.9739 17.0288C83.6661 17.2573 83.605 17.4119 83.4424 17.7318C83.2377 18.135 83.2414 18.1311 82.8053 18.2883C82.0445 18.5632 81.4823 19.1264 80.8941 19.6641C80.2667 20.2379 79.6285 20.6971 79.2347 21.4647C78.9908 21.9395 78.52 22.4543 78.6878 23.0077C78.7543 23.2272 79.0429 23.4143 79.0886 23.6127C79.1756 23.9915 78.879 24.1621 78.8194 24.5388C78.7749 24.8207 78.9486 25.0162 78.9489 25.2791C78.949 25.5652 78.7838 25.7572 78.6909 26.0184C78.4159 26.7918 78.393 27.2699 77.5783 26.5589C77.0756 26.1203 76.4216 25.7771 75.9812 25.2764C75.4615 24.6859 75.6207 24.2337 75.8975 23.5778C77.2923 20.2724 79.3032 17.1615 80.2952 13.7024C80.5131 12.9427 81.3978 9.83505 79.5049 10.9196C77.9087 11.8345 76.939 13.8759 75.9292 15.3338C75.8388 14.2077 76.5491 13.0043 76.7203 11.8954C76.8469 11.0763 76.9266 8.84635 75.6392 8.95063C74.6247 9.03291 73.6461 10.3159 73.1161 11.0597C72.2772 12.2362 71.6622 13.5528 70.9353 14.7974C71.006 14.1238 71.3098 13.507 71.5185 12.8707C71.7802 12.0727 71.9508 11.2421 72.0395 10.4073C72.117 9.67796 72.1281 8.94223 72.0778 8.21038C72.0396 7.65086 72.0752 6.53891 71.6808 6.10421C70.6655 4.9856 69.1119 7.31887 68.7361 8.05045C67.9571 9.56698 67.2381 11.078 66.3592 12.5453C64.6422 15.4124 63.0877 18.3293 61.2041 21.0961C60.7864 21.7094 60.4877 22.2317 59.7933 22.5447C59.1814 22.8201 58.4792 23.1774 57.8091 23.2005C56.2918 23.2531 54.8558 23.4832 53.3822 23.8817C51.8039 24.3085 50.1961 24.7297 48.6729 25.3266C47.9722 25.6013 47.2757 25.9566 46.558 26.1795C45.9103 26.3807 45.2989 26.4457 44.6774 26.759C41.7081 28.2561 38.9895 29.9148 36.4363 32.0587C34.3401 33.8188 32.0684 36.6486 34.0173 39.3659C34.9125 40.6143 36.356 41.0584 37.7235 41.5914C39.1377 42.1427 40.5144 42.1669 42.0256 42.2381C43.9033 42.3269 45.7687 42.508 47.6433 42.6219C49.5191 42.7358 51.4051 42.6786 53.284 42.7778C55.1399 42.8753 56.9492 42.8261 58.7993 42.6512C60.6348 42.4777 62.4072 42.0389 64.2278 41.8246C62.974 43.1448 61.5384 44.2703 60.2343 45.5396C59.0389 46.7035 57.8938 47.9125 56.7982 49.1697C55.7032 50.4262 54.2948 51.2759 53.1508 52.481C52.0346 53.6563 50.881 54.7833 49.743 55.9357C49.2326 56.4527 48.5694 56.947 48.2853 57.6427C48.0732 58.1622 48.4236 58.7185 48.7218 59.1943C49.1824 59.9295 51.3068 61.3599 50.9631 62.2696C50.7757 62.766 50.0135 63.272 49.6536 63.6761C49.0606 64.3423 48.4721 65.0125 47.882 65.6812C47.2728 66.3718 46.6627 67.062 46.055 67.7538C45.5195 68.3637 45.0135 69.1286 44.3911 69.645C43.8576 70.0876 43.6278 69.7466 43.1414 69.3354C42.4075 68.7147 41.6806 68.0864 40.954 67.4571C39.8879 66.5344 38.8391 65.5043 37.7434 64.6975C37.2833 64.3587 36.8534 63.9114 36.3404 63.5832C35.6972 63.1714 35.1687 62.7218 34.5896 62.2265C34.123 61.8271 33.5805 61.2529 32.9185 61.2515C32.6891 61.2511 32.5329 61.3617 32.3266 61.4075C31.9397 61.4934 32.0888 61.5155 31.7733 61.3189C30.5412 60.551 29.3357 59.859 27.9914 59.2556C27.3184 58.9536 26.6248 58.7466 25.9594 58.4318C25.3762 58.1561 24.8803 58.0264 24.2465 58.2556C23.1143 58.6651 22.1454 59.8898 21.3779 60.759C20.181 62.1153 19.2906 63.642 18.4043 65.2101C17.4823 66.8416 16.4563 68.4415 15.9455 70.2581C15.7776 70.855 15.5223 71.5778 15.7533 72.1898C16.0515 72.98 17.0543 73.6197 17.6558 74.19C18.0593 74.5728 19.0111 75.7353 19.6337 75.682C20.2366 75.6302 20.8173 74.4262 21.1611 73.9797C22.3657 72.4151 23.467 70.7278 24.829 69.2937C24.6983 70.0927 24.475 71.4743 25.753 71.2687C26.0674 71.2181 26.0931 71.0807 26.444 71.2105C26.638 71.2824 26.9639 71.5219 27.1048 71.6745C27.2968 71.882 27.2947 72.0361 27.521 72.1736C27.7215 72.2955 28.0499 72.3233 28.2838 72.4586C31.1849 74.1346 34.1136 75.7537 36.9666 77.5007C37.7211 77.9625 37.1753 78.361 36.7029 78.9441C36.1803 79.5889 35.5186 80.1135 35.0398 80.7871C34.6234 81.3732 34.2033 81.931 33.609 82.3548C32.9081 82.8549 32.5016 83.4405 32.047 84.1621C30.2936 86.9441 27.8073 89.4089 25.6593 91.8906C24.5405 93.1831 23.2262 94.3401 22.1761 95.6849C21.7794 96.1928 21.7962 96.6965 21.5008 97.2202C21.1616 97.8218 20.2453 98.1297 19.6988 98.5066C18.6018 99.2628 16.966 100.283 16.8359 101.72C16.7655 102.496 17.1637 102.995 17.5402 103.636C17.9906 104.402 18.4039 105.191 18.8661 105.95C20.555 108.727 22.9017 111.176 24.9119 113.727C25.4041 114.352 25.942 114.845 26.5549 115.349C26.933 115.66 27.6964 116.602 28.1919 116.669C28.4572 116.704 28.5117 116.486 28.7232 116.423C29.0238 116.334 29.2378 116.385 29.548 116.445C30.0618 116.546 30.546 116.779 30.997 116.41C32.1012 115.508 31.3313 113.75 31.0647 112.656C30.7239 111.258 29.8711 110.037 29.3779 108.693C29.1059 107.951 28.884 107.193 28.6633 106.435C28.5676 106.106 28.2669 105.552 28.3046 105.212C28.3429 104.866 28.7653 104.718 29.1016 104.489C30.4912 103.542 31.5568 102.238 32.8324 101.159C34.1097 100.078 35.2222 98.8272 36.4149 97.6545C37.6431 96.4468 38.9259 95.2968 40.1858 94.1225C41.3493 93.0379 42.5309 91.9351 43.6347 90.7917C44.6584 89.7316 45.7975 88.8191 46.8508 87.7738C47.2083 87.4191 47.7699 86.6934 48.3057 86.6131C48.7756 86.5427 49.4488 87.2435 49.8228 87.5067C50.8312 88.2163 51.7819 88.9011 52.732 89.6522C54.9927 91.4394 57.4428 93.4978 60.1028 94.6352C61.1999 95.1043 62.6697 95.7179 63.8226 95.0389C65.148 94.2584 65.9904 92.5554 67.0147 91.4448C68.1086 90.2589 68.8497 88.7939 69.6685 87.417C70.5499 85.9348 71.5526 84.5277 72.4075 83.0292C73.192 81.6542 73.6864 80.247 74.2722 78.7914C74.5097 78.2009 74.9476 75.8065 75.5923 75.7235C75.9396 75.6786 76.567 76.1771 76.8877 76.3095C77.5785 76.595 78.2954 76.8547 79.0246 77.0204C79.9981 77.2416 81.9432 77.9236 82.7815 77.163C83.5825 76.4357 83.561 74.9153 83.7513 73.9294C84.0582 72.3411 84.082 70.7216 84.4374 69.1419C85.1555 65.9494 86.3066 62.7973 87.5038 59.757C88.1302 58.1665 89.0049 56.938 90.0916 55.6355C91.4336 56.9098 92.6461 58.3692 94.1602 59.4442C95.808 60.6142 97.5903 61.6459 99.3005 62.7244C102.415 64.6884 105.488 66.4866 109.021 67.6202C112.33 68.6817 115.77 69.6718 119.292 69.7221C121.114 69.7482 122.971 69.7756 124.781 69.5472C126.64 69.3128 128.421 68.7325 130.204 68.1823C132.173 67.5748 134.054 66.7589 135.865 65.7712C136.23 65.5726 136.575 65.2081 136.95 65.0501C137.374 64.8715 137.626 65.0949 138.034 65.1757C138.608 65.2892 139.564 64.7573 139.048 64.0525Z" fill="#2B150A"/>
<path fill-rule="evenodd" clip-rule="evenodd" d="M121.529 19.8645C121.587 20.4193 122.033 22.6021 122.675 22.7804C123.467 23.0003 123.426 21.3688 123.397 20.9487C123.36 20.414 123.091 18.6483 122.629 18.352C121.705 17.7597 121.477 19.3653 121.529 19.8645Z" fill="#2B150A"/>
<path fill-rule="evenodd" clip-rule="evenodd" d="M113.159 30.0318C113.656 29.8542 114.237 30.1652 114.763 30.0362C115.396 29.8815 115.843 29.645 116.209 29.0677C115.342 28.6674 113.96 28.6302 113.024 28.7383C112.242 28.8286 110.855 29.25 111.812 30.1598C111.927 30.0217 112.042 29.8832 112.157 29.7451C112.405 30.0591 112.785 30.1659 113.159 30.0318Z" fill="#2B150A"/>
<path fill-rule="evenodd" clip-rule="evenodd" d="M115.4 21.3816C115.709 21.9043 116.076 22.2179 116.5 22.637C116.808 22.9413 117.074 23.5203 117.513 23.5663C117.411 23.2216 117.703 23.4845 117.768 23.3038C117.822 23.153 117.699 23.1035 117.708 22.9487C117.74 22.397 117.511 22.188 117.161 21.7361C116.89 21.3857 116.53 20.829 116.075 20.6982C115.596 20.5607 115.087 20.8507 115.4 21.3816Z" fill="#2B150A"/>
<path fill-rule="evenodd" clip-rule="evenodd" d="M112.536 36.5059C113.028 36.5351 113.956 36.1517 114.337 35.8604C114.486 35.7463 114.486 35.5515 114.591 35.4633C114.792 35.2953 115.525 35.2972 115.265 34.758C115.038 34.2862 113.707 35.024 113.4 35.1685C113.085 35.3161 112.399 35.5356 112.262 35.8362C112.148 36.0857 112.204 36.486 112.536 36.5059Z" fill="#2B150A"/>
<path fill-rule="evenodd" clip-rule="evenodd" d="M129.298 25.3452C129.764 25.3494 130.168 25.2367 130.442 24.8956C130.657 24.6268 131.284 23.59 131.049 23.4165C130.271 22.8407 128.505 25.3383 129.298 25.3452Z" fill="#2B150A"/>
<path fill-rule="evenodd" clip-rule="evenodd" d="M78.2036 49.873C78.3449 49.6083 79.3516 48.1249 78.9075 47.871C78.5703 47.6782 77.7856 49.0794 77.6575 49.2404C77.3898 49.5772 76.8007 49.001 76.5623 48.6958C76.1839 48.212 76.4638 47.9869 76.7769 47.5233C76.8954 47.3482 77.4476 46.5727 76.8941 46.5247C76.5201 46.4924 75.8742 47.4817 75.7098 47.6912C75.1402 48.4173 74.135 49.6261 73.959 50.6076C73.8885 50.9992 73.9181 51.253 74.3775 51.1C74.8424 50.9452 75.3658 49.6286 75.6025 49.2446C75.8877 49.5722 76.8884 50.3251 76.7692 50.8304C76.6605 51.2916 75.5797 51.8813 76.0689 52.4744C76.359 52.8262 76.6595 52.3889 76.9048 52.0661C77.4195 51.3886 77.8045 50.6198 78.2036 49.873Z" fill="#2B150A"/>
<path fill-rule="evenodd" clip-rule="evenodd" d="M79.3274 50.3717C78.8077 50.192 76.9978 53.0227 77.6037 53.449C78.3111 53.9462 79.8225 50.5429 79.3274 50.3717Z" fill="#2B150A"/>
<path fill-rule="evenodd" clip-rule="evenodd" d="M79.672 49.1939C79.1166 49.6915 79.6282 50.556 80.2162 50.0006C80.6696 49.5719 80.2559 48.6708 79.672 49.1939Z" fill="#2B150A"/>
<path fill-rule="evenodd" clip-rule="evenodd" d="M89.3535 31.2337C88.5453 32.7306 90.9816 35.9949 92.1107 34.0132C92.676 33.021 91.1771 32.9606 90.6921 32.3245C90.3782 31.9129 89.9237 30.1785 89.3535 31.2337Z" fill="#2B150A"/>
<path fill-rule="evenodd" clip-rule="evenodd" d="M90.6344 28.4117C91.3754 27.9025 90.6444 25.8763 89.9709 25.5728C88.9857 25.1291 87.4335 26.7778 87.586 27.7502C87.606 27.8781 87.7045 28.2311 87.9198 28.2274C88.2598 28.221 88.0224 28.0861 88.1445 27.8744C88.3389 27.5377 88.4587 26.9829 88.9671 26.8713C89.9278 26.6611 89.5727 29.1416 90.6344 28.4117Z" fill="#2B150A"/>
<path fill-rule="evenodd" clip-rule="evenodd" d="M83.442 27.4856C82.9648 26.9811 81.8123 27.3726 82.6157 28.0078C82.7696 28.1295 83.1085 28.382 83.3317 28.3107C83.7016 28.1925 83.6518 27.7075 83.442 27.4856Z" fill="#2B150A"/>
<path fill-rule="evenodd" clip-rule="evenodd" d="M125.51 31.9457C125.573 31.5331 125.591 30.7899 125.044 30.7461C124.558 30.7073 124.089 31.3005 123.937 31.6727C123.529 32.6745 123.585 33.9627 124.745 34.2598C124.981 33.4803 125.386 32.7533 125.51 31.9457Z" fill="#2B150A"/>
</g>
</svg>
