<svg width="36" height="31" viewBox="0 0 36 31" fill="none" xmlns="http://www.w3.org/2000/svg">
<rect width="36" height="31" rx="6" fill="#E6E3E1"/>
<path d="M6 24L8.47257 9.98455H6.47473L6.98903 7H29.9907L29.4764 9.98455H12.4089L9.93633 24H6Z" fill="#1A0D05"/>
<path d="M13.3052 21.2065L15.7976 7H19.7339L17.3998 20.3469L17.8943 20.8244L18.5866 20.3469L20.9207 7H24.8768L22.5427 20.3469L22.9977 20.8244L23.7296 20.3469L26.0637 7H30L27.5076 21.2065C27.2571 21.4452 26.967 21.6919 26.6373 21.9466C26.3208 22.1854 25.9845 22.4242 25.6285 22.6629C25.2724 22.9017 24.8966 23.1404 24.501 23.3792C24.1186 23.6021 23.7428 23.809 23.3735 24H21.5537C21.3031 23.8408 21.0592 23.6816 20.8218 23.5225C20.5845 23.3474 20.3405 23.1564 20.0899 22.9494C19.7866 23.1564 19.4833 23.3474 19.18 23.5225C18.8767 23.6816 18.5668 23.8408 18.2503 24H16.4305C15.8767 23.6339 15.303 23.2121 14.7096 22.7346C14.1294 22.2411 13.6613 21.7317 13.3052 21.2065Z" fill="#1A0D05"/>
</svg>
