<svg width="32" height="32" viewBox="0 0 32 32" fill="none" xmlns="http://www.w3.org/2000/svg">
<rect width="32" height="32" rx="7.21777" fill="#E6E3E1"/>
<path d="M5.56543 22.9565L7.71549 11.4861H5.97824L6.42545 9.04346H26.4269L25.9797 11.4861H11.1384L8.98833 22.9565H5.56543Z" fill="#1A0D05"/>
<path d="M11.9178 20.6702L14.085 9.04346H17.5079L15.4783 19.9668L15.9083 20.3576L16.5103 19.9668L18.54 9.04346H21.9801L19.9504 19.9668L20.346 20.3576L20.9824 19.9668L23.0121 9.04346H26.435L24.2677 20.6702C24.0499 20.8656 23.7976 21.0676 23.5109 21.276C23.2357 21.4714 22.9433 21.6668 22.6337 21.8622C22.3241 22.0576 21.9973 22.253 21.6533 22.4484C21.3207 22.6308 20.9939 22.8002 20.6728 22.9565H19.0904C18.8725 22.8262 18.6604 22.696 18.454 22.5657C18.2476 22.4224 18.0354 22.2661 17.8176 22.0967C17.5538 22.2661 17.2901 22.4224 17.0263 22.5657C16.7626 22.696 16.4931 22.8262 16.2179 22.9565H14.6355C14.1538 22.6569 13.655 22.3117 13.139 21.9208C12.6345 21.517 12.2274 21.1001 11.9178 20.6702Z" fill="#1A0D05"/>
</svg>
