<svg width="123" height="97" viewBox="0 0 123 97" fill="none" xmlns="http://www.w3.org/2000/svg">
<path fill-rule="evenodd" clip-rule="evenodd" d="M30.7285 54.3747C31.4288 59.6262 32.1289 64.8777 32.8291 70.1292L33.3945 74.37C33.466 74.9052 33.3985 75.9607 33.6705 76.4398C33.7665 76.6088 34.019 76.689 34.2046 76.7886C34.8435 77.1317 35.4825 77.4747 36.1214 77.8178C41.526 80.7194 46.9307 83.6211 52.335 86.5227C57.5219 89.3074 62.7088 92.0922 67.8955 94.8769C68.4323 95.1652 69.3004 95.9171 69.8799 95.7189C70.4306 95.5306 70.9935 95.0662 71.4936 94.7733C72.4535 94.2107 73.4133 93.6482 74.3732 93.0856C80.1816 89.6817 85.9898 86.2777 91.7981 82.8738C94.1946 81.4694 96.5909 80.065 98.9874 78.6605C99.6429 78.2763 100.299 77.8921 100.954 77.5078C101.297 77.3068 101.342 77.3139 101.477 76.9728C101.982 75.6975 102.215 74.2366 102.572 72.9134C102.966 71.4552 103.359 69.997 103.753 68.5388C103.928 67.8881 103.846 67.8042 103.56 67.1761C102.993 65.9328 102.427 64.6898 101.861 63.4467C100.604 60.6875 99.3471 57.9284 98.09 55.1693C97.5817 54.0535 96.3573 53.2684 95.4759 52.4478L81.7899 39.7057C81.4422 39.382 81.0946 39.0585 80.747 38.7347C80.6897 40.68 80.3054 42.7712 80.8692 44.6503C81.7944 47.7342 82.7196 50.8181 83.6447 53.902C84.0919 55.3927 84.539 56.8832 84.9862 58.3737C85.0692 58.6507 85.575 59.7488 85.4399 59.9924C85.3649 60.1275 84.726 60.2641 84.5876 60.3166C83.9932 60.5428 83.3987 60.769 82.8041 60.9952C81.1477 61.6253 79.4914 62.2555 77.835 62.8855C76.3452 63.4524 74.8554 64.0192 73.3657 64.5859C72.8605 64.7781 72.2672 65.134 71.7336 65.1044C71.2563 65.0778 70.7136 64.8416 70.2518 64.7227C69.4399 64.5136 68.6278 64.3044 67.8158 64.0951C66.2208 63.6844 64.6257 63.2736 63.0307 62.8627C61.2362 62.4004 59.7208 61.0428 58.1861 60.038C55.5483 58.3108 52.9105 56.5837 50.2728 54.8566C49.6688 54.4612 49.6666 54.2356 49.426 53.5136C48.8852 51.8912 48.3443 50.2688 47.8036 48.6464C47.5148 47.7801 47.1597 46.9102 46.9416 46.0233C46.5819 44.5596 46.3685 43.0444 46.0836 41.5645C45.9977 41.1181 45.9117 40.6714 45.8258 40.225C44.7212 40.6732 43.6165 41.1216 42.5116 41.57C42.3515 41.6349 41.5713 41.8287 41.502 41.9879C41.458 42.0885 41.6901 42.5451 41.7233 42.6433C42.6393 45.3562 43.5552 48.069 44.4713 50.7818C44.7595 51.6352 45.0475 52.4885 45.3357 53.3419C44.6472 52.2599 43.9586 51.1778 43.27 50.0959C42.7291 51.9156 42.1881 53.7354 41.647 55.5551C40.3684 54.0796 39.0896 52.6042 37.8108 51.1287C37.3681 52.6042 36.9255 54.0796 36.4829 55.5551C35.1058 53.7354 33.7287 51.9156 32.3515 50.0959C32.1879 51.0455 32.0241 51.9951 31.8604 52.9447C31.8109 53.2314 31.8208 54.0537 31.63 54.2806C31.4729 54.4674 31.0205 54.3747 30.7285 54.3747Z" fill="#7F5539"/>
<path fill-rule="evenodd" clip-rule="evenodd" d="M117.918 65.7263C117.84 68.1983 117.894 71.4073 116.541 73.5808C116.323 73.9315 115.583 75.0242 115.5 74.063C115.419 73.1193 115.652 72.1847 115.422 71.2301C115.299 70.7193 114.885 69.6035 114.177 70.0649C113.817 70.3001 113.722 70.8807 113.581 71.2472C113.372 71.7894 113.138 72.3231 112.919 72.8612C112.151 74.7396 111.356 76.9813 109.651 78.2244C109.874 76.6046 110.483 74.8751 110.074 73.2377C109.934 72.6797 109.512 71.6608 108.785 71.9877C108.077 72.3063 107.617 73.7277 107.283 74.3607C106.269 76.2799 105.232 78.1629 104.091 80.0103C103.517 80.9396 102.897 81.7888 102.146 82.5837C101.676 83.0809 101.091 83.9212 100.35 83.9953C100.35 82.5784 100.817 81.2094 101.242 79.8752C101.7 78.4404 102.118 76.9934 102.567 75.556C102.957 74.3091 103.277 73.0718 103.536 71.7931C103.644 71.2643 103.729 70.7168 104.18 70.3752C104.585 70.0683 105.225 69.9222 105.677 69.6966C106.863 69.1039 108.083 68.4644 109.185 67.7277C109.638 67.4253 110.027 67.0346 110.501 66.7632C111.041 66.4541 111.545 66.194 112.044 65.8173C114.199 64.1918 116.142 62.1922 117.451 59.812C117.664 60.7682 117.945 61.7027 117.976 62.6884C118.008 63.6991 117.949 64.7162 117.918 65.7263ZM100.181 77.0887C99.8366 76.5067 99.3115 76.7451 98.8488 77.0257C98.1308 77.4611 97.4109 77.8934 96.6893 78.3234C95.2207 79.1984 93.7793 80.119 92.3446 81.048C89.4239 82.9385 86.4014 84.4859 83.3222 86.0862C80.3462 87.6326 77.4878 89.4729 74.6994 91.3332C74.0293 91.7803 73.3638 92.2378 72.7204 92.7227C72.1492 93.1531 71.6924 93.7574 71.0912 94.1406C70.465 94.5396 70.0346 94.2159 69.4357 93.9216C68.6867 93.5537 67.9062 93.2453 67.1406 92.9135C64.0511 91.574 60.9528 90.1837 57.9474 88.6634C54.9601 87.1525 52.1297 85.4114 49.2675 83.6823C47.9043 82.8589 46.5644 81.9832 45.2198 81.1295C43.7889 80.221 42.3074 79.5405 40.8064 78.7681C40.1423 78.4262 39.554 77.9622 38.8719 77.6515C38.1548 77.3249 37.3973 77.0906 36.7552 76.6195C36.4673 76.4082 36.2244 76.1558 35.8954 76.0063C35.6253 75.8837 35.3187 75.8631 35.0519 75.7328C34.5092 75.4678 34.3538 74.93 34.2488 74.3706C33.5729 70.7798 33.2136 67.0895 32.8219 63.4586C32.6017 61.4169 32.3561 59.3831 32.0518 57.3521C31.9146 56.4364 32.1905 55.727 32.3354 54.8363C32.5045 53.7959 32.5713 52.7337 32.6846 51.6863C33.2194 52.6769 33.6818 53.7165 34.3621 54.6205C34.8636 55.2867 35.7203 56.2315 36.6438 56.2092C38.0791 56.1745 38.0135 53.7127 38.0713 52.7355C38.7251 53.319 38.9234 54.2697 39.4661 54.9475C39.9615 55.5663 40.6358 56.3342 41.3967 56.6112C42.9988 57.1948 42.8446 54.221 42.7565 53.3776C42.7122 52.9546 42.4734 52.2853 43.0401 52.4782C43.562 52.6558 44.0698 53.3922 44.5085 53.7299C45.2667 54.3139 46.0985 54.7992 46.8763 55.3567C47.8414 56.0484 48.8828 56.5482 49.8668 57.1924C50.4822 57.5954 51.1536 57.6858 51.8245 57.9821C52.8074 58.4163 53.6757 59.0635 54.6113 59.584C56.4641 60.6143 58.5194 61.5383 60.546 62.1595C61.2017 62.3604 62.0754 62.927 62.5728 62.3448C62.8791 61.9865 63.0804 61.4393 63.3404 61.0377C63.6693 60.5292 64.0185 60.0342 64.3812 59.5492C65.6704 57.8257 67.1012 56.1983 68.6901 54.7446C70.5387 53.0536 72.5601 51.5318 74.7223 50.2644C75.6513 49.7198 79.5303 47.2789 80.3829 48.9968C79.6822 48.9531 79.0749 49.2094 78.4758 49.5303C78.3295 49.6087 77.5754 50.1472 77.7519 49.6725C77.5328 49.7136 77.3407 49.9992 77.1748 50.1263C76.8881 50.3458 76.4533 50.5993 76.1213 50.7811C75.7932 50.9606 75.3877 51.0046 75.0887 51.2224C74.9795 51.3019 74.9132 51.4309 74.8091 51.5169L74.5104 51.5192C74.4657 51.6847 74.421 51.8499 74.3763 52.0153C74.2075 51.4743 73.9667 52.1779 73.6848 52.4065C73.5152 52.5438 73.2468 52.6853 73.0472 52.774C72.898 52.8402 72.875 52.6862 72.7301 52.8034C72.6015 52.9074 72.5194 53.1365 72.381 53.2669C72.2112 53.4266 71.9939 53.5507 71.8046 53.687C71.4419 53.9482 71.0583 54.1533 70.6909 54.4008C70.1966 54.734 69.9373 55.3069 69.4575 55.6553C69.2302 55.8202 68.8771 55.8396 68.754 55.9452C68.4455 56.2105 68.5472 56.6124 67.9717 56.6301C68.0241 56.7139 68.0555 56.8048 68.0663 56.903C67.9292 56.8793 67.8074 56.8225 67.7007 56.7324C67.7246 57.3063 67.1602 57.5113 66.8219 57.8647C66.6268 58.0683 66.3838 58.3547 66.2463 58.5997C66.2234 58.6408 66.1798 58.9679 66.1703 58.9723C66.1181 58.9974 65.8001 58.7181 65.8302 58.7414C65.7416 59.2717 65.2284 59.773 65.0037 60.2639C64.8853 60.5226 64.7651 60.9384 64.5318 61.1203C64.4684 61.1697 64.2732 61.1181 64.1119 61.29C63.9936 61.416 63.8571 61.6489 63.809 61.8161C63.777 61.9278 63.8155 62.2167 63.7694 62.2837C63.685 62.4062 63.5537 62.2831 63.4215 62.3737C63.1772 62.541 63.171 62.8025 62.8135 62.8369C63.0599 63.4356 64.5478 63.6202 65.0885 63.7905C66.6178 64.2717 68.2223 64.7525 69.6518 65.4896C70.0216 65.6802 70.3714 65.8374 70.4369 66.2766C70.5283 66.8878 70.2168 67.7004 70.1573 68.3178C69.9964 69.9849 69.9635 71.7012 69.9971 73.3754C70.029 74.9612 70.0803 76.562 70.1542 78.1459C70.2227 79.6144 70.5188 81.0539 70.6786 82.5121C70.7224 82.9124 70.6932 84.7172 71.3814 84.6263C71.9559 84.5505 71.5931 83.3177 71.5824 82.9644C71.5583 82.1822 71.723 81.3837 71.716 80.5946C71.7128 80.2152 71.8786 79.8884 71.8946 79.5255C71.9104 79.1668 71.7321 78.8833 71.7855 78.5115C71.8369 78.1548 72.8915 76.1027 71.8786 76.343C71.9379 76.0497 71.9899 75.7539 72.0682 75.4648C72.1765 75.5622 72.2639 75.676 72.3297 75.8058C72.4198 75.1755 72.3897 74.5463 72.4456 73.9157C72.4707 73.6299 72.5866 73.317 72.547 73.029C72.5545 72.9096 72.5393 72.7924 72.5016 72.6777C72.4393 72.6117 72.3621 72.577 72.2705 72.5736C72.2223 72.4159 72.2099 72.3725 72.2954 72.2178C72.3322 72.1128 72.4051 72.0473 72.5141 72.0214C72.7219 71.9967 72.7456 71.8774 72.5852 71.6633C72.6689 71.2407 72.6797 70.9739 72.6193 70.5522C72.5686 70.198 72.7552 69.512 72.565 69.1966C72.343 68.8279 72.2326 69.1855 72.1913 68.6744C72.1824 68.5663 72.1753 68.3408 72.2189 68.2329C72.2665 68.1155 72.4098 68.1636 72.4281 68.1218C72.5525 67.8378 72.5607 67.2786 72.1206 67.3272C72.1379 67.1243 72.1551 66.9214 72.1722 66.7185C72.4902 67.0846 72.3791 66.7747 72.5594 66.5713C72.8023 66.2971 73.0398 66.2499 73.387 66.1415C74.3123 65.8529 75.2037 65.4186 76.1079 65.0663C78.0225 64.3201 79.9726 63.654 81.8311 62.7722C85.7401 60.9174 89.5714 58.9044 93.5043 57.0986C93.2234 56.5772 93.3981 56.5518 93.6035 56.0622C93.8776 56.2526 93.8199 56.1198 94.015 56.1081C93.9973 55.9448 94.048 55.8955 94.1672 55.9603C94.2621 55.9893 94.3593 55.9997 94.4591 55.9911C94.7025 56.0329 94.9014 56.1668 95.1227 56.2177C95.1953 56.2713 95.2752 56.3114 95.3622 56.3384C95.4404 56.3206 95.5071 56.2819 95.5623 56.2223C95.9205 56.2887 96.0412 56.5586 96.057 56.9493C96.0597 57.0173 95.8516 57.0869 95.9113 57.1783C96.0153 57.3379 96.2953 57.2999 96.4556 57.3202C96.4204 57.4861 96.3853 57.6518 96.3503 57.8174C97.0534 57.493 96.87 58.5086 97.0832 58.8422C97.1427 58.9353 97.275 58.8609 97.3439 58.9688C97.4336 59.1095 97.4066 59.3089 97.4832 59.449C97.6563 59.7661 97.8295 59.7276 98.002 60.0907C98.9034 61.9865 100.102 63.7528 100.968 65.6894C101.38 66.6111 101.751 67.5486 102.181 68.4622C102.577 69.3031 102.803 70.018 102.521 70.9361C101.867 73.0663 101.167 75.2352 100.31 77.2928C100.267 77.2248 100.224 77.1567 100.181 77.0887ZM54.546 92.9887C54.4846 93.0932 54.4232 93.1976 54.3618 93.3022C54.2255 92.518 54.5888 92.8817 54.546 92.9887ZM51.6602 91.5203C51.4636 91.4614 51.5485 91.1402 51.5549 91.0029C51.6793 91.1579 51.8013 91.316 51.9049 91.4862C51.8233 91.4976 51.7417 91.5089 51.6602 91.5203ZM43.7513 88.5056C43.9578 88.3898 44.1064 88.3066 44.3406 88.1753C44.1026 88.6392 44.1026 88.6392 43.7513 88.5056ZM31.3088 47.6444C30.9932 48.419 31.9555 53.2019 31.0596 53.358C30.931 52.9382 30.915 51.7823 30.3831 51.6444C29.7231 51.4731 29.7881 52.663 29.698 53.031C28.3431 52.0883 27.7412 50.2679 27.0939 48.8252C26.2689 46.9863 25.6196 45.0737 24.9997 43.1576C24.4695 41.5194 24.0312 39.8523 23.4954 38.2167C23.1589 37.1895 22.796 36.1597 22.5697 35.1009C22.5206 34.8709 22.3271 34.2877 22.4915 34.069C22.7304 33.751 23.5903 34.1152 23.8674 34.1987C25.6649 34.7396 27.5296 34.9724 29.3765 35.2867C31.4284 35.6357 33.4758 35.9964 35.5401 36.267C36.0559 36.3346 36.5721 36.3986 37.0885 36.4609C37.4234 36.5013 37.9304 36.4609 38.2485 36.6111C38.8924 36.9149 39.0295 38.0776 39.2686 38.6807C40.1609 40.9311 41.211 43.1104 42.1504 45.3404C42.9967 47.3493 43.6383 49.4865 44.8548 51.3156C43.9475 50.9134 42.7977 48.787 41.7839 50.0126C41.348 50.5397 41.458 51.234 41.4928 51.8648C41.5432 52.7766 41.559 53.6953 41.559 54.6086C40.5669 54.3508 39.9003 53.2246 39.3795 52.4268C38.668 51.3372 38.2199 50.3104 37.9049 49.0613C37.7684 48.5204 37.4066 48.5069 37.0851 48.1832C36.8785 47.9752 36.7747 47.6948 36.4784 47.9974C36.106 48.3778 36.3537 49.4312 36.418 49.8803C36.5707 50.949 37.0717 52.5937 36.5848 53.5979C35.9276 54.9531 34.1666 51.5432 33.9603 51.0506C33.8554 50.8 31.9819 45.9921 31.3088 47.6444ZM30.0785 24.419C30.1895 24.4359 30.3003 24.4529 30.4112 24.4699C30.3218 24.5488 30.1358 24.8256 29.9838 24.7524C30.0154 24.6413 30.0469 24.5302 30.0785 24.419ZM35.9553 23.1579C35.9207 23.1961 35.8857 23.2342 35.8509 23.2724C35.6918 23.0735 35.7482 22.7836 35.7482 22.5535C35.9584 22.6806 36.0098 22.9347 35.9553 23.1579ZM36.4303 25.3646V26.0147C35.9897 25.8238 35.981 25.7252 36.4303 25.3646ZM36.9653 26.1912C36.6566 26.1065 36.6197 26.0382 36.6631 25.5638C36.791 25.8295 36.8753 26.0047 36.9653 26.1912ZM38.742 31.0056C38.6126 31.3385 37.8565 30.5453 37.8842 30.3079C37.9106 30.0814 38.0267 30.0138 38.187 30.1594C38.2399 30.2077 38.1613 30.3819 38.1951 30.4424C38.3171 30.6614 38.5631 30.8405 38.742 31.0056ZM38.7505 33.0111C38.561 33.4841 38.2233 32.7392 38.7183 32.7188C38.7508 32.814 38.7615 32.9113 38.7505 33.0111ZM38.3829 32.2652C38.3096 32.1674 38.2383 32.0683 38.1691 31.9673C38.4241 32.0188 38.6265 32.3904 38.8955 32.1425C38.8636 32.5205 38.5951 32.531 38.3829 32.2652ZM21.8953 26.1208C21.4852 25.6733 24.1589 25.3591 24.4815 25.2823C26.8222 24.7241 29.0321 23.9164 31.2207 22.9254C32.2647 22.4526 33.3035 21.9741 34.323 21.45C34.7633 21.2238 35.3668 21.032 35.7344 20.6924C35.9969 20.45 35.9865 20.2666 36.3276 20.1221C36.6172 19.9998 36.6317 20.1153 36.7643 19.894C36.844 19.7612 36.9342 19.2746 36.8875 19.1306C36.7605 18.7377 36.5727 19.0562 36.309 18.7855C36.1191 18.5903 36.1651 18.0352 36.2169 17.8053C36.2842 17.9148 36.3229 18.0337 36.3332 18.1618C36.6193 18.0207 36.5039 17.5363 36.8168 17.457C37.1466 17.3735 37.1125 17.6303 37.1986 17.893C37.4478 17.5271 37.248 17.215 37.1131 16.8576C37.7988 16.7293 38.5355 16.6049 39.2151 16.833C39.7066 16.9978 40.1272 17.4031 40.6461 17.4815C41.1543 17.558 41.252 17.3171 41.6266 17.0726C41.9307 16.8742 42.1918 17.1079 42.3484 16.958C42.2519 17.464 41.4222 17.3948 41.5243 18.0272C41.5704 18.3119 41.9192 18.5676 42.0779 18.789C42.2773 19.067 42.4362 19.3743 42.5719 19.6876C43.1 20.906 43.3257 22.32 43.5474 23.623C44.0942 26.8392 44.1634 30.1189 44.6777 33.3454C44.9228 34.8823 45.1685 36.42 45.2958 37.9719C45.3277 38.36 45.5646 39.2401 45.3708 39.6134C45.2068 39.9285 44.8421 39.9294 44.5219 40.0057C43.8954 40.1546 43.3072 40.3569 42.7062 40.581C42.1675 40.7818 42.011 40.905 41.6651 40.3982C41.3306 39.9077 41.1652 39.3232 40.9259 38.7855C40.6211 38.1004 40.2528 37.4394 39.8993 36.7786C40.5938 36.7786 40.9935 36.4036 40.975 35.6979C40.955 34.9162 40.3121 34.7308 40.0471 34.0883C39.7893 34.4231 39.7676 34.4326 39.584 34.1147C39.3738 33.7513 39.232 33.0863 39.1035 32.6741C39.1955 32.7722 39.2874 32.8703 39.3793 32.9683C39.6111 32.6493 39.248 32.1465 39.1266 31.8461C38.9392 31.3822 38.9061 30.8807 38.7283 30.4181C38.6314 30.1656 38.4068 29.9669 38.3518 29.7035C38.315 29.5272 38.4623 29.3594 38.4273 29.1805C38.3665 28.8689 38.014 28.5345 37.9044 28.2176C37.7358 27.7301 37.5527 27.3009 37.3434 26.8259C37.0603 26.1831 37.1261 25.5085 37.0743 24.8243C37.0206 24.1149 36.7934 23.4362 36.7131 22.7299C36.6576 22.2419 36.8313 21.6275 36.4621 21.2367C36.4189 21.8863 36.6051 21.8763 35.9947 21.9932C35.2998 22.1261 34.7957 22.6438 34.1387 22.7983C34.0033 22.8302 33.9046 22.2385 33.9574 23.0456C33.6422 22.8129 32.9696 23.1018 33.2205 23.2399C33.0303 23.4434 32.6557 23.3026 32.5932 23.6075C31.9468 22.9791 30.9102 25.1181 30.1405 24.0023C30.0135 24.7585 29.4659 25.2055 28.7308 25.3056C28.3612 25.3558 28.1334 25.479 27.8054 25.5898C27.7389 25.612 27.7144 25.7078 27.6356 25.7336C27.5152 25.7729 27.3384 25.6544 27.2517 25.6774C27.0751 25.7243 26.8787 25.9567 26.6321 26.0029C26.3494 26.0559 26.041 26.0315 25.758 25.9988C25.4042 25.9577 25.2486 25.9158 24.9021 26.0324C24.5905 26.1373 24.2568 26.4311 23.9676 26.1112C23.5133 26.8972 22.4301 26.7051 21.8953 26.1208ZM42.8977 16.636C42.5539 16.5948 42.7927 16.2992 42.9519 16.2103C43.3845 15.9692 43.2689 16.6806 42.8977 16.636ZM23.8612 19.4565C25.879 16.5454 29.3305 14.5453 32.3673 12.8623C34.026 11.9431 35.7191 11.0521 37.4607 10.2997C38.3267 9.92587 39.2027 9.56644 40.0869 9.238C40.5591 9.06257 41.037 8.90307 41.5152 8.74431C41.6474 8.70049 41.8879 8.56592 42.0263 8.57905C42.0024 8.57669 42.3702 8.67673 42.2979 8.70816C42.5349 8.60502 42.6476 8.33604 42.9262 8.22848C43.2393 8.10749 43.6381 8.05748 43.9735 8.04656C44.2702 8.03682 44.5271 8.15943 44.8098 8.16902C44.9955 8.17522 45.1534 8.08699 45.3353 8.074C45.4284 8.06751 45.4202 8.20679 45.4762 8.21491C45.5006 8.21845 45.7485 8.12535 45.7508 8.12697C45.8411 8.18496 45.9211 8.41129 46.0027 8.49967C46.2367 8.75316 46.5802 8.92977 46.8923 9.06316C47.272 9.22546 48.1985 9.38865 47.7691 9.98916C48.0741 9.94534 48.2161 10.221 47.8342 10.2907C47.6273 10.3287 47.539 10.1392 47.3854 10.01C47.0305 9.71192 46.1691 9.28758 45.658 9.30676C45.3705 9.31753 45.1483 9.53575 44.8831 9.61498C44.6221 9.69289 44.4928 9.57205 44.2639 9.59123C43.9962 9.61351 43.8239 9.83999 43.5688 9.88027C43.3299 9.91805 43.1968 9.75515 42.9833 9.76651C42.7295 9.77994 42.4837 10.0004 42.2414 10.0744C41.856 10.1922 41.573 10.2725 41.1968 10.4677C40.4676 10.8461 39.6533 10.9898 38.9018 11.3156C38.301 11.576 37.6198 11.7131 37.0638 12.0011C36.4456 12.3211 35.8246 12.64 35.2192 12.9878C34.7819 13.239 33.8928 13.3255 33.4106 13.2616C33.4036 14.1495 32.9666 13.527 32.5262 13.916C32.6303 14.0079 32.7487 14.0755 32.8807 14.1187C32.4034 14.3093 31.9623 14.5466 31.4998 14.7657C31.0219 14.9923 30.512 15.0422 30.198 15.4708C29.9088 15.8658 30.0068 15.6621 29.5752 15.8176C29.3772 15.889 29.205 16.1068 29.0624 16.253C28.8171 16.5044 28.7628 16.8851 28.6228 16.3684C28.5819 16.4314 28.4211 16.8325 28.3898 16.8427C28.2144 16.6565 28.1892 16.8773 28.0911 16.9562C28.1427 17.1278 28.0689 17.2402 27.8697 17.2935C27.769 17.3684 27.6669 17.4419 27.5637 17.5138C27.1895 17.7733 26.7133 17.996 26.4497 18.3827C26.2554 18.268 26.1834 18.0702 26.3018 17.8682C25.9304 18.2105 25.4873 18.5621 25.3868 19.089C25.3406 19.0444 25.2868 19.0123 25.2257 18.9925C25.0749 19.0943 25.2713 19.3977 25.3669 19.466C25.7839 19.304 25.2627 19.3627 25.5429 19.3888C25.6227 19.3962 25.7048 19.4559 25.7929 19.457C26.0512 19.4604 26.2939 19.448 26.5501 19.4086C27.1149 19.3215 27.67 19.1594 28.2168 18.9968C28.8123 18.8197 29.4079 18.6429 29.9903 18.4258C30.4698 18.2469 30.9414 18.0476 31.4128 17.849C31.6011 17.7696 31.7892 17.6892 31.9777 17.6104C32.3358 17.4608 32.5247 17.215 32.4747 17.6361C32.7599 17.5887 33.007 17.1856 33.226 17.0211C33.5341 16.7899 33.8805 16.6174 34.2455 16.4994C34.3934 16.4516 34.502 16.3908 34.6548 16.3903C34.7298 16.3902 34.7747 16.6015 34.8219 16.59C35.1494 16.5106 35.0001 16.3291 35.1474 16.0677C35.4694 15.4962 36.337 15.1802 36.8698 14.8556C37.208 14.6494 37.4481 14.3722 37.7603 14.1439C37.9063 14.0373 38.0124 13.9901 38.1654 13.9449C38.2826 13.9102 38.4263 14.1794 38.5023 13.9089C38.2298 13.7975 38.005 13.6601 37.7429 13.5788C37.5574 13.5211 37.7799 13.3239 37.486 13.4413C37.3679 13.4885 37.3274 13.7169 37.284 13.8126C36.9557 13.5194 36.0326 13.8232 35.6431 13.9459C35.6163 13.9543 35.496 13.8909 35.4394 13.8947C35.2145 13.9098 35.0579 14.2124 34.91 14.3428C34.5164 14.6894 34.0896 14.8343 33.605 15.0322C33.734 14.3276 34.6817 14.039 35.2348 13.7692C36.0434 13.3746 36.7962 12.8711 37.6815 12.6589C38.2711 12.5174 39.0523 12.4036 39.307 13.0891C39.4594 13.5 39.4786 14.5209 38.9629 14.7105C38.9085 14.5187 39.0829 14.3548 39.1354 14.1884C38.6221 14.3843 38.5375 15.0009 38.1477 15.3227C37.9286 15.5034 37.8503 15.5614 37.7443 15.7361C37.6391 15.9096 37.5887 16.0715 37.3421 16.2561C36.9392 15.4002 37.0073 16.5726 36.803 16.7197C36.8852 16.6605 36.47 16.8333 36.5195 16.815C36.5004 16.8221 36.3195 16.529 36.2022 16.5352C35.9887 16.5465 36.0297 16.7815 35.9268 16.8998C35.5782 17.3003 35.1277 17.5629 34.5666 17.4999C34.5535 17.7848 34.6414 18.1252 34.2523 18.1512L34.2013 17.5195C33.9896 17.7338 33.7108 17.9372 33.5385 18.1853C33.3424 18.4675 33.3634 18.6413 33.038 18.8294C32.6981 19.0261 31.9748 19.4136 31.5702 19.4471C31.6703 19.3051 31.6526 19.1769 31.5174 19.0627C31.3139 19.2725 31.0135 19.2932 30.7969 19.4826C31.5488 19.7968 30.2193 19.7805 30.0506 19.8161C29.9378 19.84 29.8392 19.9428 29.7248 19.966C29.573 19.9968 29.5534 19.8372 29.4227 19.8878C29.2314 19.9619 29.3091 20.1709 29.109 20.276C28.9653 20.3515 28.7215 20.3505 28.5594 20.4222C28.1729 20.5934 27.3498 20.9724 27.0886 20.5127C26.9563 21.3015 25.6046 20.8213 25.1043 20.7682C24.4191 20.6955 23.2255 20.3738 23.8612 19.4565ZM26.7392 11.386C26.8362 11.3032 26.9333 11.3093 27.0303 11.4043C26.8952 10.6905 27.9406 10.3439 28.3966 10.0404C29.0016 9.63785 29.7136 8.85689 30.5052 8.91871C30.3702 9.01875 30.2355 9.11878 30.1007 9.21882C30.2932 9.24375 30.4856 9.26869 30.6779 9.29363C30.5694 9.45298 30.4608 9.61218 30.3521 9.77138C30.1744 8.79226 29.2475 10.0284 28.9793 10.2086C28.7091 10.3899 28.4397 10.5251 28.1997 10.7462C27.9618 10.9653 27.7471 11.3599 27.3539 11.1628C27.3181 11.722 26.8685 11.5703 26.5576 11.88C26.5446 11.6857 26.6559 11.5483 26.7392 11.386ZM30.8461 8.59455C31.8029 8.23616 32.636 7.57352 33.5376 7.10019C34.3988 6.64799 35.2775 6.24194 36.153 5.8201C36.5972 5.60601 37.4107 5.05241 37.9184 5.33452C38.6035 5.71549 37.6604 5.8384 37.4155 5.9703C37.3249 5.38366 37.0075 5.91512 37.1971 6.24149C36.6743 6.01575 35.5342 6.89896 35.0355 7.14254C34.9226 7.19772 34.9733 7.22959 34.8449 7.29451C34.8133 7.31044 34.486 7.38496 34.3924 7.41638C33.9229 7.57352 33.6135 7.4487 33.4112 8.01542C33.3688 7.88204 33.3265 7.74851 33.2841 7.61498C32.9902 8.27496 32.0968 8.56386 31.5255 8.95412C31.3783 9.05475 30.9578 9.44501 30.771 9.3643C30.511 9.25187 30.6153 8.68086 30.8461 8.59455ZM48.1072 10.5844C48.5111 10.6111 48.1216 10.7995 48.2326 10.924C48.22 10.91 48.4759 11.1282 48.4424 11.0683C48.4875 11.1489 48.596 11.1459 48.6515 11.3097C48.8425 11.8729 48.0082 12.4548 47.7268 12.7744C47.1797 13.396 46.8635 14.1832 46.2934 14.7849C46.0359 15.0567 45.7798 15.2443 45.4228 15.3457C45.173 15.4167 44.9088 15.3407 44.6792 15.5809C44.4943 15.7743 44.5362 15.8843 44.3319 15.9871C43.9719 16.1684 43.8132 16.0094 43.463 16.4013C43.1615 15.5818 44.0276 15.5831 44.4796 15.1251C45.1034 14.4929 45.787 13.855 46.372 13.1787C46.8917 12.5777 47.0999 12.0508 47.3466 11.3208C47.4243 11.0906 47.509 10.5971 47.7234 10.4526C48.0573 10.2277 47.8569 10.5677 48.1072 10.5844ZM50.0937 31.8725C51.1533 30.6874 52.4676 29.6233 53.8923 28.9094C54.4015 28.6542 55.1264 28.3192 55.6542 28.7122C56.1718 29.0973 56.0604 29.8655 55.8518 30.3881C55.6518 30.3096 55.8405 29.5752 55.7368 29.3937C55.5105 28.9977 55.0221 29.2079 54.6898 29.3407C54.3006 29.4962 53.9533 29.668 53.645 29.9502C53.5199 30.0646 53.2805 30.1671 53.2003 30.2458C53.0799 30.1957 53.009 30.2322 52.9877 30.3549C53.0125 30.4302 53.0096 30.5043 52.9787 30.5772C52.9612 30.6003 52.8046 30.5053 52.7823 30.5243C52.6808 30.6112 52.5858 30.7135 52.4859 30.7942C52.2854 30.9563 52.1148 31.0331 51.9303 31.2591C51.5738 31.696 51.1022 31.952 50.7441 32.3682C50.6633 32.4624 50.5663 32.7036 50.5482 32.7247C50.3671 32.936 50.0988 33.1032 49.8945 33.3268C49.5415 33.7133 49.1645 33.9727 48.7571 34.304C48.5817 34.4466 48.377 34.6002 48.2603 34.7985C48.2072 34.8889 48.1772 35.3847 48.1753 35.3867C47.7758 35.8247 47.8535 34.9444 47.8836 34.834C48.2081 33.6464 49.3051 32.7548 50.0937 31.8725ZM47.9128 39.903C47.9626 40.0895 48.0034 40.2437 48.0539 40.433C47.7371 40.1732 47.7371 40.1732 47.9128 39.903ZM47.5707 40.5139C47.4543 40.6312 47.3373 40.7477 47.2194 40.8635C46.9601 40.5896 47.6182 40.4669 47.5707 40.5139ZM47.4062 35.798C47.2822 36.2993 46.8285 36.9071 46.5166 37.3028C46.551 37.2591 46.2504 37.3469 46.2162 37.3668C46.1051 37.4312 46.3711 37.8481 45.9862 37.6618C45.8495 37.7391 46.1185 38.054 45.9329 38.1949C45.3964 36.9724 46.8613 35.9133 47.4284 35.0059C47.7058 35.2606 47.4758 35.5169 47.4062 35.798ZM43.9215 42.4072C44.3127 42.5078 44.5162 42.4445 44.7803 42.0603C44.939 41.8295 44.997 41.4208 45.3601 41.7661L45.4242 41.3221C45.9425 41.5347 45.899 42.3032 46.1255 42.729C46.2357 42.2472 46.4967 40.9015 47.2959 41.1173C48.1932 41.3597 46.6999 42.9028 46.5612 43.2808C46.2562 42.8075 46.3761 43.2478 46.1435 43.3144C45.9438 43.3718 45.6319 43.2249 45.3893 43.2382C44.6513 43.2783 44.003 43.6103 43.3288 43.8914C43.1581 43.4312 42.9876 42.971 42.8169 42.5108C43.2138 42.5413 44.0344 41.4849 44.151 42.2527C43.8566 42.2015 43.7737 42.2145 43.6303 42.4824C43.7219 42.436 43.819 42.4109 43.9215 42.4072ZM45.5782 48.414C45.577 48.4103 46.3416 48.4575 46.4098 48.4326C46.933 48.2415 46.7395 47.6481 46.8465 47.2286C47.0622 47.4269 46.9479 47.7888 47.0144 48.0454C47.0925 48.347 47.3185 48.604 47.3395 48.9265C47.3871 49.6553 46.7891 49.4936 46.3359 49.7294C45.9485 49.9309 45.9056 50.1844 45.5785 49.6413C45.49 49.4943 45.2996 49.1114 45.3191 48.9235C45.3383 48.7372 45.6332 48.5825 45.5782 48.414ZM46.1944 51.5673L45.9829 51.3305C46.6129 51.5234 46.2414 51.2334 46.3863 50.837C46.8698 51.1589 47.2642 51.4899 47.6468 50.8453L48.3078 53.5114C47.8639 53.6159 47.2911 52.9299 46.9865 52.6943C46.8107 52.5581 45.8346 52.0336 46.4207 51.8807C46.3451 51.7763 46.2698 51.6718 46.1944 51.5673ZM50.5092 43.1952C50.1423 43.5442 49.7727 43.7395 49.3731 44.0138C49.0227 44.2546 49.1434 44.531 48.8396 44.7995C48.6379 44.978 48.165 45.1598 47.9158 45.296C47.4718 45.5386 47.0742 45.5848 46.6175 45.3133C46.7418 46.3138 46.0565 46.3921 45.2036 46.5903C44.7968 46.6849 44.556 46.8293 44.2628 46.4568C44.062 46.2018 43.9834 45.7401 44.2332 45.5069C44.6299 45.1362 45.6869 45.2641 46.196 45.031C46.5823 44.8543 46.9758 43.8582 47.4523 44.2207C47.2064 43.8289 47.4928 43.7234 47.7066 43.4441C47.9407 43.138 48.0846 42.78 48.3269 42.4764C48.7872 41.8992 49.494 41.3186 50.1477 40.9705C50.723 40.6644 51.0251 40.8811 51.1112 41.5241C51.1546 41.8474 51.153 42.329 50.9719 42.6158C50.9142 42.7073 50.7238 42.7083 50.6661 42.7942C50.5656 42.9443 50.6578 43.0539 50.5092 43.1952ZM57.26 35.4353C57.719 35.7906 57.6743 36.5372 57.7466 37.0456C57.8485 37.7623 57.7746 38.4557 57.7637 39.1856C57.7522 39.9504 57.377 40.4485 57.2003 41.1653C57.0041 41.9626 56.7508 42.3849 56.3105 43.054C56.7879 43.1291 56.0774 44.555 55.9602 44.7396C55.833 44.94 54.8074 45.8633 55.2471 45.8633C55.0045 46.1832 54.7404 46.5115 54.4988 46.8225C54.4036 46.945 54.2367 46.9931 54.1618 47.0796C54.009 47.2553 53.9998 47.412 53.8904 47.6171C53.7244 47.9282 53.6698 47.8452 53.4516 48.0709C53.301 48.2269 53.2021 48.4327 53.0541 48.5822C52.5772 49.0636 52.5165 48.6692 52.2498 48.2984C52.209 48.3977 52.1364 48.46 52.0321 48.4852C51.9486 48.0656 52.5234 47.6417 52.7651 47.3868C53.1609 46.9689 53.5227 46.5085 53.8727 46.0516C54.6223 45.0725 55.2958 44.0323 55.8273 42.918C56.3927 41.7322 56.8443 40.4488 57.0789 39.1551C57.2577 38.169 57.4277 36.4776 56.1101 36.2267C55.1518 36.0444 54.0954 36.6266 53.3054 37.098C52.8239 37.3851 52.3398 37.6706 51.8813 37.9936C51.3834 38.3439 50.9532 38.8396 50.4129 39.1207C50.7084 38.967 49.7333 39.4297 49.8826 39.2995C49.8127 39.3603 49.873 39.5461 49.8268 39.6299C49.7666 39.7389 49.5574 39.8466 49.4636 39.9172C49.2157 40.1034 48.8197 40.2939 48.7069 40.6014C47.1347 39.4797 50.2613 37.4884 51.0628 36.9813C52.6526 35.9755 55.419 34.0101 57.26 35.4353ZM61.501 24.5267C61.486 23.719 62.1438 22.6164 62.588 21.9577C62.8054 21.6354 63.1525 21.6482 63.2799 21.268C63.3534 21.049 63.257 20.8194 63.2788 20.5996C63.3084 20.3023 63.4373 20.0638 63.586 19.8083C64.9306 17.4981 66.5643 15.4534 68.3043 13.4379C69.1623 12.4443 69.9757 11.4125 70.901 10.4792C71.2876 10.0893 72.3264 8.68794 72.9207 8.82811C73.2355 8.90233 73.4186 9.3826 73.5607 9.62767C73.7956 10.033 74.0539 10.4126 74.3394 10.7853C75.0929 11.7693 75.9621 12.6331 76.9886 13.3305C77.6296 13.7664 78.2772 14.19 78.9039 14.6466C79.4199 15.0224 80.2 15.4521 80.5684 15.9797C80.937 16.5075 80.3958 16.9544 80.1 17.3926C79.6402 18.0742 79.2173 18.7803 78.7556 19.4611C78.5722 19.3292 78.6196 19.0612 78.4939 18.8923C78.3824 18.7425 78.2246 18.6816 78.0706 18.5891C77.7753 18.4122 77.4856 18.1959 77.2189 18.4923C76.7523 19.0111 77.3939 20.2373 78.0856 20.1028C78.1671 20.6148 76.7859 21.458 76.4398 21.7398C75.3774 22.6041 74.2816 23.3556 72.8783 23.4338C72.3103 23.4654 71.7194 23.4223 71.1798 23.2323C70.9213 23.1412 70.6355 23.0162 70.4374 22.8178C70.2001 22.5802 70.1396 22.2267 69.9095 21.9915C69.7098 21.7875 69.4357 21.756 69.2362 21.5513C69.0364 21.3463 68.9377 21.0226 68.8567 20.7572C68.6982 20.2385 68.6683 19.6916 68.516 19.1718C68.4244 18.8591 68.3492 18.4411 68.0504 18.7415C67.6164 19.178 67.8344 20.5503 67.9455 21.0732C68.1044 21.8192 68.4769 22.4206 68.8672 23.0624C69.2904 23.7587 69.4466 24.4045 69.5224 25.2101C69.6644 26.7182 70.0971 28.1653 70.7705 29.5222C71.054 30.0935 71.3935 30.6307 71.6995 31.1889C71.8425 31.4493 72.1628 32.3378 72.5516 32.3331C73.1728 32.3254 72.2879 30.514 72.1652 30.2099C71.4847 28.5257 70.8347 26.7554 70.689 24.9317C71.6644 25.183 72.7276 25.4214 73.7377 25.2622C73.0857 26.7203 73.7668 28.172 73.6834 29.6728C73.6418 30.4255 73.6117 31.1198 73.6272 31.8703C73.6409 32.5283 73.3438 33.1861 73.0869 33.7811C72.5767 34.9628 71.9344 36.4206 70.9868 37.3258C70.1947 38.0826 69.135 38.1417 68.0999 37.9675C65.7454 37.5709 64.1984 35.7609 63.2102 33.7053C62.5753 32.3848 62.0901 30.9751 61.7888 29.5409C61.44 27.8812 61.532 26.2102 61.501 24.5267ZM64.5588 13.341C62.3615 11.7512 65.5545 9.94578 67.1797 10.1916C67.561 10.2491 68.2624 10.4067 68.2267 10.9043C68.1975 11.3109 67.5192 11.7642 67.2588 12.0151C66.5162 12.7313 65.7604 14.2102 64.5588 13.341ZM80.5432 48.6663C80.4678 48.5987 79.8528 48.7645 80.0964 48.4007C80.2988 48.0984 80.8601 48.4773 81.064 48.555C80.896 48.6712 80.7497 48.851 80.5432 48.6663ZM71.3939 67.8945C71.2051 67.9178 71.0077 67.4085 71.6884 67.789C71.5903 67.8241 71.4921 67.8594 71.3939 67.8945ZM71.3745 76.1956C71.3979 76.4239 71.4677 76.5744 71.3056 76.7404C71.1685 76.5714 71.1508 76.3331 71.3745 76.1956ZM71.6508 79.6255C71.6307 79.7497 71.6107 79.874 71.5909 79.9981C71.4336 79.9185 71.2766 79.839 71.1193 79.7593C71.2964 79.7148 71.4738 79.6702 71.6508 79.6255ZM71.8432 76.7333C72.0775 76.8209 71.9685 76.5407 72.1386 76.5013C72.1995 76.793 72.1244 77.0428 71.957 77.2835C71.941 77.2265 71.8552 76.7376 71.8432 76.7333ZM77.8313 56.0361C77.5025 55.9942 77.4528 56.3415 77.2077 56.4762C77.0496 56.5633 76.568 56.4979 76.4781 56.6645C76.5967 56.6987 76.7155 56.7331 76.8341 56.7674C76.5625 56.9137 76.2909 57.0602 76.0192 57.2066C76.6726 57.2066 77.3534 56.8945 78.0023 56.9862C78.2766 57.025 78.4777 57.1176 78.6497 57.3407C78.7542 57.4762 78.8459 57.6941 78.8628 57.8599C78.8809 58.0394 78.741 58.1633 78.7658 58.2489C79.0583 58.2568 79.0237 58.7365 78.9581 58.932C78.8157 59.3559 78.2502 60.0197 77.7433 59.7509C77.9554 60.0518 77.9014 60.2235 77.5878 60.398C77.6163 60.2986 77.6372 60.1246 77.477 60.1419C77.4358 60.3086 77.4516 60.573 77.3154 60.6987C77.163 60.8394 77.027 60.675 76.8812 60.7665C76.7084 60.8751 76.7604 61.0455 76.6245 61.1632C76.4448 61.3187 76.4191 61.2082 76.2043 61.2385C75.8789 61.2845 76.0865 61.0824 75.826 61.3459C75.7358 61.4368 75.751 61.6733 75.6049 61.8064C75.3243 62.0618 74.5755 62.328 74.3067 62.0004C73.6603 63.0248 71.7228 63.2706 70.821 62.4619C69.3827 61.1722 72.0645 58.5493 72.95 57.718C73.8386 56.8838 74.8257 56.1631 75.8245 55.4676C76.3919 55.0725 76.9743 54.7138 77.5689 54.3617C77.9357 54.1444 78.3964 53.7477 78.8471 53.7857C79.2514 53.82 79.5968 54.1336 80.0225 54.1958C80.3303 54.2406 80.9283 54.3147 80.5399 54.7322C80.3583 54.9273 79.6451 55.2427 79.4022 55.2903C79.2595 55.3181 79.1092 55.2647 78.9678 55.2937C78.7285 55.3428 78.5641 55.5448 78.3037 55.5191C78.3862 55.9055 78.2357 56.0875 77.8313 56.0361ZM82.0878 41.6901C82.088 41.9924 81.5362 41.917 81.4209 41.8143C81.2312 41.6454 81.2245 41.1402 81.1542 40.9105C81.4749 40.9912 82.0876 41.2866 82.0878 41.6901ZM77.6425 31.7162C78.8017 30.7635 80.0204 29.89 81.3088 29.1207C81.7702 28.8452 82.4216 28.2896 82.9947 28.3589C83.235 28.3881 83.732 28.6642 83.5509 28.9686C83.5171 29.0255 83.2496 29.0484 83.167 29.0897C83.0733 29.1365 82.9998 29.2655 82.9129 29.3292C82.3109 29.7708 81.5877 30.0421 80.9838 30.4944C80.4874 30.8658 80.0246 31.2812 79.4903 31.5999C78.9777 31.9055 78.4421 32.099 77.9555 32.4374C77.9651 32.4306 77.3225 32.6617 77.4485 32.7037C76.8845 32.515 77.4802 31.8497 77.6425 31.7162ZM85.3708 31.3614C86.0594 31.0869 86.7331 30.7539 87.454 30.5695C87.8137 30.4774 88.183 30.4082 88.5554 30.4497C88.6187 30.3389 88.703 30.3144 88.8083 30.3762C88.8905 30.5025 88.9988 30.5994 89.1334 30.6672C89.3388 30.825 90.0949 31.0314 89.9438 31.3801C89.844 31.6107 89.0857 31.6299 88.8777 31.6817C88.2505 31.8379 87.6656 32.1894 87.0195 32.2757C86.9588 32.2838 86.7608 32.2104 86.7586 32.2108C86.5064 32.2658 86.2966 32.5274 86.08 32.6528C85.6138 32.9227 84.9439 32.968 84.6091 33.4338C85.6933 34.1687 86.6339 33.4399 87.5871 32.8849C88.1581 32.5527 88.771 32.3129 89.395 32.0998C89.7211 31.9886 90.0501 31.8729 90.3806 31.7752C90.5174 31.7254 90.658 31.6895 90.8023 31.6675C90.9365 31.6408 91.0326 31.6897 91.0906 31.8142C91.4902 31.8009 91.5244 31.5502 91.7649 32.0178C92.1039 32.677 91.5852 32.6435 91.0977 32.7246C90.4216 32.8367 89.734 33.0893 89.0679 33.2568C88.9143 33.2954 87.567 33.6078 87.5654 33.6188C87.5043 34.0441 91.3709 33.6503 91.7029 33.5865C92.2887 33.4738 92.9169 33.1538 93.5233 33.2309C93.989 33.2901 95.0497 33.9732 94.307 34.4271C94.1607 33.7271 93.6588 34.3052 93.3967 34.5414C93.0476 34.8559 92.5475 34.8256 92.0687 34.9488C91.4139 35.117 89.7376 35.7482 89.2725 34.9435C89.4196 35.6488 86.7475 35.2904 86.3801 35.2671C86.022 35.2442 85.5598 35.3203 85.2136 35.2182C84.9879 35.1517 84.8623 35.0049 84.6499 34.9718C84.5978 35.0279 84.5354 35.0661 84.4628 35.0863C84.3551 35.0319 84.2578 34.9625 84.1711 34.8786C83.4555 34.5497 82.3483 34.3679 82.7459 33.3202C83.121 32.3321 84.4611 31.724 85.3708 31.3614ZM92.0781 31.9721C92.096 31.9105 92.1138 31.849 92.1315 31.7873C92.1338 31.976 92.5838 32.0566 92.5318 32.3011C92.4166 32.8424 91.8972 32.029 91.8527 31.9403C91.9279 31.951 92.0029 31.9614 92.0781 31.9721ZM94.8257 32.8715C94.8778 33.0933 95.4763 33.5654 95.328 33.6743C95.0921 33.3535 94.4399 33.4992 94.8257 32.8715ZM84.731 53.1061C84.9501 52.6716 85.6125 53.4115 85.5425 52.6697C85.9027 52.7023 85.6778 52.9763 86.1094 52.8559C86.2711 52.8107 86.3804 52.6315 86.5776 52.5901C86.6301 52.5791 86.8572 52.5971 86.9355 52.5947C87.1951 52.5868 88.2122 52.5578 87.5121 52.2174C87.904 51.9584 87.9523 52.0898 88.3059 52.3272C88.2152 51.8365 88.7356 52.115 88.9779 52.1763C88.8051 51.8964 89.2338 51.5986 89.373 51.4095C89.3231 51.7009 89.3494 52.0271 89.7711 51.8408C89.8761 51.7944 89.8525 51.5885 89.9359 51.5548C90.0884 51.4933 90.1737 51.6053 90.2285 51.5989C90.2823 51.5929 90.3958 51.6231 90.509 51.5805C90.6561 51.5252 90.5851 51.3277 90.7716 51.2984C90.893 51.2793 90.9817 51.4579 91.13 51.4593C91.2061 51.4601 91.3332 51.3828 91.391 51.3869C91.4012 51.3876 91.4736 51.2129 91.5626 51.2087C91.6927 51.2023 91.7457 51.551 91.7932 51.6187C92.021 51.9418 92.3239 52.1525 92.6733 52.3249C92.0412 52.9044 90.7661 52.843 89.9713 53.0384C89.5408 53.1443 89.1735 53.297 88.7796 53.4939C88.6845 53.5557 88.6026 53.6315 88.5342 53.7214C88.4784 53.6844 88.4225 53.6473 88.3667 53.6103C88.1509 53.6236 87.9467 53.5167 87.7036 53.5578C86.9531 53.6844 86.3654 54.2467 85.6026 54.3719C85.2598 54.4283 84.9782 54.5069 84.7549 54.2098C84.559 53.9492 84.5914 53.3832 84.731 53.1061ZM83.7019 49.6427C83.872 49.7866 83.6673 50.2549 83.9967 50.204C84.2304 50.1679 84.1838 49.8053 84.3673 49.7285C84.6084 49.6277 84.7539 49.8669 84.9805 49.8447C85.4029 49.8031 85.3787 49.4343 85.0218 49.2723C85.3929 49.1743 85.5118 49.6131 85.8404 49.6091C86.272 49.6039 86.169 49.0948 86.5363 49.0104C86.6953 48.9738 86.6422 49.2073 86.7453 49.2364C86.9519 49.2944 87.0957 49.1948 87.2784 49.1071C87.4419 49.0288 87.5583 48.8774 87.737 48.8261C87.8183 48.8026 88.0249 48.8455 88.0845 48.802C88.2047 48.7144 88.3124 48.373 88.4308 48.3278C88.4066 48.337 88.7946 48.5314 88.8502 48.5497C88.8161 48.6939 88.7372 48.711 88.6133 48.6012C88.6133 48.9266 89.5174 49.0279 89.332 48.6259C89.8209 48.8283 89.4568 48.9325 89.408 49.215C89.3885 49.3286 89.3224 49.3255 89.342 49.4456C89.351 49.5009 89.6073 49.4533 89.604 49.5287C89.5825 50.0143 88.0349 50.1636 87.7417 50.2064C87.1347 50.2951 86.5603 50.4442 85.9751 50.6279C85.5394 50.7647 84.7884 51.1564 84.3248 51.1321C83.658 51.0971 83.5711 50.2272 83.7019 49.6427ZM82.2121 44.6878C82.0495 44.1476 82.5711 43.0319 83.2504 43.1713C83.4174 43.2056 83.4586 43.344 83.5881 43.4053C83.769 43.4912 84.0632 43.4461 84.2201 43.5347C84.5717 43.7338 84.3945 44.2409 84.7468 44.4242C84.1905 44.559 82.4704 45.5464 82.2121 44.6878ZM82.8558 46.7865C83.0955 46.6577 83.4839 46.6412 83.6473 46.3935C83.7287 46.4498 83.8826 46.792 84.0285 46.7396C84.0967 46.7153 84.1671 46.5298 84.1622 46.5299C84.2922 46.5263 84.318 46.3502 84.5168 46.37C84.6991 46.3883 84.9034 46.6076 85.0658 46.6893C85.0379 46.1457 85.1772 46.0938 85.6179 45.8028C85.7146 45.7391 85.7953 45.4998 85.8844 45.403C85.7991 45.9734 86.0141 45.9765 86.4696 46.0622C87.0406 46.1696 87.3963 46.4762 87.6252 47.0279C87.1385 46.933 86.5109 47.0472 86.3191 47.5703C85.9307 46.8607 84.5193 47.8399 84.0626 48.0404C83.7237 48.1893 83.3295 48.3893 83.0453 48.0424C82.8452 47.7981 82.9599 47.5042 82.9641 47.2872C82.9653 47.219 83.0357 47.215 83.0292 47.1135C83.0209 46.9839 82.8523 46.9322 82.8558 46.7865ZM88.051 57.9442C87.9225 57.9929 87.261 58.0202 87.2567 57.8011C87.2532 57.6075 88.4241 57.8025 88.051 57.9442ZM86.9765 57.2354C86.476 57.5439 85.9161 56.4568 85.7321 56.1437C86.2571 56.2108 86.5134 55.7717 86.8226 55.438C87.1169 56.0826 87.5636 55.7419 88.0336 55.5266C88.5877 55.2727 89.1951 55.2708 89.7628 55.067C89.94 55.0034 90.1033 54.9088 90.2763 54.8361C90.4156 54.784 90.5544 54.7306 90.6927 54.6759C90.7908 54.5873 90.8257 54.4783 90.7971 54.3491C90.7506 54.2405 90.7824 54.1718 90.8923 54.1435C91.023 54.1825 91.1564 54.2052 91.2927 54.2112C91.5115 54.1679 91.826 53.9615 91.5619 53.739C91.8448 53.4819 92.1283 53.7375 92.4008 53.8501C92.336 53.6655 92.2716 53.4809 92.2068 53.2963C92.3419 53.3537 92.7433 53.9144 92.7841 53.9113C93.0435 53.8918 93.0165 53.5437 93.1655 53.4033C93.2516 53.5094 93.2762 54.3004 93.6144 54.0339C93.759 53.92 93.4477 53.5319 93.3709 53.4436C93.7578 53.5309 94.0955 53.9927 94.2001 54.3513C94.0164 54.3778 93.8466 54.3409 93.6907 54.2403C93.5909 54.7396 94.5152 54.5373 94.6648 54.7982C94.9578 55.3088 93.0518 55.6636 92.8035 55.7109C92.3065 55.8056 91.72 55.8409 91.2645 56.0612C90.8281 56.272 90.7248 56.3324 90.2149 56.3719C89.6328 56.4171 89.0649 56.6089 88.5019 56.7582C88.013 56.8878 87.4099 56.9683 86.9765 57.2354ZM97.6147 38.9556C98.0743 38.7902 99.6224 37.9319 100.016 38.3136C99.9748 38.2732 100.301 38.9463 100.297 38.904C100.325 39.2541 100.317 39.395 99.8857 39.5628C99.5771 39.6829 99.3082 39.4276 99.0305 39.529C98.7256 39.6404 98.9389 39.8375 98.7819 39.9752C98.6099 40.1261 98.2782 40.1913 98.0641 40.2574C97.54 40.4193 97.0118 40.5546 96.4902 40.729C95.4289 41.0838 94.3051 41.414 93.2144 41.665C92.3993 41.8526 91.0159 42.3187 90.2649 41.7682C90.1916 42.0811 90.0125 42.0383 89.7637 42.0839C89.5685 42.1196 89.2156 42.2163 89.042 42.2213C88.7533 42.2297 87.9505 42.154 88.061 41.749C88.0306 41.8605 88.6854 41.4787 88.5721 41.4549C88.8502 41.5135 88.7601 41.3735 88.9879 41.2956C89.2855 41.1939 89.5965 41.1994 89.9003 41.0917C90.6662 40.8202 91.3087 40.4678 92.1171 40.2977C93.9636 39.9092 95.8332 39.5967 97.6147 38.9556ZM23.5907 80.7988C23.4411 80.8028 23.3247 80.3777 23.7799 80.6812C23.7169 80.7205 23.6539 80.7596 23.5907 80.7988ZM19.995 80.2487C19.7915 80.3008 19.7104 80.1872 19.7518 79.9082C20.0356 79.7961 20.1166 79.9095 19.995 80.2487ZM17.219 79.6794C17.167 79.4306 17.3514 79.3745 17.5186 79.2628C17.5017 79.5925 17.5017 79.5925 17.219 79.6794ZM10.2345 77.6323C9.95309 77.5705 9.57817 77.2953 9.5137 77.7573C9.46663 77.6503 9.22642 77.1472 9.32956 77.0307C9.38341 76.9698 9.58732 77.2516 9.56563 77.2237C9.81189 76.7256 10.2364 77.3267 10.4736 77.5045C10.394 77.5472 10.3141 77.5898 10.2345 77.6323ZM83.3907 22.583C83.4878 22.3777 83.6024 22.3124 83.734 22.3875C83.5272 22.868 82.8266 23.1284 83.3907 22.583ZM88.2583 18.0734C88.4318 18.3988 88.1708 18.5363 87.9844 18.8067C88.0935 18.515 88.169 18.3129 88.2583 18.0734ZM109.413 49.8321C110.039 49.8319 111.373 49.5015 111.75 50.217C112 49.7308 112.284 50.6425 112.5 50.7887C112.525 50.8053 112.681 50.6859 112.753 50.7299C112.863 50.7961 112.957 50.9766 113.02 51.0838C113.209 51.4073 113.29 51.7918 113.395 52.1477C112.302 52.1477 111.181 51.8931 110.089 51.8006C109.372 51.7398 108.669 51.7381 107.951 51.7767C107.808 51.7844 107.525 51.7373 107.403 51.7642C107.279 51.7915 107.054 52.0439 106.918 52.0034C107.13 52.4019 109.849 53.3667 110.057 52.9254C109.811 52.7766 109.265 52.6624 109.265 52.303C109.266 51.9004 109.777 51.9011 110.049 51.9129C110.642 51.9389 111.635 52.1363 111.878 52.753C111.982 53.0174 112.014 53.6832 111.9 53.9384C111.826 54.1032 111.701 54.3014 111.503 54.3349C111.421 54.3486 111.304 54.2405 111.292 54.2431C110.885 54.3294 110.132 54.6562 109.688 54.1955C109.368 54.6096 107.826 54.1572 107.354 54.001C106.529 53.7277 105.392 53.3525 104.891 52.5823C104.28 51.6436 105.522 50.8503 106.236 50.4687C107.211 49.9473 108.325 49.8325 109.413 49.8321ZM113.579 52.0025C113.771 52.0566 113.963 52.1109 114.154 52.1651C114.103 52.5015 113.346 52.2353 113.579 52.0025ZM119.379 64.2307C119.438 62.8829 119.048 61.6959 118.823 60.3923C118.767 60.0692 118.824 59.5042 118.579 59.2385C118.344 58.9844 117.821 59.191 117.8 58.7418C117.569 59.0123 117.593 59.0688 117.308 58.7578C117.36 58.8911 117.367 59.0267 117.331 59.1648C117.154 59.0636 116.514 58.7275 116.568 59.1871C116.041 59.0707 116.194 58.7415 115.894 58.4903C115.851 58.4546 115.68 58.5813 115.613 58.5273C115.492 58.4295 115.432 58.3406 115.331 58.2146C115.201 58.371 115.025 58.4841 114.867 58.6077C114.775 58.4075 114.596 58.2605 114.381 58.2118C114.582 58.6326 115.079 59.1777 114.397 59.4172C113.99 59.56 113.323 59.3848 112.892 59.4182C111.294 59.5421 109.544 59.1938 107.999 58.8131C106.412 58.4221 104.807 57.8701 103.379 57.0633C103.075 56.8913 102.884 56.6877 102.622 56.4743C102.367 56.2669 102.182 56.2341 101.876 56.1015C101.324 55.8627 100.82 55.4799 100.401 55.0532C99.4999 54.1356 98.6624 52.9356 98.9134 51.5921C99.1636 50.2531 100.084 49.2067 101.069 48.325C102.232 47.2836 103.545 46.4141 104.939 45.7131C105.562 45.3999 107.156 44.2228 107.772 44.9115C108.166 45.3515 107.944 45.9129 107.407 46.0107C107.274 46.0349 107.135 45.9459 107.001 46.0069C106.808 46.0948 106.876 46.1987 106.796 46.272C106.658 46.3994 106.51 46.598 106.303 46.7083C105.581 47.0936 104.882 47.3988 104.192 47.868C103.873 48.0842 103.567 48.1772 103.286 48.3659C103.007 48.5534 102.944 48.8638 102.568 48.6723C102.702 49.2183 101.899 49.8028 101.585 50.1373C101.097 50.6552 100.513 51.3162 100.74 52.0824C101.186 53.5824 103.197 54.7216 104.484 55.381C106.09 56.2037 107.861 56.8587 109.65 57.1297C110.539 57.2644 111.458 57.3477 112.354 57.4331C113.051 57.4996 114.121 57.256 114.623 57.8841C114.639 57.1517 116.926 57.2163 117.413 57.1226C116.437 53.7859 114.52 50.8191 112.471 48.0473C111.465 46.6866 110.478 45.2873 109.331 44.0399C108.076 42.6744 106.643 41.454 105.28 40.1975C102.608 37.733 99.5861 35.5336 96.5109 33.596C93.4428 31.663 90.2654 29.7605 86.9041 28.3822C83.0651 26.8082 79.0233 25.7729 74.9771 24.8911C75.526 24.1918 76.4188 23.8506 77.1216 23.3389C77.3677 23.1598 77.7002 22.7299 78.0198 22.6711C78.366 22.6074 78.6385 22.9798 78.8849 23.1667C79.5921 23.7032 80.0812 23.4754 80.8912 23.4431C81.3759 23.4238 82.5237 23.6936 82.7281 23.0381C82.9998 23.3999 82.6057 23.6899 82.404 23.9552C82.5508 24.16 82.6692 23.9476 82.8142 23.9155C82.8589 23.8785 82.9035 23.8413 82.9482 23.8043C83.0202 23.7001 83.0851 23.6995 83.1428 23.8022C83.2293 23.9324 83.3163 23.9036 83.404 23.7158C83.428 23.7007 83.4519 23.6855 83.476 23.6705C83.5807 23.6147 83.6818 23.5265 83.7792 23.457C84.5153 22.931 85.1713 22.4829 85.9838 22.0954C86.6662 21.7702 86.2993 21.148 86.7492 20.7086C86.851 20.6092 87.0223 20.659 87.1312 20.5748C87.2377 20.492 87.2538 20.3982 87.3315 20.3095C87.5185 20.0963 87.296 19.8489 87.7728 20.1099L87.6008 19.1418C88.5358 20.0489 88.5321 17.4385 88.6599 17.0522C88.6431 17.1033 88.7439 16.708 88.7437 16.7114C88.7711 15.9281 88.8781 15.3603 87.9607 15.3149C88.308 15.0964 88.4142 15.5231 88.5746 15.0813C88.6549 14.86 88.4042 14.4796 88.8038 14.6223C88.888 14.1519 88.8048 13.7712 88.7 13.3141C88.5926 12.8463 88.6558 12.5341 88.6606 12.0662C88.6661 11.5355 88.4176 11.0021 88.3381 10.4795C88.2758 10.0702 88.34 9.42465 87.8109 9.575C87.7365 9.45858 87.9979 9.10049 87.9872 8.92343C87.9707 8.6484 87.6722 8.36895 87.5877 8.10484C87.4633 8.2332 87.288 8.27599 87.1188 8.21801C87.2777 7.85917 87.1285 7.73863 86.9764 7.42922C86.8892 7.25202 86.9419 7.05637 86.7552 6.92936C86.6482 6.85647 86.4659 6.97923 86.3821 6.8938C86.2023 6.71084 86.2688 6.46813 86.1451 6.22703C85.99 5.92471 85.6358 5.6938 85.3917 5.46687C84.0194 4.19133 82.5289 3.21648 80.7034 2.71807C78.8619 2.21523 76.7149 2.03507 74.8796 2.61508C74.146 2.84688 73.4947 2.82312 72.8344 3.25603C72.6203 3.39649 72.5973 3.35887 72.4886 3.59302C72.4635 3.64762 72.6915 3.79295 72.5519 3.88222C72.4002 3.97915 72.2327 3.78203 72.1554 3.6184C71.2002 4.30981 70.3052 5.23153 69.7612 6.28841C69.2206 7.33863 69.171 8.57242 68.9646 9.71369C68.0124 8.62597 66.7247 8.10454 65.3246 8.62745C64.1042 9.08308 63.1586 10.0846 62.9199 11.3822C62.7742 12.1732 62.9333 12.9742 63.2926 13.6879C63.4479 13.9962 63.6361 14.3377 63.9217 14.5453C64.1476 14.7093 64.5345 14.6863 64.6409 14.9823C64.8039 15.4357 63.8622 16.415 63.6178 16.8119C63.1756 17.5301 62.7646 18.2719 62.4518 19.0564C61.3303 17.4722 60.2568 15.7419 58.9815 14.2812C57.778 12.9025 56.3432 11.666 54.9361 10.5007C52.0155 8.08212 48.9787 5.80992 45.7117 3.8831C42.6698 2.08893 38.9952 1.09284 35.45 1.44503C31.986 1.78926 29.334 3.98004 27.1023 6.50678C22.8114 11.365 20.1833 18.2896 19.9265 24.7567C19.8494 26.6995 19.9974 28.6168 20.4772 30.5012C20.7057 31.3984 20.6725 32.2809 20.8053 33.1896C20.9552 34.2148 21.2145 35.2362 21.4652 36.2405C22.4201 40.0659 23.6368 43.8884 25.002 47.5871C25.7119 49.5105 26.5707 51.3909 27.7327 53.0869C28.2693 53.8704 28.9645 54.4833 29.542 55.2273C30.1023 55.9488 30.2503 56.8343 30.3735 57.7196C30.6689 59.8424 30.8648 61.9741 31.0424 64.1093C31.1178 65.0142 31.2059 65.9111 31.3257 66.8097C31.4302 67.5932 31.1674 67.5547 30.5083 67.8207C30.642 67.1167 27.4931 67.5957 27.1957 67.6438C26.8722 67.696 26.5296 67.6968 26.2748 67.7384C25.9898 67.7847 25.711 67.8518 25.3828 67.8424C24.9005 67.8285 23.9974 67.7053 23.8132 68.321C23.6865 67.6072 22.8493 68.3877 23.4687 68.2552C22.8329 68.3263 22.1842 68.208 21.5407 68.2679C20.8033 68.3364 20.0595 68.4016 19.3272 68.5126C18.8174 68.5897 18.331 68.7861 17.8203 68.8431C17.1668 68.9161 16.4849 68.9093 15.825 68.9674C13.3912 69.1821 10.8686 69.713 8.50285 70.3209C7.96696 70.4585 7.35124 70.5564 6.83926 70.7774C6.70218 70.8364 6.57884 70.9686 6.44752 71.0194C6.22738 71.1044 6.25748 71.0456 6.06198 71.0846C4.8906 71.3187 3.68219 71.7012 2.51096 72.0013C1.86131 72.1679 0.804577 72.3181 0.274647 72.7715C0.0370961 72.9745 -0.170502 73.3347 0.210169 73.5654C0.514264 73.7497 0.948289 73.4555 1.1944 73.2965C0.975142 73.8679 0.561627 74.1527 0.784954 74.8028C0.961273 75.3165 1.35935 75.9497 1.97182 75.6183C2.05386 75.8091 2.08706 76.1885 2.32859 76.2586C2.54563 76.3216 2.70277 76.0466 2.91539 76.1114C2.99152 76.1345 2.9626 76.2784 3.03077 76.316C3.14822 76.3806 3.26729 76.4081 3.40185 76.4537C3.51753 76.4929 3.70373 76.5735 3.82442 76.582C3.901 76.5875 4.08145 76.4565 4.08086 76.4565C4.25674 76.4832 4.35132 76.8197 4.47791 76.917C4.64228 77.0433 4.77802 77.0721 4.98385 77.1178C5.41174 77.2128 5.96327 77.3757 6.24567 76.9376C6.18105 77.2504 6.60643 77.2197 6.79411 77.2594C6.7733 77.0946 6.68227 76.9437 6.5418 76.8532C6.96143 76.881 6.7913 77.2981 7.10145 77.4083C7.32247 77.4867 7.29739 77.2875 7.46648 77.2653C7.68928 77.2363 7.85836 77.398 8.20628 77.2488C8.28168 77.5839 8.30927 77.9218 8.72078 77.9718C8.96231 78.0012 9.5255 77.565 9.49363 77.928C10.0332 77.7698 10.238 77.8768 10.52 78.3523C10.5676 78.0603 10.7982 78.145 11.0098 78.127C11.3452 78.0984 11.3538 78.1254 11.6137 77.9355C11.6375 77.9182 11.842 77.4498 11.9329 77.7409C11.9737 77.8713 11.7036 78.1782 11.6036 78.2563C11.7278 78.3191 12.1349 78.5391 12.2914 78.4987C12.4269 78.4637 12.4273 78.2322 12.5901 78.2203C12.5502 78.3534 12.5105 78.4866 12.4705 78.6197C12.7872 78.6657 13.0517 78.4538 13.3018 78.2986C13.5403 78.9015 14.2218 78.5618 14.5924 79.0155C14.7885 79.2556 14.7977 79.438 15.1712 79.5007C15.5535 79.5649 15.8874 79.3971 16.2123 79.7124C16.1093 79.5168 15.8528 79.3545 16.1077 79.1442C16.2812 79.3905 16.3708 79.687 16.5709 79.916C16.5985 79.7996 16.6261 79.6832 16.6536 79.5666C17.1752 80.1245 17.8318 80.1294 18.4999 80.4386V80.0304C18.9783 80.7604 19.0038 80.2985 19.5752 80.0003C19.5364 80.215 19.4975 80.4296 19.4587 80.6442C19.8699 80.6132 20.2541 81.1004 20.5917 80.6865C20.7956 81.0285 21.0427 80.8602 21.3769 80.9688C21.567 81.0306 21.7085 81.2177 21.8933 81.2854C22.1706 81.3869 22.2534 81.3822 22.5144 81.4706C22.7465 81.5491 22.8784 81.7019 23.1689 81.7509C23.3576 81.7828 23.5288 81.7804 23.7094 81.7717C23.7791 81.7683 23.7561 81.6114 23.9112 81.6479C24.151 81.7047 24.3295 82.0054 24.5021 82.1596C24.7618 81.5069 25.4889 82.3812 25.8404 82.4977C25.874 82.3303 25.868 82.1286 25.9891 81.9911C26.1313 82.3027 26.1856 82.5647 26.4809 82.7653C26.6513 82.8811 26.9015 82.9641 27.0984 83.0064C27.2227 83.0331 27.4488 83.0011 27.527 83.0395C27.6604 83.1048 27.7095 83.2794 27.8442 83.2957C27.9234 83.3053 28.0409 83.0968 28.1002 83.1131C28.3717 83.1871 28.5225 83.5169 28.7966 83.6953C29.6124 84.226 30.6391 84.2775 31.5479 84.3939C31.7761 84.423 31.8091 84.3607 31.9944 84.4946C32.0933 84.5661 32.0484 84.7836 32.17 84.8445C32.6281 85.0741 32.6284 84.5843 32.7245 84.2799C32.876 84.4798 32.9021 84.7438 33.1094 84.9028C33.2226 84.8996 33.3359 84.9021 33.4489 84.9105C33.5127 84.9832 33.5546 85.0672 33.5741 85.1624C33.8485 85.3477 34.1594 85.2832 34.4428 85.4223C34.5358 85.4679 34.7004 85.7437 34.8149 85.8229C35.0199 85.9649 35.3368 86.0407 35.571 86.1024C36.062 86.2316 36.7661 86.0599 37.0582 86.5726C37.4461 86.1568 37.2961 86.6533 37.5595 86.7576C37.715 86.8192 37.9488 86.5744 38.1213 86.5987C38.4319 86.6424 38.5437 86.9787 38.6432 87.2231C38.8323 87.1809 38.7025 86.6458 38.6972 86.5285C38.9322 86.5008 38.9845 87.1197 39.025 87.2558C39.3961 87.0771 38.7871 86.521 39.186 86.3426C39.1494 86.8164 39.527 87.2065 38.8527 87.2744C38.9458 87.5597 41.1207 87.8766 41.2717 87.6248C41.3052 88.0904 41.618 87.6555 41.7334 87.4961C41.7464 87.7677 41.6539 88.1533 41.9587 88.2796C42.1659 88.3653 42.633 88.1435 42.7143 87.9405C42.8071 88.2507 42.9626 88.2406 43.1559 88.4376C43.2887 88.5729 43.3762 88.8075 43.5155 88.9208C43.7718 89.1293 44.2485 89.0974 44.5471 89.0508C45.1314 88.9596 45.0624 88.8476 45.2706 89.4549C45.3176 89.2245 45.4652 88.7424 45.7225 89.1008C45.8863 89.3285 45.5376 89.8303 45.4369 90.0302C45.662 89.9066 45.8855 89.7599 46.1417 89.7067C46.156 89.7856 46.1691 89.9531 46.1314 90.0261C46.139 90.0113 46.4123 90.1946 46.5136 90.2454C46.4893 90.2331 46.5938 89.7769 46.5908 89.7918C46.9513 90.0143 46.7012 90.4397 47.0205 90.6591C47.103 90.7159 47.2965 90.6496 47.3963 90.6842C47.5699 90.7444 47.7201 90.9071 47.8745 91.0023C47.7513 90.837 47.769 90.5596 47.7774 90.3689C47.8559 90.4122 47.912 90.5745 47.9912 90.5874C48.0211 90.5922 48.3317 90.6334 48.3297 90.6319C48.6529 90.8583 48.5864 90.8867 48.3089 91.159C48.408 91.3148 48.8225 91.044 48.9346 90.999C48.9581 91.06 48.9641 91.2813 49.0082 91.3208C49.0349 91.3863 49.0618 91.4519 49.0886 91.5174C49.1714 91.4557 49.2602 91.435 49.355 91.4555C49.4149 91.4763 49.8824 91.6665 49.9142 91.6015C49.8119 91.5684 49.7191 91.5177 49.6362 91.4493C49.9061 91.2068 50.0836 91.0778 50.3322 91.4281C50.3635 91.4722 50.2559 91.6307 50.2878 91.6882C50.4065 91.9025 50.6506 92.0729 50.8163 92.2474C50.8849 92.0065 50.7252 91.4032 51.1062 91.4251C51.4106 91.4426 51.6421 92.18 51.5367 92.4093C51.6577 92.2769 52.3801 92.1455 52.5165 92.1868C52.902 92.3036 52.7938 92.6601 53.2682 92.1378C53.5916 92.361 53.3066 92.4456 53.3649 92.7177C53.4503 92.7355 53.5311 92.7144 53.6077 92.6544C53.5505 93.8107 54.4037 92.9272 54.9578 93.1038C55.1753 93.1731 55.2309 93.42 55.4643 93.4921C55.5878 93.5302 55.7252 93.44 55.8453 93.462C55.9415 93.4483 56.0371 93.4313 56.1321 93.4111C56.2525 93.3508 56.309 93.4182 56.3016 93.6136C56.4952 93.7139 56.422 93.7531 56.6484 93.7726C56.7941 93.7853 56.9283 93.6336 57.094 93.6594C57.3798 93.7043 57.342 93.9237 57.5247 94.0384C57.689 94.1416 57.8743 94.1382 58.0768 94.1183C58.1799 94.1081 58.4695 93.9752 58.5044 93.9748C58.7207 93.9718 58.6034 93.9258 58.8631 94.1115C59.0652 94.2564 59.15 94.3503 59.3982 94.417C59.6828 94.4932 60.1877 94.6601 60.3792 94.4544C60.6379 94.8422 60.8405 94.5576 61.1819 94.5832C61.3566 94.5965 61.3843 94.6645 61.5399 94.6917C61.7919 94.7357 62.1063 94.6976 62.3744 94.7836C62.7968 94.9194 62.8445 94.9875 63.2762 95.0058C63.3541 94.9754 63.432 94.9449 63.5098 94.9145C63.5331 95.0445 63.5943 95.1506 63.6936 95.2327C63.9351 95.2834 64.0937 95.1615 64.2929 95.028C64.4414 95.4902 64.923 95.5306 65.3349 95.5914C65.9996 95.6896 66.6352 95.7431 67.2762 95.9616C67.8175 96.1461 68.3599 96.3532 68.8806 96.5894C69.3389 96.7973 69.7714 97.1082 70.2898 96.9623C71.4646 96.6315 72.6031 95.4256 73.5859 94.7332C74.75 93.9131 76.0055 93.2373 77.2219 92.5C82.0644 89.5647 87.1803 87.0817 91.9549 84.0372C94.5616 82.3751 96.9804 80.4001 99.7798 79.0554C99.3813 80.7022 98.7028 82.3739 98.8255 84.098C98.8747 84.7928 99.0794 85.6136 99.6182 86.0985C100.284 86.6983 101.026 86.3165 101.664 85.888C103.029 84.9701 103.939 83.6307 104.961 82.373C106.169 80.8851 107.107 79.2866 107.994 77.5908C108.207 77.8893 108.045 78.3894 108.048 78.7203C108.052 79.1426 108.166 79.5495 108.362 79.9265C108.868 80.8994 109.83 81.1354 110.699 80.4687C112.372 79.1858 113.343 76.901 114.239 75.0611C114.75 76.0122 115.476 77.2094 116.704 76.5301C117.717 75.9696 118.312 74.7171 118.622 73.6562C119.526 70.5595 119.24 67.4051 119.379 64.2307Z" fill="#2B150A"/>
<path fill-rule="evenodd" clip-rule="evenodd" d="M117.842 45.6301C117.727 45.3494 117.676 45.3953 117.888 45.1232C118.054 45.2863 117.921 45.421 117.842 45.6301ZM122.962 62.6147C122.637 61.691 122.838 60.688 122.64 59.7406C122.55 59.3059 122.407 58.8842 122.355 58.4417C122.333 58.2453 122.158 57.3614 122.277 57.2223C121.91 57.0003 121.909 56.8361 121.824 56.401C121.955 56.2625 121.939 56.1443 121.775 56.0462C121.668 55.9169 121.561 55.7875 121.454 55.6583C121.922 55.8868 121.645 55.3018 121.598 54.9646C121.56 54.6982 121.534 54.4202 121.446 54.1648C121.336 53.8508 121.093 53.692 121.599 53.692C121.432 53.5027 121.184 53.3074 121.101 53.0756C120.981 52.742 121.178 52.3011 120.935 52.0065C120.799 51.8421 120.1 51.7778 120.223 51.4228C120.285 51.2419 120.569 51.3769 120.656 51.2501C121.001 50.752 119.984 50.5456 119.934 50.3337C119.869 50.059 120.237 49.9976 120.259 49.7407C120.281 49.4893 119.89 49.0762 119.787 48.8513C119.646 48.8855 119.492 49.1082 119.331 49.0018C119.3 48.9817 119.346 48.1114 119.31 47.9958C119.274 47.8822 119.2 47.5809 119.174 47.5252C119.069 47.3037 118.771 47.1958 118.724 46.9342C118.695 46.7781 119.307 46.5418 118.605 46.5344C118.857 46.0903 118.396 45.8204 118.228 45.4409C118.012 44.953 117.884 44.4259 117.662 43.9355C117.447 43.4588 117.205 43.0064 116.894 42.5848C116.613 42.2031 116.491 41.836 116.266 41.4329C116.221 41.3975 116.176 41.3621 116.131 41.3267C115.943 41.3539 115.883 41.2684 115.951 41.0703C115.807 40.8577 115.7 40.6307 115.574 40.4087C115.427 40.1506 115.228 39.9402 115.076 39.6892C114.874 39.3565 114.815 38.9813 114.587 38.6475C114.307 38.2369 113.992 37.8748 113.732 37.4489C113.406 36.9152 113.046 36.5835 112.636 36.1702C112.441 35.9734 112.418 35.4818 112.179 35.2023C111.919 34.8979 111.662 34.8155 111.482 34.4159C111.247 33.8961 110.903 33.6479 110.568 33.1986C110.291 32.828 110.156 32.402 109.852 32.0435C109.59 31.7356 109.292 31.4542 109.013 31.1622C108.66 30.7935 108.399 30.3454 108.032 29.9948C108.085 30.0454 107.712 29.75 107.731 29.7595C107.648 29.7174 107.382 29.6836 107.421 29.7065C106.867 29.3806 106.172 28.1876 105.337 28.8197C104.898 29.1521 105.109 29.7618 105.415 30.0929C105.547 30.2351 106.231 30.9363 106.379 30.6406C106.538 30.8666 107.029 31.9594 107.438 31.6463C107.396 32.0197 107.613 31.8958 107.755 32.1482C107.849 32.3148 107.804 32.3966 107.872 32.6565C108.061 33.3713 108.779 34.0693 109.162 34.6925C110.115 36.2437 111.167 37.7149 112.12 39.2678C113.03 40.7479 114.048 42.1522 114.92 43.6522C115.912 45.3578 117.148 46.9679 117.895 48.8066C117.92 48.8684 118.128 48.9663 118.179 49.0591C118.269 49.2203 118.25 49.4992 118.308 49.6819C118.508 50.3151 118.833 50.9385 119.203 51.463C119.528 51.9232 119.552 52.5487 119.776 53.0886C120.091 53.8495 120.424 54.6024 120.73 55.3671C121.207 56.5574 121.53 57.6982 121.859 58.9409C122.073 59.7462 122.243 60.5511 122.311 61.3826C122.373 62.1474 122.389 62.944 122.672 63.668C122.865 63.37 123.092 62.9838 122.962 62.6147Z" fill="#2B150A"/>
<path fill-rule="evenodd" clip-rule="evenodd" d="M13.9042 79.0011C13.5616 78.9319 13.2392 78.8395 13.1666 78.4462C13.1169 78.6316 13.0673 78.8171 13.0176 79.0026C13.4347 79.097 13.852 79.1916 14.2691 79.286C14.1717 79.1144 14.1006 79.0408 13.9042 79.0011Z" fill="#2B150A"/>
<path fill-rule="evenodd" clip-rule="evenodd" d="M14.8242 14.4435C14.8501 14.3325 14.8838 14.2238 14.9252 14.1177C14.9534 14.2211 15.0915 14.4448 15.0111 14.5424C14.9087 14.6661 14.8051 14.5961 14.8242 14.4435ZM16.5037 11.2479C16.6161 11.2975 16.8594 11.3071 16.999 11.349C16.6369 11.6605 16.5732 11.5688 16.105 11.5327C16.0842 11.2175 16.2123 11.1197 16.5037 11.2479ZM13.3652 19.0499C13.4138 19.0512 13.4625 19.0524 13.5113 19.0536C13.5142 18.9164 13.5107 18.7793 13.5004 18.6424C13.9941 18.7503 13.7146 17.8875 13.5595 17.7087C14.0411 17.7248 14.2757 16.2 14.4283 15.9063C14.5637 15.6454 14.7172 15.5445 14.8162 15.2264C14.9028 14.948 14.9965 14.6974 15.1215 14.4341C15.4086 13.8285 15.7853 13.2786 15.7158 12.5729C15.9591 13.1024 16.173 12.5738 16.3274 12.3206C16.576 11.9126 17.1826 11.3921 17.247 10.9075C17.304 10.481 16.9871 10.4584 17.1742 10.0628C17.3633 9.66238 17.5188 9.70251 17.8502 9.57444C18.0706 9.48916 18.1145 9.59274 18.27 9.31446C18.3708 9.13431 18.3352 9.00004 18.4643 8.85235C18.5176 8.89868 18.5782 8.91786 18.6461 8.90989C18.7508 8.77164 18.8196 8.6176 18.8522 8.44777C18.9376 8.21848 18.979 8.00793 19.1076 7.78956C19.2296 7.5827 19.4462 7.02925 19.561 6.9295C19.6829 6.82356 20.3742 6.87741 20.3712 6.88125C20.6567 6.52212 20.1328 6.16432 20.8583 6.24001C20.715 5.97324 21.2183 5.64215 21.3643 5.49372C21.7292 5.12322 21.7583 4.95177 21.8353 4.48582C21.8744 4.24827 21.6192 4.27571 21.9613 4.22156C22.1028 4.19928 22.2386 4.38018 22.3407 4.35362C22.7914 4.23676 22.3199 4.25904 22.4442 4.07534C22.4835 4.01706 22.684 3.78187 22.6821 3.78438C22.6723 3.79619 22.7272 3.57973 22.7727 3.52411C22.8588 3.51673 22.9437 3.50168 23.0271 3.47896C23.0694 3.39338 23.1069 3.30574 23.1393 3.21603C23.4656 2.94395 23.9536 2.82223 24.1792 2.5233C24.3252 2.33001 24.2815 2.14071 24.4701 1.94801C24.6496 1.76446 24.8872 1.8974 24.9227 1.48279C24.968 0.955312 24.4015 0.720565 24.1697 1.25292C23.5411 0.478735 20.9139 3.31917 20.6104 3.69025C19.292 5.30117 17.9963 6.95192 16.9149 8.73328C15.8613 10.469 14.9965 12.2954 14.3206 14.2098C13.9947 15.1328 13.7962 16.0518 13.5972 17.0065C13.5303 17.3263 13.0309 18.7511 13.2388 19.07C13.2808 19.0633 13.323 19.0566 13.3652 19.0499Z" fill="#2B150A"/>
<path fill-rule="evenodd" clip-rule="evenodd" d="M117.136 58.5541C117.358 58.4059 117.358 58.4059 117.397 58.126C117.099 58.1803 117.099 58.1803 117.136 58.5541Z" fill="#2B150A"/>
<path fill-rule="evenodd" clip-rule="evenodd" d="M7.67938 77.3854C7.68231 77.3851 7.68446 77.3859 7.68616 77.3876C7.68123 77.3813 7.66337 77.3626 7.67938 77.3854Z" fill="#2B150A"/>
<path fill-rule="evenodd" clip-rule="evenodd" d="M7.53019 77.5347C7.5988 77.683 7.70902 77.7199 7.86099 77.6451C7.9209 77.7307 7.34133 77.1111 7.53019 77.5347Z" fill="#2B150A"/>
<path fill-rule="evenodd" clip-rule="evenodd" d="M17.5532 9.85602C17.2054 10.5378 17.641 10.0419 17.6187 10.2634C17.6333 10.1179 17.6936 9.91061 17.5532 9.85602Z" fill="#2B150A"/>
<path fill-rule="evenodd" clip-rule="evenodd" d="M74.0928 20.4085C74.2434 21.631 75.916 21.0528 76.2923 20.3133C76.5663 19.7749 77.2581 17.6474 76.5137 17.198C75.9619 16.8648 75.844 18.3008 75.708 18.6215C75.48 19.1587 75.3019 18.7781 74.7951 18.9159C74.2357 19.068 74.0305 19.9015 74.0928 20.4085Z" fill="#2B150A"/>
<path fill-rule="evenodd" clip-rule="evenodd" d="M72.2645 18.1708C72.8624 18.3036 73.4485 18.2351 73.8731 17.7629C74.1083 17.5015 74.4212 16.9829 73.9978 16.7298C73.614 16.5007 73.1789 17.0373 72.7748 16.9263C72.2251 16.7754 72.5081 16.1861 72.3196 15.7969C71.6267 16.1958 71.2401 17.9432 72.2645 18.1708Z" fill="#2B150A"/>
<path fill-rule="evenodd" clip-rule="evenodd" d="M72.8831 21.2579C72.3068 21.2567 72.3021 21.9655 72.6029 22.2693C72.8908 22.56 73.6188 22.8542 74.0091 22.6281C74.779 22.182 73.3495 21.3039 72.8831 21.2579Z" fill="#2B150A"/>
<path fill-rule="evenodd" clip-rule="evenodd" d="M39.3518 49.4446C39.4749 49.5044 39.8375 49.8118 39.9904 49.673C39.7747 49.4557 39.5588 49.2383 39.3431 49.021C39.2239 49.1517 39.1422 49.3428 39.3518 49.4446Z" fill="#2B150A"/>
<path fill-rule="evenodd" clip-rule="evenodd" d="M36.6272 18.3477C36.566 18.3935 36.5046 18.4391 36.4434 18.4846C36.6501 18.6568 36.6449 18.708 36.8532 18.545C36.7914 18.4635 36.7162 18.3979 36.6272 18.3477Z" fill="#2B150A"/>
<path fill-rule="evenodd" clip-rule="evenodd" d="M75.6886 58.9104C75.5728 58.7024 75.354 59.086 75.206 59.1484C74.9652 59.2498 74.7676 58.7127 74.8367 59.3565C74.2924 59.1073 73.962 59.679 73.611 59.9768C73.1151 60.3976 72.5085 60.6258 72.1777 61.2234C73.7348 61.5877 75.4456 60.2453 76.6067 59.3636C76.7961 59.2195 77.7431 58.4932 77.1012 58.4229C76.8388 58.3943 75.8834 59.2601 75.6886 58.9104Z" fill="#2B150A"/>
<path fill-rule="evenodd" clip-rule="evenodd" d="M75.2273 57.6504C75.5324 57.4102 74.8745 57.3882 74.7705 57.363C74.7795 57.554 74.7882 57.745 74.7972 57.936C74.9445 57.8468 75.0879 57.7515 75.2273 57.6504Z" fill="#2B150A"/>
<path fill-rule="evenodd" clip-rule="evenodd" d="M74.0809 58.4515C74.1721 58.3946 74.4263 58.2168 74.2534 58.0843C74.0971 58.1837 73.9854 58.346 73.9609 58.5312C74.0009 58.5047 74.0409 58.4781 74.0809 58.4515Z" fill="#2B150A"/>
<path fill-rule="evenodd" clip-rule="evenodd" d="M48.8633 42.9575C48.6684 43.0339 48.581 43.1548 48.6016 43.3203C48.9011 43.2591 48.844 42.9763 48.8633 42.9575Z" fill="#2B150A"/>
</svg>
