<svg  viewBox="0 0 13 12" fill="none" xmlns="http://www.w3.org/2000/svg">
<path d="M6.49977 5.85866L6.14622 5.5051L3.57047 2.92936C3.57046 2.92934 3.57044 2.92932 3.57042 2.9293C3.55167 2.91059 3.52627 2.90008 3.49977 2.90008C3.47328 2.90008 3.44788 2.91059 3.42913 2.9293C3.42911 2.92932 3.42909 2.92934 3.42907 2.92936M6.49977 5.85866L3.07557 3.42415C2.96309 3.31163 2.8999 3.15905 2.8999 2.99995C2.8999 2.84085 2.96309 2.68827 3.07557 2.57575L3.42907 2.92936M6.49977 5.85866L6.85333 5.5051L9.42913 2.9293L9.42918 2.92936L9.43522 2.92311C9.44444 2.91356 9.45548 2.90594 9.46768 2.9007L9.27033 2.44129L9.46768 2.9007C9.47988 2.89546 9.493 2.8927 9.50628 2.89258C9.51956 2.89247 9.53272 2.895 9.54501 2.90002C9.5573 2.90505 9.56847 2.91248 9.57786 2.92187C9.58725 2.93126 9.59467 2.94242 9.5997 2.95471C9.60473 2.967 9.60726 2.98017 9.60714 2.99345C9.60703 3.00672 9.60427 3.01985 9.59903 3.03205C9.59379 3.04425 9.58617 3.05528 9.57662 3.06451L9.57657 3.06445L9.57042 3.0706L6.99462 5.6464L6.64107 5.99995L6.99462 6.3535L9.56606 8.92494C9.58318 8.94359 9.59262 8.96807 9.5924 8.99345C9.59217 9.01967 9.58165 9.04475 9.56311 9.06329C9.54457 9.08183 9.51949 9.09235 9.49327 9.09257C9.46789 9.09279 9.44341 9.08336 9.42477 9.06624L6.85333 6.4948L6.49977 6.14124L6.14622 6.4948L3.57479 9.06623C3.55614 9.08336 3.53166 9.09279 3.50628 9.09257C3.48006 9.09235 3.45498 9.08183 3.43644 9.06329C3.4179 9.04475 3.40738 9.01967 3.40715 8.99345C3.40693 8.96807 3.41637 8.94359 3.43349 8.92494L6.00493 6.3535L6.35848 5.99995L6.00493 5.6464L3.42918 3.07065L3.07565 3.42408L3.42913 3.0706M6.49977 5.85866L3.42913 3.0706M3.42907 2.92936C3.41039 2.9481 3.3999 2.97349 3.3999 2.99995C3.3999 3.02644 3.41041 3.05185 3.42913 3.0706M3.42907 2.92936L3.42913 3.0706" />
</svg>
